<svg xmlns="http://www.w3.org/2000/svg" viewBox="0 0 448.25 448.15"><g data-name="Layer 2"><path d="M224.18 109.18a114.9 114.9 0 1 0 114.89 114.89 114.71 114.71 0 0 0-114.89-114.89zm0 189.6a74.7 74.7 0 1 1 74.69-74.7 74.83 74.83 0 0 1-74.69 74.7zm146.39-194.3a26.8 26.8 0 1 1-26.79-26.8 26.74 26.74 0 0 1 26.79 26.8zm76.11 27.2c-1.71-35.9-9.9-67.7-36.21-93.9s-58-34.41-93.9-36.2c-37-2.11-147.89-2.11-184.89 0-35.81 1.7-67.6 9.89-93.9 36.1s-34.41 58-36.21 93.89c-2.09 37-2.09 147.9 0 184.9 1.7 35.9 9.9 67.71 36.21 93.9s58 34.4 93.9 36.2c37 2.11 147.89 2.11 184.89 0 35.9-1.7 67.71-9.89 93.9-36.2s34.4-58 36.21-93.9c2.1-37 2.1-147.8 0-184.8zm-47.81 224.5a75.63 75.63 0 0 1-42.6 42.6c-29.5 11.7-99.5 9-132.1 9s-102.7 2.6-132.1-9a75.63 75.63 0 0 1-42.6-42.6c-11.7-29.5-9-99.5-9-132.11s-2.6-102.7 9-132.1a75.63 75.63 0 0 1 42.6-42.6c29.5-11.7 99.5-9 132.1-9s102.7-2.6 132.1 9A75.63 75.63 0 0 1 398.87 92c11.7 29.5 9 99.5 9 132.1s2.7 102.67-9 132.08z" fill="#fff" data-name="Layer 1"/></g></svg>