<svg xmlns="http://www.w3.org/2000/svg" xmlns:xlink="http://www.w3.org/1999/xlink" viewBox="0 0 239.6 128.2"><defs><style>.cls-7{stroke-miterlimit:3.86;fill:#404040;stroke:#fff;stroke-width:.11px}.cls-9{fill:url(#linear-gradient-5)}.cls-10{fill:url(#linear-gradient-15)}</style><linearGradient id="linear-gradient" x1="1099.03" y1="-687.53" x2="1099.03" y2="-567.61" gradientTransform="rotate(-165.85 652.96 -227.727)" gradientUnits="userSpaceOnUse"><stop offset="0" stop-color="#fff"/><stop offset="1" stop-color="#bcbec0"/></linearGradient><linearGradient id="linear-gradient-2" x1="204.82" y1="104.06" x2="204.82" y2="219.41" gradientTransform="rotate(14.15 634.463 -221.427)" xlink:href="#linear-gradient"/><linearGradient id="linear-gradient-3" x1="204.82" y1="43.94" x2="204.82" y2="187.63" gradientTransform="rotate(14.15 634.463 -221.427)" gradientUnits="userSpaceOnUse"><stop offset="0" stop-color="#fff"/><stop offset="1" stop-color="#404040"/></linearGradient><linearGradient id="linear-gradient-4" x1="203.55" y1="104.92" x2="204.77" y2="150.8" xlink:href="#linear-gradient-3"/><linearGradient id="linear-gradient-5" x1="119.15" y1="126.36" x2="119.15" y2="108.46" gradientTransform="translate(1.3)" gradientUnits="userSpaceOnUse"><stop offset=".01" stop-color="#adb7dc"/><stop offset="1" stop-color="#6d6e71"/></linearGradient><linearGradient id="linear-gradient-15" x1="119.15" y1="76" x2="119.15" y2="136.32" gradientUnits="userSpaceOnUse"><stop offset="0" stop-color="#c6c6c6"/><stop offset="1" stop-color="#6d6e71"/></linearGradient></defs><g id="Layer_2" data-name="Layer 2"><g id="Layer_2-2" data-name="Layer 2"><path d="M77 36.2a47.9 47.9 0 1 1 34.73 58.16A47.9 47.9 0 0 1 77 36.2z" fill="url(#linear-gradient)"/><path d="M168.13 59.18a46.07 46.07 0 1 1-33.41-55.94 46.08 46.08 0 0 1 33.41 55.94z" fill="url(#linear-gradient-2)"/><path d="M165.25 58.45A43.1 43.1 0 1 1 134 6.12a43.11 43.11 0 0 1 31.25 52.33z" fill="url(#linear-gradient-3)"/><path d="M163.78 59.55a41.59 41.59 0 1 1-30.16-50.49 41.59 41.59 0 0 1 30.16 50.49z" fill="url(#linear-gradient-4)"/><path stroke-miterlimit="3.86" fill="none" stroke="#404040" stroke-width="1.77" d="M116.75 14.22h13.49v20.75l16.96-11.88 7.72 11.04-19.71 13.8 19.71 13.81-7.72 11.05-16.96-11.88v20.7h-13.49V60.85L99.72 72.79l-7.73-11.05 19.72-13.81-19.72-13.8 7.73-11.04 17.03 11.93v-20.8z"/><path fill="#e1e1e1" d="M116.75 14.22h13.49v20.75l16.96-11.88 7.72 11.04-19.71 13.8 19.71 13.81-7.72 11.05-16.96-11.88v20.7h-13.49V60.85L99.72 72.79l-7.73-11.05 19.72-13.81-19.72-13.8 7.73-11.04 17.03 11.93v-20.8z"/><path class="cls-7" d="M124.58 20.84c.93 0 1.69 1 1.69 2.25l-1.13 51.66a1.12 1.12 0 0 1-1.35 0l-.9-51.66c0-1.25.76-2.25 1.69-2.25z"/><path class="cls-7" d="M126 27.88s-1.85-2-2.46-2-2.87 0-4 1.45a6.94 6.94 0 0 0-.89 5.9 15.52 15.52 0 0 0 4.51 5.77v-3.09s-2.67-2.08-2.56-5c0 0 .18-3.54 2.42-2.36 0 0 1.86.5 2.53.11s.45-.78.45-.78zm.41 10s2.53 1.64 2.19 3.48-4.84 6-5.62 7.31a4.42 4.42 0 0 0 .42 3.48v2.53a6.63 6.63 0 0 1-2.6-5.06c.12-3.09 4.67-7.28 5-7.78 0-.62.08-4.06.08-4.06zm-.83 15.59s2.07 2.16 1.88 3.16a10.79 10.79 0 0 1-2.59 4 4 4 0 0 0-1.22 3c-.06.71 0 2.67 0 2.67s-1.5-.46-1.29-3.4 2.86-5.62 3.17-5.83zm-.27 14.01a4.24 4.24 0 0 1 .58 2 5.44 5.44 0 0 1-1.64 2.28 6.68 6.68 0 0 1-.7.25 1 1 0 0 1 .35-.59 7.28 7.28 0 0 0 1.35-1.73l.06-2.21z"/><path d="M123.59 26.7q.59.09.63.45a.67.67 0 0 1-.63.17.65.65 0 0 1 0-.62z" fill="#fff"/><path class="cls-9" d="M2.14 105c-.29-.29-.29-1.16.11-1.26 1.23.07 2.78.1 4.55.1 1.19 0 2.24 0 3.54-.1 0 2.23 1.26 4.44 2.85 7.83l2.38 5.09c.33.72 1.63 3 2.13 3.9.47-.87 1.05-2 2-4.12l1.84-4a44.48 44.48 0 0 0 3.46-8.75 34.06 34.06 0 0 0 3.58.1c1.19 0 2.85 0 4.15-.1.4.21.4.9.11 1.26l-1 .18c-1.48.25-2.2.69-2.2 2.6 0 7.44.07 11.33.29 15.88.07 1.66.21 2.53 1.62 2.71l1.16.15c.29.28.29 1.11-.07 1.26-1.67-.07-3.22-.11-5-.11s-3.61 0-5.34.11a.82.82 0 0 1-.11-1.26l1.08-.15c1.67-.22 1.67-.65 1.67-2.85l-.08-9.39V110h-.07c-2.67 5.77-5.56 11.8-7.94 17.9a1.13 1.13 0 0 1-.72.26 1.92 1.92 0 0 1-.94-.22c-1.41-4.48-5.85-13.43-7.87-18.12H7.2c-.15 2.34-.19 3.93-.22 5.81 0 2.35-.07 6-.07 8.12 0 1.81.21 2.31 1.66 2.53l1.41.22a1 1 0 0 1-.08 1.26c-1.33-.07-2.89-.11-4.26-.11-1.15 0-2.52 0-4 .11-.47-.15-.47-1.08-.14-1.26l.65-.11c1.84-.33 2.06-.54 2.27-2.78.18-1.77.29-4.91.51-8.34.14-2.42.21-5.35.21-7.29s-.79-2.6-2.23-2.86zm35.67 4.64c0-3.43-.07-4.11-1.74-4.29l-.68-.08c-.36-.18-.36-1.22.07-1.26 3-.18 5.85-.32 9.68-.32a25 25 0 0 1 8.41 1.19 10.93 10.93 0 0 1 7.33 10.47 11.5 11.5 0 0 1-6.47 10.79 20.08 20.08 0 0 1-9.13 1.7c-1.7 0-3.5-.22-4.8-.22-1.73 0-3.58 0-5.63.11a1 1 0 0 1 0-1.26l1.12-.18c1.62-.26 1.84-.55 1.84-3.87zM43 121.09c0 2 .07 3.28.72 4a3.91 3.91 0 0 0 3 1.05c6.24 0 8.37-5.56 8.37-10.47 0-6.5-3.43-10.36-10-10.36a2.63 2.63 0 0 0-1.88.47 4.46 4.46 0 0 0-.25 2.09zm51.23-16.94a49.17 49.17 0 0 0 .43 5.64 1 1 0 0 1-1.37.25 6.54 6.54 0 0 0-6.78-5.16c-4 0-8.31 3.43-8.31 10.61s4.15 11.05 8.49 11.05 6.39-3.14 7.36-5.6a1 1 0 0 1 1.37.26 15.81 15.81 0 0 1-1.37 5.66 26.89 26.89 0 0 1-7.33 1.34 16.44 16.44 0 0 1-9.72-2.75 11.31 11.31 0 0 1-4.57-9.45 11.92 11.92 0 0 1 4.36-9.57 15.82 15.82 0 0 1 10-3.21 44.57 44.57 0 0 1 7.44.93zm10.9 17.48c0 1.7.15 2.85.62 3.43s1.11.9 3.75.9c3.29 0 4.3-.11 6.43-4.3a1 1 0 0 1 1.37.22 22.5 22.5 0 0 1-1.55 5.85c-1.92-.07-5.38-.11-8.34-.11h-4.84c-1.66 0-3.47 0-5.71.11a1 1 0 0 1-.1-1.26l1.37-.18c1.62-.22 1.84-.51 1.84-3.87V109c0-3.36-.22-3.68-1.84-3.9l-1-.14a.82.82 0 0 1 .07-1.26c1.88.07 3.69.1 5.42.1s3.54 0 5.34-.1a1 1 0 0 1 0 1.26l-.94.14c-1.62.26-1.84.54-1.84 3.9zm21.12.72c0 3.39.22 3.65 1.88 3.94l1 .18a1 1 0 0 1 0 1.26c-1.95-.07-3.72-.11-5.41-.11s-3.54 0-5.49.11a1 1 0 0 1 0-1.26l1-.18c1.66-.29 1.88-.55 1.88-3.94v-13.29c0-3.39-.22-3.64-1.88-3.93l-1-.18a1 1 0 0 1 0-1.26c2 .07 3.75.1 5.49.1s3.5 0 5.45-.1a1 1 0 0 1 0 1.26l-1 .18c-1.66.29-1.88.54-1.88 3.93zm27.65-.87c0 2.35 0 4.62.08 5.82a2.89 2.89 0 0 1-2.14.83s-1.22-1.84-2.92-3.94l-8.34-10.32a50.91 50.91 0 0 0-3.93-4.62 6.38 6.38 0 0 0-.18 2.31v7c0 2.92.14 5.63.54 6.61.32.75 1.15 1 2.09 1.15l1 .15a1.13 1.13 0 0 1 0 1.26c-2-.07-3.39-.11-4.84-.11s-2.67 0-4 .11a1.13 1.13 0 0 1 0-1.26l.61-.11c1-.18 1.7-.44 2-1.19.4-1 .51-3.69.51-6.61v-9.17a8.12 8.12 0 0 0-.26-3.07c-.29-.61-.79-1-2.05-1.23l-1-.14c-.25-.29-.21-1.16.15-1.26 1.7.07 3.5.1 5 .1 1.23 0 2.27 0 3-.1.36 1.62 2.71 4.36 6 8.23l3 3.57c1.59 1.88 2.64 3.14 3.47 4a5.3 5.3 0 0 0 .14-1.62v-5c0-2.93-.14-5.64-.54-6.61-.32-.76-1.12-1-2.09-1.16l-1-.14a1.15 1.15 0 0 1 0-1.26c2 .07 3.36.1 4.84.1s2.64 0 4-.1a1.13 1.13 0 0 1 0 1.26l-.65.11a2.21 2.21 0 0 0-1.95 1.19c-.39 1-.54 3.68-.54 6.61zm12.74.87c0 3.39.22 3.65 1.88 3.94l1 .18a1 1 0 0 1 0 1.26c-1.95-.07-3.72-.11-5.42-.11s-3.54 0-5.49.11a1 1 0 0 1 0-1.26l1-.18c1.66-.29 1.88-.55 1.88-3.94v-13.29c0-3.39-.22-3.64-1.88-3.93l-1-.18a1 1 0 0 1 0-1.26c1.95.07 3.76.1 5.49.1s3.5 0 5.45-.1a1 1 0 0 1 0 1.26l-1 .18c-1.66.29-1.88.54-1.88 3.93zm27.36-18.2a49.17 49.17 0 0 0 .43 5.64 1 1 0 0 1-1.37.25 6.56 6.56 0 0 0-6.79-5.16c-4 0-8.3 3.43-8.3 10.61s4.15 11.05 8.48 11.05 6.39-3.14 7.37-5.6a1 1 0 0 1 1.37.26 16 16 0 0 1-1.37 5.66 27 27 0 0 1-7.33 1.34 16.44 16.44 0 0 1-9.71-2.75 11.32 11.32 0 0 1-4.58-9.45 11.93 11.93 0 0 1 4.37-9.57 15.8 15.8 0 0 1 10-3.21 44.9 44.9 0 0 1 7.43.93zm9 15.31c-.87 0-1 0-1.19.72l-1.41 4.19a4.06 4.06 0 0 0-.25 1.3c0 .22.47.43 1.48.62l1.08.18c.22.25.29 1.08-.07 1.26-1.26-.07-2.56-.07-4.08-.11-1.23 0-2.06.11-3.72.11-.4-.22-.36-1-.11-1.26l1-.11a2.49 2.49 0 0 0 2.2-1.81c.61-1.44 1.3-3.18 2.27-5.77l3.3-8.78c.83-2.28 1.44-3.54 1.34-4.59a7.26 7.26 0 0 0 3.14-2.16c.47 0 .68.18.83.72.29 1 .72 2.38 1.62 4.94l4.91 14.09c.76 2.16 1.08 3 2.42 3.21l1.37.22c.22.18.29 1 0 1.26-1.74-.07-3.69-.11-5.56-.11s-3.22 0-4.88.11a.82.82 0 0 1-.07-1.26l1.16-.18c.83-.15 1-.4 1-.62a14.62 14.62 0 0 0-.69-2.45l-1-3.11c-.18-.58-.47-.65-1.73-.65zm4.12-1.91c.83 0 1-.11.72-1l-.94-2.92c-.51-1.55-1.16-3.5-1.48-4.26-.29.83-1 2.78-1.55 4.44l-.91 2.71c-.32 1-.14 1.08.76 1.08z"/><path class="cls-9" d="M227.43 121.63c0 1.7.15 2.85.62 3.43s1.12.9 3.75.9c3.29 0 4.3-.11 6.43-4.3a1 1 0 0 1 1.37.22 22.5 22.5 0 0 1-1.55 5.85c-1.92-.07-5.38-.11-8.34-.11h-4.84c-1.66 0-3.47 0-5.7.11a1 1 0 0 1-.11-1.26l1.37-.18c1.63-.22 1.84-.51 1.84-3.87V109c0-3.36-.21-3.68-1.84-3.9l-1.05-.14a.81.81 0 0 1 .08-1.26c1.87.07 3.68.1 5.41.1s3.54 0 5.34-.1a1 1 0 0 1 0 1.26l-.93.14c-1.63.26-1.85.54-1.85 3.9z"/><path class="cls-10" d="M.84 105c-.29-.29-.29-1.16.11-1.26 1.23.07 2.78.1 4.55.1 1.19 0 2.24 0 3.54-.1 0 2.23 1.26 4.44 2.85 7.83l2.38 5.09c.33.72 1.63 3 2.13 3.9.47-.87 1.05-2 2-4.12l1.84-4a44.48 44.48 0 0 0 3.43-8.73 34.06 34.06 0 0 0 3.58.1c1.19 0 2.85 0 4.15-.1.4.21.4.9.11 1.26l-1.05.18c-1.48.25-2.2.69-2.2 2.6 0 7.44.07 11.33.29 15.88.07 1.66.22 2.53 1.62 2.71l1.16.15c.29.28.29 1.11-.07 1.26-1.66-.07-3.22-.11-5-.11-1.62 0-3.61 0-5.34.11a.82.82 0 0 1-.11-1.26l1.09-.15c1.66-.22 1.66-.65 1.66-2.85l-.08-9.39V110h-.07c-2.67 5.77-5.56 11.8-7.94 17.9a1.13 1.13 0 0 1-.72.26 2 2 0 0 1-.94-.22C12.43 123.43 8 114.48 6 109.79h-.1c-.15 2.34-.18 3.93-.22 5.81 0 2.35-.07 6-.07 8.12 0 1.81.21 2.31 1.66 2.53l1.41.22a1 1 0 0 1-.08 1.26c-1.33-.07-2.88-.11-4.26-.11-1.15 0-2.52 0-4 .11-.47-.15-.47-1.08-.14-1.26l.65-.11c1.84-.33 2.06-.54 2.27-2.78.18-1.77.29-4.91.51-8.34.14-2.42.21-5.35.21-7.29s-.79-2.6-2.23-2.86zm35.67 4.64c0-3.43-.07-4.11-1.74-4.29l-.68-.08c-.36-.18-.36-1.22.07-1.26 3-.18 5.85-.32 9.68-.32a25 25 0 0 1 8.41 1.19 10.93 10.93 0 0 1 7.33 10.47 11.5 11.5 0 0 1-6.47 10.79 20.08 20.08 0 0 1-9.13 1.7c-1.7 0-3.5-.22-4.8-.22-1.73 0-3.58 0-5.63.11a1 1 0 0 1 0-1.26l1.12-.18c1.62-.26 1.84-.55 1.84-3.87zm5.16 11.45c0 2 .07 3.28.72 4a3.91 3.91 0 0 0 3 1.05c6.24 0 8.37-5.56 8.37-10.47 0-6.5-3.43-10.36-10-10.36a2.63 2.63 0 0 0-1.88.47 4.46 4.46 0 0 0-.25 2.09zm51.26-16.94a47.5 47.5 0 0 0 .44 5.64A1 1 0 0 1 92 110a6.54 6.54 0 0 0-6.78-5.16c-4 0-8.31 3.43-8.31 10.61s4.15 11.05 8.49 11.05 6.39-3.14 7.36-5.6a1 1 0 0 1 1.37.26 15.81 15.81 0 0 1-1.37 5.66 26.89 26.89 0 0 1-7.33 1.34 16.44 16.44 0 0 1-9.71-2.75 11.31 11.31 0 0 1-4.59-9.41 11.92 11.92 0 0 1 4.36-9.57 15.83 15.83 0 0 1 10-3.21 44.56 44.56 0 0 1 7.44.93zm10.9 17.48c0 1.7.15 2.85.62 3.43s1.12.9 3.75.9c3.29 0 4.3-.11 6.43-4.3a1 1 0 0 1 1.37.22 22.5 22.5 0 0 1-1.55 5.85c-1.92-.07-5.38-.11-8.34-.11h-4.84c-1.66 0-3.47 0-5.71.11a1 1 0 0 1-.1-1.26l1.37-.18c1.62-.22 1.84-.51 1.84-3.87V109c0-3.36-.22-3.68-1.84-3.9l-1-.14a.82.82 0 0 1 .07-1.26c1.88.07 3.69.1 5.42.1s3.54 0 5.34-.1a1 1 0 0 1 0 1.26l-.94.14c-1.62.26-1.84.54-1.84 3.9zm21.17.72c0 3.39.22 3.65 1.88 3.94l1 .18a1 1 0 0 1 0 1.26c-2-.07-3.72-.11-5.41-.11s-3.54 0-5.49.11a1 1 0 0 1 0-1.26l1-.18c1.66-.29 1.88-.55 1.88-3.94v-13.29c0-3.39-.22-3.64-1.88-3.93l-1-.18a1 1 0 0 1 0-1.26c1.95.07 3.75.1 5.49.1s3.5 0 5.45-.1a1 1 0 0 1 0 1.26l-1 .18c-1.66.29-1.88.54-1.88 3.93zm27.6-.87c0 2.35 0 4.62.08 5.82a2.89 2.89 0 0 1-2.14.83s-1.22-1.84-2.92-3.94l-8.34-10.32a50.91 50.91 0 0 0-3.93-4.62 6.38 6.38 0 0 0-.18 2.31v7c0 2.92.14 5.63.54 6.61.32.75 1.15 1 2.09 1.15l1 .15a1.13 1.13 0 0 1 0 1.26c-1.95-.07-3.39-.11-4.84-.11s-2.67 0-4 .11a1.13 1.13 0 0 1 0-1.26l.61-.11c1-.18 1.7-.44 2-1.19.4-1 .51-3.69.51-6.61v-9.17a8.12 8.12 0 0 0-.26-3.07c-.29-.61-.79-1-2.05-1.23l-1-.14c-.25-.29-.21-1.16.15-1.26 1.7.07 3.5.1 5 .1 1.23 0 2.28 0 3-.1.36 1.62 2.71 4.36 6 8.23l3 3.57c1.59 1.88 2.64 3.14 3.47 4a5.3 5.3 0 0 0 .14-1.62v-5c0-2.93-.14-5.64-.54-6.61-.32-.76-1.12-1-2.09-1.16l-1-.14a1.15 1.15 0 0 1 0-1.26c1.95.07 3.36.1 4.84.1s2.64 0 4-.1a1.13 1.13 0 0 1 0 1.26l-.65.11a2.22 2.22 0 0 0-2 1.19c-.39 1-.54 3.68-.54 6.61zm12.74.87c0 3.39.22 3.65 1.88 3.94l1 .18a1 1 0 0 1 0 1.26c-1.95-.07-3.72-.11-5.42-.11s-3.54 0-5.49.11a1 1 0 0 1 0-1.26l1-.18c1.66-.29 1.88-.55 1.88-3.94v-13.29c0-3.39-.22-3.64-1.88-3.93l-1-.18a1 1 0 0 1 0-1.26c2 .07 3.76.1 5.49.1s3.5 0 5.45-.1a1 1 0 0 1 0 1.26l-1 .18c-1.66.29-1.88.54-1.88 3.93zm27.37-18.2a49.17 49.17 0 0 0 .43 5.64 1 1 0 0 1-1.37.25 6.56 6.56 0 0 0-6.79-5.16c-4 0-8.3 3.43-8.3 10.61s4.15 11.05 8.48 11.05 6.39-3.14 7.37-5.6a1 1 0 0 1 1.37.26 16 16 0 0 1-1.37 5.66 27 27 0 0 1-7.33 1.34 16.44 16.44 0 0 1-9.71-2.75 11.32 11.32 0 0 1-4.59-9.45 11.93 11.93 0 0 1 4.37-9.57 15.8 15.8 0 0 1 10-3.21 44.9 44.9 0 0 1 7.44.93zm9.02 15.31c-.87 0-1 0-1.19.72l-1.41 4.19a4.06 4.06 0 0 0-.25 1.3c0 .22.47.43 1.48.62l1.08.18c.22.25.29 1.08-.07 1.26-1.26-.07-2.56-.07-4.08-.11-1.23 0-2.06.11-3.72.11-.4-.22-.36-1-.11-1.26l1-.11a2.49 2.49 0 0 0 2.2-1.81c.61-1.44 1.3-3.18 2.27-5.77l3.27-8.78c.83-2.28 1.44-3.54 1.34-4.59a7.26 7.26 0 0 0 3.14-2.16c.47 0 .68.18.83.72.29 1 .72 2.38 1.62 4.94L214 123c.76 2.16 1.08 3 2.42 3.21l1.37.22c.22.18.29 1 0 1.26-1.74-.07-3.69-.11-5.56-.11s-3.22 0-4.88.11a.82.82 0 0 1-.07-1.26l1.16-.18c.83-.15 1-.4 1-.62a15.21 15.21 0 0 0-.68-2.45l-1-3.11c-.18-.58-.47-.65-1.73-.65zm4.12-1.91c.83 0 1-.11.72-1l-.94-2.92c-.51-1.55-1.16-3.5-1.48-4.26-.29.83-1 2.78-1.55 4.44l-.9 2.71c-.33 1-.15 1.08.75 1.08z"/><path class="cls-10" d="M226.13 121.63c0 1.7.15 2.85.62 3.43s1.12.9 3.75.9c3.29 0 4.3-.11 6.43-4.3a1 1 0 0 1 1.37.22 22.5 22.5 0 0 1-1.55 5.85c-1.92-.07-5.38-.11-8.34-.11h-4.84c-1.66 0-3.46 0-5.7.11a1 1 0 0 1-.11-1.26l1.37-.18c1.63-.22 1.84-.51 1.84-3.87V109c0-3.36-.21-3.68-1.84-3.9l-1-.14a.81.81 0 0 1 .08-1.26c1.87.07 3.68.1 5.41.1s3.54 0 5.34-.1a1 1 0 0 1 0 1.26l-.93.14c-1.63.26-1.85.54-1.85 3.9z"/></g></g></svg>