<svg xmlns="http://www.w3.org/2000/svg" viewBox="0 0 792 432"><defs><style>.cls-1{fill:#284497;}.cls-2{fill:#35bed5;}.cls-3{fill:#40b64e;}.cls-4{fill:#e64243;}</style></defs><g id="Layer_3" data-name="Layer 3"><path class="cls-1" d="M85.76,89.76h19.43L141.61,190.6H142L179.78,89.76h18.38l-48.85,124H133.56Z"/><path class="cls-1" d="M206.91,178a20.73,20.73,0,0,0,2.37,9.89,24.45,24.45,0,0,0,6.21,7.62,28.92,28.92,0,0,0,8.93,4.9,32,32,0,0,0,10.51,1.75,23.56,23.56,0,0,0,12.78-3.41,41.4,41.4,0,0,0,10-9l11.9,9.1q-13.12,17-36.76,17a45.72,45.72,0,0,1-17.78-3.33,38.75,38.75,0,0,1-13.48-9.19,41,41,0,0,1-8.49-13.83,49,49,0,0,1-3-17.25A45.32,45.32,0,0,1,193.34,155a43,43,0,0,1,8.93-13.84A41,41,0,0,1,215.84,132,43.82,43.82,0,0,1,233,128.63q11,0,18.65,3.85a36.9,36.9,0,0,1,12.52,10.07,39.85,39.85,0,0,1,7.09,14,58.73,58.73,0,0,1,2.18,15.85V178Zm49.73-12.61a33.44,33.44,0,0,0-1.67-9.63,21.26,21.26,0,0,0-4.46-7.61,20.72,20.72,0,0,0-7.44-5.08,27.16,27.16,0,0,0-10.42-1.84,25.28,25.28,0,0,0-10.59,2.19,25.79,25.79,0,0,0-8.14,5.69,26.4,26.4,0,0,0-5.17,7.79,21.53,21.53,0,0,0-1.84,8.49Z"/><path class="cls-1" d="M293.58,81.35h15.76V213.72H293.58Z"/><path class="cls-1" d="M327.89,172.22a42.16,42.16,0,0,1,3.42-17,44.31,44.31,0,0,1,9.36-13.83,44.56,44.56,0,0,1,62.68,0,44.33,44.33,0,0,1,9.37,13.83,42.15,42.15,0,0,1,3.41,17,43.11,43.11,0,0,1-12.78,30.9,44.86,44.86,0,0,1-62.68,0,43.22,43.22,0,0,1-12.78-30.9Zm16.81,0a33.93,33.93,0,0,0,1.93,11.64,26.19,26.19,0,0,0,5.42,9.11,25.23,25.23,0,0,0,8.58,5.95,30.66,30.66,0,0,0,22.76,0A25,25,0,0,0,392,193a26.05,26.05,0,0,0,5.43-9.11,36.07,36.07,0,0,0,0-23.28,26.24,26.24,0,0,0-5.43-9.11,25.18,25.18,0,0,0-8.58-5.95,30.66,30.66,0,0,0-22.76,0,25.37,25.37,0,0,0-8.58,5.95,26.37,26.37,0,0,0-5.42,9.11A33.93,33.93,0,0,0,344.7,172.22Z"/><path class="cls-1" d="M492.47,152.79a33.1,33.1,0,0,0-9.19-6.92,25.88,25.88,0,0,0-11.47-2.36,25.41,25.41,0,0,0-11.29,2.36,23,23,0,0,0-8.06,6.48,29.18,29.18,0,0,0-4.9,9.45,37.2,37.2,0,0,0-1.66,11.12,31.13,31.13,0,0,0,1.92,10.94,27.72,27.72,0,0,0,5.43,9,24.92,24.92,0,0,0,8.41,6,26.7,26.7,0,0,0,11,2.19,25.35,25.35,0,0,0,11.39-2.36,29.23,29.23,0,0,0,8.75-6.92L504,203a35.22,35.22,0,0,1-14.26,9.8,50,50,0,0,1-17.25,3,47.48,47.48,0,0,1-17.6-3.15,40.67,40.67,0,0,1-13.74-8.85,39,39,0,0,1-8.93-13.65,47.48,47.48,0,0,1-3.15-17.6,48.13,48.13,0,0,1,3.15-17.68A39.46,39.46,0,0,1,454.74,132a46.75,46.75,0,0,1,17.77-3.24A47.54,47.54,0,0,1,489.93,132a38.35,38.35,0,0,1,14.44,9.89Z"/><path class="cls-1" d="M518.21,101a11.66,11.66,0,1,1,3.41,8.14A11.1,11.1,0,0,1,518.21,101Zm3.67,29.77h15.76v83H521.88Z"/><path class="cls-1" d="M610.47,144.38H587.89V182c0,2.33.05,4.64.17,6.91a18.2,18.2,0,0,0,1.31,6.13,10,10,0,0,0,3.51,4.38c1.57,1.11,3.88,1.66,6.91,1.66a33.32,33.32,0,0,0,5.78-.53,16.87,16.87,0,0,0,5.43-1.92V213a20.63,20.63,0,0,1-7.27,2.18,54.58,54.58,0,0,1-6.91.62q-9.11,0-14.1-2.54a17.27,17.27,0,0,1-7.35-6.57,21.13,21.13,0,0,1-2.8-9c-.3-3.33-.44-6.69-.44-10.07V144.38H553.92V130.73h18.21V107.44h15.76v23.29h22.58Z"/><path class="cls-1" d="M622.73,130.73h18.21l24.57,64.78h.35l23.57-64.78h16.81L666.85,231.57q-2.1,5.43-4.36,9.9a29.91,29.91,0,0,1-5.41,7.61,21.75,21.75,0,0,1-7.58,4.9,29.81,29.81,0,0,1-10.9,1.76,58.43,58.43,0,0,1-7.06-.44,25.72,25.72,0,0,1-6.89-1.84l1.92-14.36A24.47,24.47,0,0,0,636,241a17.48,17.48,0,0,0,6.18-1,12.27,12.27,0,0,0,4.35-2.81,16.29,16.29,0,0,0,3-4.29q1.22-2.44,2.44-5.6l5.1-13.13Z"/><path class="cls-1" d="M159.74,246.49a6.49,6.49,0,0,0-2.44-1.86A8.14,8.14,0,0,0,154,244a8.33,8.33,0,0,0-6.33,2.79,9.67,9.67,0,0,0-1.86,3.13,11.95,11.95,0,0,0,0,7.89,9.93,9.93,0,0,0,1.84,3.11,8.32,8.32,0,0,0,2.74,2.05,8,8,0,0,0,3.4.74,7.57,7.57,0,0,0,3.67-.87,7.36,7.36,0,0,0,2.64-2.42l5.61,4.19a11.62,11.62,0,0,1-4.92,4,15.19,15.19,0,0,1-6.14,1.3,18.8,18.8,0,0,1-6.61-1.12,15.24,15.24,0,0,1-5.23-3.22,14.6,14.6,0,0,1-3.44-5.08,18.62,18.62,0,0,1,0-13.31,14.6,14.6,0,0,1,3.44-5.08,15.09,15.09,0,0,1,5.23-3.22,18.8,18.8,0,0,1,6.61-1.12,17.17,17.17,0,0,1,2.7.23,14.42,14.42,0,0,1,2.77.76,12.83,12.83,0,0,1,2.61,1.38,10.49,10.49,0,0,1,2.25,2.12Z"/><path class="cls-1" d="M171.28,238.53H178v24.38h12.49v6.22H171.28Z"/><path class="cls-1" d="M195.83,238.53h6.74v30.6h-6.74Z"/><path class="cls-1" d="M210.39,238.53h9.16l13,21.27h.09V238.53h6.74v30.6h-8.82l-13.35-21.78h-.09v21.78h-6.74Z"/><path class="cls-1" d="M247.21,238.53H254v30.6h-6.74Z"/><path class="cls-1" d="M281.79,246.49a6.61,6.61,0,0,0-2.45-1.86A8.14,8.14,0,0,0,276,244a8.33,8.33,0,0,0-6.33,2.79,9.67,9.67,0,0,0-1.86,3.13,11.95,11.95,0,0,0,0,7.89,9.93,9.93,0,0,0,1.84,3.11,8.26,8.26,0,0,0,2.75,2.05,7.92,7.92,0,0,0,3.39.74,7.57,7.57,0,0,0,3.67-.87,7.2,7.2,0,0,0,2.64-2.42l5.62,4.19a11.65,11.65,0,0,1-4.93,4,15.15,15.15,0,0,1-6.14,1.3,18.84,18.84,0,0,1-6.61-1.12,15.24,15.24,0,0,1-5.23-3.22,14.57,14.57,0,0,1-3.43-5.08,18.48,18.48,0,0,1,0-13.31,14.57,14.57,0,0,1,3.43-5.08,15.09,15.09,0,0,1,5.23-3.22,18.84,18.84,0,0,1,6.61-1.12,17,17,0,0,1,2.7.23,14.42,14.42,0,0,1,2.77.76,12.57,12.57,0,0,1,2.61,1.38,10.49,10.49,0,0,1,2.25,2.12Z"/><path class="cls-1" d="M303.13,238.53h5.58L322,269.13h-7.61l-2.63-6.48H299.89l-2.55,6.48h-7.43Zm2.6,8.91-3.72,9.5h7.48Z"/><path class="cls-1" d="M327,238.53h6.74v24.38h12.49v6.22H327Z"/><path class="cls-1" d="M366.14,238.53H378a21,21,0,0,1,4.43.46,10.57,10.57,0,0,1,3.68,1.51,7.61,7.61,0,0,1,2.5,2.85,9.68,9.68,0,0,1,.93,4.48,9,9,0,0,1-1.68,5.51,7.61,7.61,0,0,1-4.93,2.87l7.78,12.92h-8.08l-6.4-12.23h-3.33v12.23h-6.74Zm6.74,12.67h4c.61,0,1.25,0,1.92-.07a5.84,5.84,0,0,0,1.84-.39,2.86,2.86,0,0,0,1.9-3,3.33,3.33,0,0,0-.47-1.86,3.13,3.13,0,0,0-1.21-1,5.39,5.39,0,0,0-1.69-.5,13.13,13.13,0,0,0-1.86-.13h-4.41Z"/><path class="cls-1" d="M396.09,238.53h20.79v6.23H402.83v5.7H416.1v6.23H402.83v6.22h14.83v6.22H396.09Z"/><path class="cls-1" d="M439.87,246a4.8,4.8,0,0,0-2.23-1.53A8,8,0,0,0,435,244a7.37,7.37,0,0,0-1.52.17,6.32,6.32,0,0,0-1.47.54,3.22,3.22,0,0,0-1.12,1,2.43,2.43,0,0,0-.43,1.47,2.41,2.41,0,0,0,1,2.11,9.92,9.92,0,0,0,2.61,1.26c1,.34,2.18.69,3.39,1a14.26,14.26,0,0,1,3.39,1.47,8.07,8.07,0,0,1,2.62,2.55,7.79,7.79,0,0,1,1,4.28,9.89,9.89,0,0,1-1,4.45,9.17,9.17,0,0,1-2.58,3.16,10.93,10.93,0,0,1-3.76,1.85,17.13,17.13,0,0,1-10-.3,13.73,13.73,0,0,1-4.76-2.94l4.8-5.27a7,7,0,0,0,2.61,2.14,7.56,7.56,0,0,0,3.27.76,7.38,7.38,0,0,0,1.66-.2,5.33,5.33,0,0,0,1.51-.58,3.15,3.15,0,0,0,1.08-1,2.4,2.4,0,0,0,.41-1.42,2.59,2.59,0,0,0-1.05-2.18,9.89,9.89,0,0,0-2.66-1.37c-1.07-.37-2.22-.74-3.46-1.12a15.57,15.57,0,0,1-3.46-1.51,8.25,8.25,0,0,1-2.65-2.51,7.13,7.13,0,0,1-1.06-4.1,9.19,9.19,0,0,1,1-4.33,9.52,9.52,0,0,1,2.59-3.11,11.44,11.44,0,0,1,3.74-1.88,15.59,15.59,0,0,1,4.37-.62,17.21,17.21,0,0,1,5,.73,11.55,11.55,0,0,1,4.36,2.46Z"/><path class="cls-1" d="M451.49,238.53h20.79v6.23h-14v5.7H471.5v6.23H458.24v6.22h14.82v6.22H451.49Z"/><path class="cls-1" d="M490.22,238.53h5.57l13.31,30.6h-7.6l-2.64-6.48H487l-2.55,6.48H477Zm2.59,8.91-3.72,9.5h7.48Z"/><path class="cls-1" d="M513.86,238.53H525.7a21.12,21.12,0,0,1,4.43.46,10.6,10.6,0,0,1,3.67,1.51,7.63,7.63,0,0,1,2.51,2.85,9.68,9.68,0,0,1,.93,4.48,9,9,0,0,1-1.69,5.51,7.58,7.58,0,0,1-4.93,2.87l7.78,12.92h-8.08l-6.4-12.23H520.6v12.23h-6.74Zm6.74,12.67h4c.61,0,1.25,0,1.93-.07a5.78,5.78,0,0,0,1.83-.39,2.86,2.86,0,0,0,1.9-3,3.25,3.25,0,0,0-.47-1.86,3.13,3.13,0,0,0-1.21-1,5.31,5.31,0,0,0-1.69-.5,13.09,13.09,0,0,0-1.85-.13H520.6Z"/><path class="cls-1" d="M563.55,246.49a6.49,6.49,0,0,0-2.44-1.86,8.14,8.14,0,0,0-3.35-.65,8.33,8.33,0,0,0-6.33,2.79,9.67,9.67,0,0,0-1.86,3.13,11.95,11.95,0,0,0,0,7.89,9.93,9.93,0,0,0,1.84,3.11,8.26,8.26,0,0,0,2.75,2.05,7.92,7.92,0,0,0,3.39.74,7.57,7.57,0,0,0,3.67-.87,7.2,7.2,0,0,0,2.64-2.42l5.62,4.19a11.65,11.65,0,0,1-4.93,4,15.19,15.19,0,0,1-6.14,1.3,18.84,18.84,0,0,1-6.61-1.12,15.24,15.24,0,0,1-5.23-3.22,14.73,14.73,0,0,1-3.44-5.08,18.62,18.62,0,0,1,0-13.31,14.73,14.73,0,0,1,3.44-5.08,15.09,15.09,0,0,1,5.23-3.22,18.84,18.84,0,0,1,6.61-1.12,17,17,0,0,1,2.7.23,14.42,14.42,0,0,1,2.77.76,12.57,12.57,0,0,1,2.61,1.38,10.49,10.49,0,0,1,2.25,2.12Z"/><path class="cls-1" d="M574.83,238.53h6.75v11.41h13.09V238.53h6.74v30.6h-6.74V255.91H581.58v13.22h-6.75Z"/><circle class="cls-2" cx="336.28" cy="330.53" r="20.12"/><circle class="cls-3" cx="395.47" cy="330.53" r="20.12"/><circle class="cls-4" cx="454.67" cy="330.53" r="20.12"/></g></svg>