<?xml version="1.0" encoding="utf-8"?>
<!-- Generator: Adobe Illustrator 25.0.1, SVG Export Plug-In . SVG Version: 6.00 Build 0)  -->
<svg version="1.1" id="Layer_1" xmlns="http://www.w3.org/2000/svg" xmlns:xlink="http://www.w3.org/1999/xlink" x="0px" y="0px"
	 viewBox="0 0 792 432" style="enable-background:new 0 0 792 432;" xml:space="preserve">
<style type="text/css">
	.st0{fill:#FFFFFF;}
	.st1{fill:#35BED5;}
	.st2{fill:#40B64E;}
	.st3{fill:#E64243;}
	.st4{enable-background:new    ;}
</style>
<g id="Layer_3">
	<path class="st0" d="M85.8,89.8h19.4l36.4,100.8h0.4l37.8-100.8h18.4l-48.9,124h-15.8L85.8,89.8z"/>
	<path class="st0" d="M206.9,178c0,3.4,0.8,6.8,2.4,9.9c1.5,2.9,3.6,5.5,6.2,7.6c2.7,2.1,5.7,3.8,8.9,4.9c3.4,1.2,6.9,1.8,10.5,1.8
		c4.5,0.1,8.9-1.1,12.8-3.4c3.8-2.4,7.2-5.5,10-9l11.9,9.1c-8.7,11.3-21,17-36.8,17c-6.1,0.1-12.1-1-17.8-3.3
		c-5.1-2.1-9.7-5.2-13.5-9.2c-3.7-4-6.6-8.7-8.5-13.8c-2-5.5-3-11.4-3-17.2c-0.1-5.9,1-11.8,3.2-17.2c2.1-5.1,5.1-9.8,8.9-13.8
		c3.9-3.9,8.5-7.1,13.6-9.2c5.4-2.3,11.3-3.4,17.2-3.4c7.3,0,13.6,1.3,18.6,3.9c4.9,2.4,9.1,5.8,12.5,10.1c3.3,4.2,5.7,8.9,7.1,14
		c1.4,5.2,2.2,10.5,2.2,15.9v5.6H206.9z M256.6,165.4c-0.1-3.3-0.6-6.5-1.7-9.6c-0.9-2.8-2.5-5.4-4.5-7.6c-2.1-2.2-4.6-4-7.4-5.1
		c-3.3-1.3-6.9-1.9-10.4-1.8c-3.6,0-7.3,0.7-10.6,2.2c-3.1,1.4-5.8,3.3-8.1,5.7c-2.2,2.3-3.9,4.9-5.2,7.8c-1.2,2.7-1.8,5.6-1.8,8.5
		H256.6z"/>
	<path class="st0" d="M293.6,81.3h15.8v132.4h-15.8V81.3z"/>
	<path class="st0" d="M327.9,172.2c-0.1-5.8,1.1-11.6,3.4-17c2.2-5.2,5.4-9.9,9.4-13.8c17.4-17.2,45.3-17.2,62.7,0
		c4,4,7.2,8.7,9.4,13.8c2.3,5.4,3.5,11.2,3.4,17c0.1,11.6-4.5,22.7-12.8,30.9c-17.4,17-45.3,17-62.7,0
		C332.4,195,327.8,183.8,327.9,172.2z M344.7,172.2c0,4,0.6,7.9,1.9,11.6c1.2,3.4,3,6.5,5.4,9.1c2.4,2.6,5.3,4.6,8.6,5.9
		c7.3,2.9,15.5,2.9,22.8,0c3.3-1.3,6.2-3.4,8.6-5.9c2.4-2.6,4.3-5.7,5.4-9.1c2.6-7.5,2.6-15.7,0-23.3c-1.2-3.4-3-6.5-5.4-9.1
		c-2.4-2.6-5.3-4.6-8.6-5.9c-7.3-2.9-15.5-2.9-22.8,0c-3.2,1.4-6.2,3.4-8.6,5.9c-2.4,2.6-4.2,5.7-5.4,9.1
		C345.3,164.3,344.7,168.3,344.7,172.2z"/>
	<path class="st0" d="M492.5,152.8c-2.6-2.8-5.7-5.2-9.2-6.9c-3.6-1.7-7.5-2.5-11.5-2.4c-3.9-0.1-7.8,0.7-11.3,2.4
		c-3.1,1.5-5.9,3.7-8.1,6.5c-2.2,2.8-3.9,6-4.9,9.4c-1.1,3.6-1.7,7.4-1.7,11.1c0,3.7,0.6,7.4,1.9,10.9c1.2,3.3,3.1,6.4,5.4,9
		c2.4,2.6,5.2,4.6,8.4,6c3.5,1.5,7.2,2.2,11,2.2c3.9,0.1,7.8-0.7,11.4-2.4c3.3-1.7,6.3-4.1,8.8-6.9L504,203
		c-3.9,4.4-8.8,7.8-14.3,9.8c-5.5,2-11.4,3-17.2,3c-6,0.1-12-1-17.6-3.1c-5.1-2-9.8-5-13.7-8.9c-3.9-3.9-6.9-8.5-8.9-13.6
		c-2.2-5.6-3.2-11.6-3.1-17.6c-0.1-6,1-12,3.1-17.7c3.9-10.5,12.1-18.8,22.5-22.9c5.7-2.2,11.7-3.3,17.8-3.2c6,0,11.9,1.1,17.4,3.2
		c5.5,2.1,10.5,5.5,14.4,9.9L492.5,152.8z"/>
	<path class="st0" d="M518.2,101c-0.1-6.4,5.1-11.7,11.6-11.8c6.4-0.1,11.7,5.1,11.8,11.6c0.1,6.4-5.1,11.7-11.6,11.8
		c-3.1,0-6.1-1.2-8.3-3.4C519.4,107,518.2,104.1,518.2,101z M521.9,130.8h15.8v83h-15.8V130.8z"/>
	<path class="st0" d="M610.5,144.4h-22.6V182c0,2.3,0,4.6,0.2,6.9c0.1,2.1,0.5,4.2,1.3,6.1c0.7,1.8,1.9,3.3,3.5,4.4
		c1.6,1.1,3.9,1.7,6.9,1.7c1.9,0,3.9-0.2,5.8-0.5c1.9-0.3,3.7-1,5.4-1.9V213c-2.3,1.2-4.7,1.9-7.3,2.2c-2.3,0.4-4.6,0.6-6.9,0.6
		c-6.1,0-10.8-0.8-14.1-2.5c-3-1.4-5.6-3.7-7.3-6.6c-1.6-2.8-2.6-5.8-2.8-9c-0.3-3.3-0.4-6.7-0.4-10.1v-43.2h-18.2v-13.7h18.2v-23.3
		h15.8v23.3h22.6L610.5,144.4z"/>
	<path class="st0" d="M622.7,130.7h18.2l24.6,64.8h0.3l23.6-64.8h16.8l-39.4,100.8c-1.4,3.6-2.9,6.9-4.4,9.9
		c-1.4,2.8-3.2,5.4-5.4,7.6c-2.2,2.1-4.7,3.8-7.6,4.9c-3.5,1.3-7.2,1.9-10.9,1.8c-2.4,0-4.7-0.2-7.1-0.4c-2.4-0.3-4.7-0.9-6.9-1.8
		l1.9-14.4c3,1.3,6.2,1.9,9.4,1.9c2.1,0,4.2-0.3,6.2-1c1.6-0.6,3.1-1.6,4.3-2.8c1.2-1.3,2.2-2.7,3-4.3c0.8-1.6,1.6-3.5,2.4-5.6
		l5.1-13.1L622.7,130.7z"/>
	<circle class="st1" cx="336.3" cy="330.5" r="20.1"/>
	<circle class="st2" cx="395.5" cy="330.5" r="20.1"/>
	<circle class="st3" cx="454.7" cy="330.5" r="20.1"/>
	<g class="st4">
		<path class="st0" d="M136.8,238.5h6.7v11.4h13.1v-11.4h6.7v30.6h-6.7v-13.2h-13.1v13.2h-6.7V238.5z"/>
		<path class="st0" d="M180.5,238.5h5.6l13.3,30.6h-7.6l-2.6-6.5h-11.9l-2.6,6.5h-7.4L180.5,238.5z M183.1,247.4l-3.7,9.5h7.5
			L183.1,247.4z"/>
	</g>
	<g class="st4">
		<path class="st0" d="M203.5,238.5h6.7v24.4h12.5v6.2h-19.2V238.5z"/>
		<path class="st0" d="M228.5,238.5h6.7v24.4h12.5v6.2h-19.2V238.5z"/>
	</g>
	<g class="st4">
		<path class="st0" d="M263.2,238.5h5.6l13.3,30.6h-7.6l-2.6-6.5h-11.9l-2.6,6.5h-7.4L263.2,238.5z M265.8,247.4l-3.7,9.5h7.5
			L265.8,247.4z"/>
		<path class="st0" d="M286,238.5h9.2l13,21.3h0.1v-21.3h6.7v30.6h-8.8l-13.4-21.8h-0.1v21.8H286V238.5z"/>
	</g>
	<g class="st4">
		<path class="st0" d="M322,238.5h10.1c2.4,0,4.8,0.3,7,0.8c2.2,0.5,4.1,1.4,5.8,2.7s2.9,2.8,3.9,4.8c1,2,1.4,4.3,1.4,7.1
			c0,2.5-0.5,4.7-1.4,6.6c-0.9,1.9-2.2,3.5-3.8,4.8c-1.6,1.3-3.4,2.3-5.5,2.9c-2.1,0.7-4.3,1-6.5,1h-11V238.5z M328.8,262.9h3.5
			c1.6,0,3-0.2,4.3-0.5c1.3-0.3,2.5-0.8,3.5-1.6c1-0.7,1.8-1.7,2.3-2.9c0.6-1.2,0.8-2.7,0.8-4.4c0-1.5-0.3-2.8-0.8-3.9
			c-0.6-1.1-1.3-2-2.3-2.7c-1-0.7-2.1-1.3-3.4-1.6c-1.3-0.4-2.6-0.5-4-0.5h-4V262.9z"/>
	</g>
	<g class="st4">
		<path class="st0" d="M364.9,238.5h5.6l13.3,30.6h-7.6l-2.6-6.5h-11.9l-2.6,6.5h-7.4L364.9,238.5z M367.5,247.4l-3.7,9.5h7.5
			L367.5,247.4z"/>
	</g>
	<g class="st4">
		<path class="st0" d="M387.9,238.5h6.7v24.4h12.5v6.2h-19.2V238.5z"/>
		<path class="st0" d="M412.9,238.5h20.8v6.2h-14.1v5.7h13.3v6.2h-13.3v6.2h14.8v6.2h-21.6V238.5z"/>
		<path class="st0" d="M456.1,238.5h11.4c1.3,0,2.7,0.1,4,0.3c1.3,0.2,2.5,0.6,3.6,1.1c1.1,0.6,1.9,1.3,2.6,2.4c0.7,1,1,2.3,1,4
			c0,1.7-0.5,3.2-1.4,4.3c-1,1.1-2.2,2-3.8,2.4v0.1c1,0.1,1.9,0.4,2.7,0.8c0.8,0.4,1.5,1,2.1,1.6s1,1.4,1.4,2.3
			c0.3,0.9,0.5,1.8,0.5,2.8c0,1.6-0.3,3-1,4c-0.7,1.1-1.6,2-2.7,2.6s-2.3,1.1-3.7,1.4c-1.4,0.3-2.7,0.4-4.1,0.4h-12.5V238.5z
			 M462.8,250.8h4.9c0.5,0,1-0.1,1.5-0.2s1-0.3,1.4-0.6c0.4-0.3,0.7-0.6,1-1c0.2-0.4,0.4-1,0.4-1.6c0-0.6-0.1-1.2-0.4-1.6
			c-0.3-0.4-0.6-0.7-1.1-1c-0.4-0.2-0.9-0.4-1.5-0.5c-0.5-0.1-1.1-0.2-1.6-0.2h-4.6V250.8z M462.8,263.4h6.1c0.5,0,1-0.1,1.6-0.2
			c0.5-0.1,1-0.3,1.4-0.6c0.4-0.3,0.8-0.7,1.1-1.1c0.3-0.5,0.4-1,0.4-1.7c0-0.7-0.2-1.3-0.5-1.8c-0.4-0.4-0.8-0.8-1.4-1
			c-0.5-0.2-1.1-0.4-1.8-0.5c-0.6-0.1-1.2-0.1-1.8-0.1h-5.1V263.4z"/>
		<path class="st0" d="M486.1,238.5h20.8v6.2h-14.1v5.7h13.3v6.2h-13.3v6.2h14.8v6.2h-21.6V238.5z"/>
	</g>
	<g class="st4">
		<path class="st0" d="M524.7,238.5h5.6l13.3,30.6H536l-2.6-6.5h-11.9l-2.6,6.5h-7.4L524.7,238.5z M527.3,247.4l-3.7,9.5h7.5
			L527.3,247.4z"/>
	</g>
	<g class="st4">
		<path class="st0" d="M566.6,246.5c-0.7-0.8-1.5-1.4-2.4-1.9c-1-0.4-2.1-0.6-3.4-0.6s-2.4,0.2-3.5,0.7c-1.1,0.5-2,1.2-2.8,2.1
			c-0.8,0.9-1.4,1.9-1.9,3.1c-0.4,1.2-0.7,2.5-0.7,3.9c0,1.4,0.2,2.8,0.7,4c0.4,1.2,1.1,2.2,1.8,3.1c0.8,0.9,1.7,1.6,2.7,2.1
			c1.1,0.5,2.2,0.7,3.4,0.7c1.4,0,2.6-0.3,3.7-0.9c1.1-0.6,1.9-1.4,2.6-2.4l5.6,4.2c-1.3,1.8-2.9,3.2-4.9,4c-2,0.9-4,1.3-6.1,1.3
			c-2.4,0-4.6-0.4-6.6-1.1s-3.8-1.8-5.2-3.2c-1.5-1.4-2.6-3.1-3.4-5.1c-0.8-2-1.2-4.2-1.2-6.7s0.4-4.7,1.2-6.7s2-3.7,3.4-5.1
			c1.5-1.4,3.2-2.5,5.2-3.2s4.2-1.1,6.6-1.1c0.9,0,1.8,0.1,2.7,0.2c0.9,0.2,1.9,0.4,2.8,0.8s1.8,0.8,2.6,1.4
			c0.8,0.6,1.6,1.3,2.2,2.1L566.6,246.5z"/>
		<path class="st0" d="M577.9,238.5h6.7v11.4h13.1v-11.4h6.7v30.6h-6.7v-13.2h-13.1v13.2h-6.7V238.5z"/>
	</g>
</g>
</svg>
