<svg id="svg" version="1.1" xmlns="http://www.w3.org/2000/svg" xmlns:xlink="http://www.w3.org/1999/xlink" width="400" height="218.1818181818182" viewBox="0, 0, 400,218.1818181818182"><g id="svgg"><path id="path0" d="M167.212 156.923 C 157.024 159.667,157.145 174.504,167.375 176.916 C 176.236 179.005,183.416 169.369,178.743 161.658 C 176.405 157.800,171.475 155.775,167.212 156.923 " stroke="none" fill="#34bcd4" fill-rule="evenodd"></path><path id="path1" d="M197.091 156.923 C 187.003 159.691,186.936 174.033,196.999 176.822 C 205.667 179.224,212.860 170.350,208.878 162.167 C 206.893 158.087,201.536 155.703,197.091 156.923 " stroke="none" fill="#3cb44c" fill-rule="evenodd"></path><path id="path2" d="M227.083 156.889 C 219.515 158.823,216.733 168.304,222.073 173.964 C 227.236 179.437,236.582 177.649,239.304 170.667 C 242.313 162.951,235.116 154.837,227.083 156.889 " stroke="none" fill="#e44444" fill-rule="evenodd"></path><path id="path3" d="M148.167 74.500 L 148.167 108.000 152.250 108.000 L 156.333 108.000 156.333 74.500 L 156.333 41.000 152.250 41.000 L 148.167 41.000 148.167 74.500 M265.680 45.263 C 261.504 46.787,260.231 51.922,263.234 55.132 C 266.942 59.097,273.414 56.470,273.416 51.000 C 273.418 46.873,269.411 43.902,265.680 45.263 M43.229 45.542 C 43.300 45.933,43.739 47.074,46.419 53.833 C 47.310 56.079,48.220 58.455,48.441 59.112 C 48.663 59.770,49.598 62.208,50.519 64.529 C 52.383 69.227,53.818 72.973,53.923 73.417 C 53.978 73.648,58.225 84.400,58.652 85.389 C 58.843 85.832,59.000 86.303,59.000 86.435 C 59.000 86.660,59.674 88.407,62.778 96.229 C 63.465 97.959,64.218 99.946,64.453 100.645 C 64.688 101.345,65.418 103.267,66.077 104.917 L 67.274 107.917 71.415 107.917 L 75.557 107.917 76.041 106.750 C 77.481 103.273,79.897 97.183,80.007 96.750 C 80.077 96.475,81.259 93.475,82.633 90.083 C 84.007 86.692,85.204 83.654,85.294 83.333 C 85.384 83.012,86.510 80.160,87.798 76.995 C 89.085 73.829,90.302 70.754,90.501 70.161 C 90.700 69.568,92.019 66.219,93.431 62.719 C 94.844 59.218,96.000 56.274,96.000 56.175 C 96.000 56.077,96.975 53.595,98.167 50.660 C 99.358 47.725,100.333 45.289,100.333 45.245 C 100.333 45.202,98.168 45.167,95.522 45.167 L 90.711 45.167 90.197 46.542 C 89.914 47.298,89.073 49.492,88.328 51.417 C 87.583 53.342,86.675 55.742,86.311 56.750 C 85.576 58.781,84.323 62.144,81.962 68.417 C 81.100 70.708,80.237 73.033,80.046 73.583 C 79.855 74.133,79.162 75.971,78.506 77.667 C 77.850 79.362,76.785 82.175,76.139 83.917 C 74.008 89.660,73.486 91.057,72.541 93.550 L 71.605 96.017 71.312 95.217 C 71.151 94.777,70.640 93.392,70.176 92.139 C 69.713 90.887,69.333 89.781,69.333 89.682 C 69.333 89.582,68.577 87.457,67.653 84.959 C 65.774 79.879,64.207 75.546,63.750 74.167 C 63.583 73.662,62.626 71.037,61.622 68.333 C 60.619 65.629,59.361 62.140,58.828 60.580 C 57.859 57.747,55.726 51.900,54.513 48.750 C 54.160 47.833,53.731 46.653,53.560 46.126 L 53.250 45.169 48.205 45.168 L 43.160 45.167 43.229 45.542 M288.769 54.261 C 288.713 54.407,288.667 57.071,288.667 60.180 L 288.667 65.833 284.167 65.833 L 279.667 65.833 279.667 69.500 L 279.667 73.167 284.152 73.167 L 288.637 73.167 288.719 85.875 C 288.822 101.994,288.951 103.035,291.158 105.548 C 294.212 109.026,302.356 110.285,307.811 108.121 L 308.750 107.748 308.795 104.170 C 308.850 99.830,308.921 100.073,307.750 100.591 C 304.966 101.822,300.977 101.745,299.249 100.427 C 297.314 98.951,297.173 97.867,297.170 84.458 L 297.167 73.167 302.833 73.167 L 308.500 73.167 308.500 69.500 L 308.500 65.833 302.835 65.833 L 297.171 65.833 297.127 59.958 L 297.083 54.083 292.977 54.039 C 289.342 53.999,288.859 54.025,288.769 54.261 M115.742 64.837 C 107.015 65.563,99.764 71.223,97.003 79.464 C 94.794 86.059,96.327 96.771,100.065 100.854 C 100.264 101.072,100.826 101.737,101.314 102.333 C 108.688 111.341,125.661 111.495,134.375 102.633 C 136.684 100.284,136.607 100.576,135.208 99.483 C 134.590 98.999,133.596 98.216,133.000 97.742 C 132.404 97.268,131.514 96.600,131.021 96.258 L 130.126 95.636 128.521 97.279 C 124.563 101.334,121.032 102.504,115.500 101.594 C 109.771 100.652,104.708 95.485,104.670 90.542 L 104.667 90.168 121.458 90.126 L 138.250 90.083 138.301 87.917 C 138.644 73.235,129.330 63.706,115.742 64.837 M185.874 64.843 C 177.437 65.521,169.886 71.183,166.829 79.122 C 165.434 82.744,165.092 88.731,166.064 92.494 C 170.380 109.198,191.702 114.814,203.988 102.483 C 218.492 87.925,206.583 63.178,185.874 64.843 M234.955 65.078 C 219.644 67.271,211.851 84.111,219.374 98.750 C 225.122 109.937,244.074 112.786,253.512 103.882 C 254.979 102.499,255.125 102.876,251.827 99.523 C 249.221 96.873,248.500 96.320,248.500 96.974 C 248.500 97.890,243.862 100.716,241.588 101.185 C 228.474 103.892,220.216 88.116,228.864 76.879 C 233.111 71.361,242.778 71.288,247.991 76.733 C 248.745 77.521,248.740 77.523,250.088 76.150 C 250.727 75.500,251.625 74.678,252.083 74.323 C 252.542 73.969,253.390 73.246,253.969 72.715 L 255.022 71.750 254.411 71.037 C 250.704 66.714,242.048 64.063,234.955 65.078 M263.333 86.920 L 263.333 108.006 267.542 107.961 L 271.750 107.917 271.796 87.250 C 271.821 75.883,271.801 66.415,271.751 66.208 L 271.660 65.833 267.497 65.833 L 263.333 65.833 263.333 86.920 M314.500 66.055 C 314.500 66.572,315.870 70.003,318.839 76.917 C 319.586 78.658,320.240 80.271,320.292 80.500 C 320.343 80.729,321.320 83.129,322.463 85.833 C 323.606 88.537,324.804 91.425,325.124 92.250 C 326.022 94.560,326.970 96.868,328.925 101.500 C 331.589 107.812,331.674 108.076,331.327 109.000 C 331.172 109.412,330.950 110.050,330.833 110.417 C 327.700 120.233,324.390 122.954,317.872 121.066 C 317.115 120.846,316.438 120.667,316.368 120.667 C 316.094 120.667,315.252 128.013,315.508 128.171 C 316.087 128.530,318.446 129.014,320.465 129.189 C 327.956 129.838,332.709 127.102,335.515 120.526 C 336.016 119.352,340.620 107.694,342.305 103.333 C 342.854 101.912,343.920 99.212,344.674 97.333 C 345.428 95.454,346.325 93.129,346.667 92.167 C 347.008 91.204,348.223 88.092,349.365 85.250 C 350.508 82.408,351.653 79.483,351.910 78.750 C 352.167 78.017,353.380 74.923,354.605 71.875 C 355.831 68.827,356.833 66.220,356.833 66.083 C 356.833 65.868,356.231 65.833,352.432 65.833 L 348.032 65.833 347.516 67.259 C 347.232 68.043,347.000 68.756,347.000 68.845 C 347.000 68.933,345.845 72.098,344.433 75.878 C 343.022 79.658,341.777 83.087,341.669 83.500 C 341.560 83.912,341.295 84.700,341.081 85.250 C 340.261 87.357,337.425 94.998,336.825 96.717 C 336.208 98.486,336.092 98.631,335.943 97.822 C 335.902 97.599,335.142 95.542,334.254 93.250 C 331.329 85.697,330.720 84.097,330.289 82.833 C 330.055 82.146,329.174 79.821,328.333 77.667 C 326.881 73.952,326.097 71.878,324.300 67.000 L 323.900 65.917 319.200 65.872 C 315.324 65.836,314.500 65.868,314.500 66.055 M120.194 71.735 C 124.310 72.527,127.718 75.373,128.594 78.750 C 128.617 78.842,128.758 79.367,128.905 79.917 C 129.053 80.467,129.221 81.460,129.278 82.125 L 129.382 83.333 117.006 83.333 L 104.629 83.333 104.740 82.542 C 105.759 75.264,112.831 70.319,120.194 71.735 M191.480 73.020 C 203.853 76.147,205.307 94.994,193.583 100.293 C 187.369 103.101,178.813 100.461,176.168 94.919 C 170.230 82.477,179.040 69.876,191.480 73.020 M254.250 122.673 C 249.997 123.334,246.680 127.620,246.670 132.467 C 246.652 140.701,254.873 145.019,263.750 141.439 L 265.083 140.902 265.127 135.784 L 265.171 130.667 261.336 130.667 L 257.500 130.667 257.500 132.667 L 257.500 134.667 259.250 134.667 L 261.000 134.667 261.000 136.144 L 261.000 137.621 260.292 137.883 C 256.319 139.350,252.807 138.010,251.670 134.592 C 249.758 128.849,255.823 124.356,260.939 127.725 L 261.781 128.280 262.769 127.265 C 264.841 125.136,264.910 125.043,264.651 124.729 C 263.234 123.010,258.323 122.039,254.250 122.673 M134.667 132.500 L 134.667 142.167 139.152 142.167 C 145.328 142.167,147.232 141.728,148.747 139.958 C 150.780 137.583,149.769 133.228,146.968 132.295 L 146.315 132.077 147.050 131.559 C 149.990 129.486,149.643 125.111,146.417 123.580 C 145.135 122.972,143.786 122.836,139.042 122.835 L 134.667 122.833 134.667 132.500 M159.181 123.208 C 159.102 123.415,158.129 125.634,157.019 128.140 C 155.908 130.647,155.000 132.826,155.000 132.982 C 155.000 133.139,154.934 133.338,154.852 133.425 C 154.771 133.512,154.249 134.633,153.691 135.917 C 153.134 137.200,152.307 139.075,151.854 140.082 C 150.844 142.330,150.708 142.167,153.579 142.167 L 155.972 142.167 156.750 140.167 L 157.528 138.167 161.154 138.167 L 164.781 138.167 165.233 139.375 C 165.481 140.040,165.814 140.921,165.973 141.333 L 166.261 142.083 168.714 142.129 C 170.485 142.163,171.167 142.122,171.167 141.983 C 171.167 141.614,170.352 139.561,168.956 136.417 C 167.353 132.804,165.872 129.409,164.254 125.636 C 162.980 122.666,163.176 122.833,160.982 122.833 C 159.417 122.833,159.317 122.854,159.181 123.208 M173.333 132.496 L 173.333 142.167 175.581 142.167 L 177.829 142.167 177.873 135.641 L 177.917 129.115 179.049 130.933 C 180.597 133.418,181.439 134.791,182.612 136.750 C 183.162 137.667,184.130 139.258,184.764 140.286 L 185.917 142.156 188.793 142.161 L 191.669 142.167 191.626 132.542 L 191.583 122.917 189.417 122.917 L 187.250 122.917 187.167 129.325 C 187.095 134.840,187.052 135.664,186.861 135.241 C 186.739 134.971,185.689 133.230,184.528 131.371 C 183.367 129.513,182.123 127.488,181.764 126.871 C 181.405 126.255,180.729 125.112,180.260 124.333 L 179.409 122.917 176.371 122.871 L 173.333 122.826 173.333 132.496 M195.781 122.941 C 195.718 123.004,195.667 127.356,195.667 132.611 L 195.667 142.167 197.917 142.167 L 200.167 142.167 200.167 135.561 L 200.167 128.955 201.550 131.186 C 202.311 132.413,203.474 134.317,204.134 135.417 C 204.794 136.517,205.998 138.467,206.810 139.750 L 208.286 142.083 211.143 142.129 L 214.000 142.175 214.000 132.504 L 214.000 122.833 211.752 122.833 L 209.504 122.833 209.460 129.208 L 209.417 135.583 208.431 133.917 C 207.889 133.000,206.887 131.350,206.205 130.250 C 203.339 125.628,202.725 124.625,202.250 123.793 L 201.750 122.917 198.823 122.871 C 197.213 122.846,195.845 122.878,195.781 122.941 M217.500 132.500 L 217.500 142.167 219.750 142.167 L 222.000 142.167 222.000 132.601 C 222.000 124.032,221.973 123.025,221.736 122.934 C 221.591 122.879,220.579 122.833,219.486 122.833 L 217.500 122.833 217.500 132.500 M225.333 132.500 L 225.333 142.167 227.581 142.167 L 229.829 142.167 229.873 135.673 L 229.917 129.180 230.772 130.548 C 232.849 133.873,235.192 137.668,236.500 139.827 L 237.917 142.166 240.792 142.166 L 243.667 142.167 243.667 132.500 L 243.667 122.833 241.417 122.833 L 239.167 122.833 239.167 129.188 L 239.167 135.543 238.364 134.313 C 237.326 132.723,234.985 128.942,234.681 128.364 C 234.184 127.421,231.633 123.324,231.394 123.085 C 231.189 122.880,230.604 122.833,228.238 122.833 L 225.333 122.833 225.333 132.500 M143.380 127.058 C 144.102 127.359,144.328 127.668,144.407 128.462 C 144.544 129.839,143.731 130.325,141.063 130.456 L 139.167 130.550 139.167 128.691 L 139.167 126.833 141.005 126.833 C 142.169 126.833,143.041 126.916,143.380 127.058 M162.042 131.550 C 162.569 132.857,163.000 133.981,163.000 134.047 C 163.000 134.113,162.129 134.167,161.064 134.167 C 159.297 134.167,159.136 134.141,159.217 133.875 C 159.266 133.715,159.582 132.833,159.920 131.917 C 160.257 131.000,160.613 130.006,160.711 129.708 C 160.971 128.919,160.994 128.952,162.042 131.550 M144.063 134.564 C 145.221 135.048,145.658 136.255,145.023 137.218 C 144.405 138.154,144.115 138.245,141.542 138.307 L 139.167 138.365 139.167 136.240 L 139.167 134.115 141.341 134.225 C 142.549 134.287,143.759 134.437,144.063 134.564 " stroke="none" fill="#24449c" fill-rule="evenodd"></path><path id="path4" d="" stroke="none" fill="#2c449c" fill-rule="evenodd"></path></g></svg>