<svg id="svg" version="1.1" xmlns="http://www.w3.org/2000/svg" xmlns:xlink="http://www.w3.org/1999/xlink" width="400" height="218.1818181818182" viewBox="0, 0, 400,218.1818181818182"><g id="svgg"><path id="path3" d="" stroke="none" fill="#c8cc100" fill-rule="evenodd"></path><path id="path4" d="" stroke="none" fill="#c8cc100" fill-rule="evenodd"></path><path id="path5" d="" stroke="none" fill="#c8cc100" fill-rule="evenodd"></path><path id="path6" d="" stroke="none" fill="#c8cc100" fill-rule="evenodd"></path><path id="path0" d="M148.167 74.500 L 148.167 108.000 152.250 108.000 L 156.333 108.000 156.333 74.500 L 156.333 41.000 152.250 41.000 L 148.167 41.000 148.167 74.500 M265.545 45.316 C 261.427 46.844,260.227 52.071,263.278 55.190 C 265.603 57.567,269.427 57.617,271.695 55.301 C 276.155 50.744,271.460 43.121,265.545 45.316 M43.167 45.428 C 43.167 45.572,43.388 46.228,43.658 46.887 C 44.794 49.652,47.992 57.851,48.411 59.072 C 48.660 59.800,49.945 63.121,51.265 66.452 C 52.586 69.784,53.667 72.576,53.667 72.657 C 53.667 72.820,55.623 77.870,57.576 82.750 C 58.273 84.492,58.921 86.206,59.016 86.560 C 59.111 86.914,60.347 90.122,61.761 93.690 C 63.176 97.258,64.333 100.241,64.333 100.319 C 64.333 100.470,65.994 104.809,66.795 106.750 L 67.276 107.917 71.424 107.917 L 75.572 107.917 77.511 103.148 C 78.578 100.525,79.587 97.975,79.754 97.481 C 79.921 96.987,81.219 93.696,82.637 90.167 C 84.056 86.638,85.270 83.525,85.336 83.250 C 85.402 82.975,86.583 79.975,87.961 76.583 C 89.339 73.192,90.539 70.154,90.629 69.833 C 90.719 69.512,91.859 66.625,93.164 63.417 C 94.469 60.208,95.705 57.058,95.911 56.417 C 96.117 55.775,96.567 54.575,96.911 53.750 C 97.929 51.305,100.333 45.330,100.333 45.245 C 100.333 45.202,98.168 45.167,95.522 45.167 L 90.711 45.167 90.197 46.542 C 89.914 47.298,89.072 49.492,88.325 51.417 C 87.579 53.342,86.667 55.742,86.299 56.750 C 84.993 60.332,83.509 64.292,82.332 67.333 C 81.676 69.029,80.950 70.979,80.717 71.667 C 80.149 73.346,79.820 74.238,78.500 77.667 C 76.849 81.956,75.105 86.620,74.761 87.667 C 74.596 88.171,73.991 89.783,73.417 91.250 C 72.843 92.717,72.203 94.389,71.994 94.967 L 71.616 96.018 70.547 93.134 C 69.959 91.548,69.375 89.868,69.248 89.401 C 69.121 88.934,68.710 87.734,68.333 86.734 C 66.629 82.210,64.000 75.023,64.000 74.887 C 64.000 74.718,62.985 71.917,61.082 66.833 C 60.379 64.954,59.219 61.729,58.505 59.667 C 57.791 57.604,56.867 55.017,56.453 53.917 C 54.354 48.347,53.333 45.548,53.333 45.367 C 53.333 45.215,52.100 45.167,48.250 45.167 C 43.743 45.167,43.167 45.196,43.167 45.428 M288.781 54.108 C 288.718 54.171,288.667 56.835,288.667 60.028 L 288.667 65.833 284.167 65.833 L 279.667 65.833 279.667 69.500 L 279.667 73.167 284.151 73.167 L 288.636 73.167 288.715 86.042 C 288.822 103.388,288.984 104.215,292.795 106.941 C 296.146 109.338,303.322 109.902,307.811 108.121 L 308.750 107.748 308.795 103.938 C 308.837 100.349,308.823 100.136,308.545 100.252 C 303.822 102.234,299.821 101.850,298.348 99.275 C 297.216 97.298,297.269 97.963,297.209 84.958 L 297.154 73.167 302.827 73.167 L 308.500 73.167 308.500 69.500 L 308.500 65.833 302.835 65.833 L 297.171 65.833 297.127 59.958 L 297.083 54.083 292.989 54.039 C 290.737 54.014,288.843 54.046,288.781 54.108 M115.667 64.836 C 105.385 65.712,97.176 73.569,96.166 83.500 C 95.436 90.678,97.031 97.440,100.334 101.167 C 100.537 101.396,101.033 102.010,101.437 102.531 C 107.231 110.020,122.624 111.349,131.612 105.136 C 132.915 104.235,136.385 100.743,136.285 100.433 C 136.252 100.332,135.706 99.851,135.071 99.362 C 134.436 98.874,133.757 98.339,133.562 98.173 C 132.632 97.381,131.025 96.167,130.907 96.167 C 130.835 96.167,130.636 96.039,130.463 95.884 C 130.164 95.613,130.081 95.672,128.522 97.270 C 124.582 101.307,121.225 102.436,115.652 101.597 C 109.816 100.719,104.667 95.482,104.667 90.424 C 104.667 90.196,106.481 90.164,121.458 90.126 L 138.250 90.083 138.239 87.000 C 138.194 74.133,131.129 65.728,119.606 64.832 C 118.494 64.745,117.471 64.684,117.333 64.695 C 117.196 64.706,116.446 64.770,115.667 64.836 M185.874 64.839 C 180.558 65.280,173.803 68.560,171.264 71.934 C 170.981 72.310,170.268 73.247,169.680 74.017 C 161.440 84.793,165.713 101.446,178.139 106.986 C 185.292 110.174,191.978 109.903,199.417 106.122 C 201.378 105.125,204.851 101.968,206.388 99.785 C 210.411 94.072,211.454 85.561,208.904 79.250 C 208.571 78.425,208.209 77.525,208.101 77.250 C 205.087 69.621,195.146 64.071,185.874 64.839 M234.931 65.081 C 219.575 67.280,211.982 83.746,219.376 98.811 C 224.907 110.080,244.849 112.761,253.963 103.461 L 254.842 102.564 251.937 99.615 C 248.603 96.232,248.988 96.432,247.917 97.526 C 244.712 100.797,240.838 102.048,236.340 101.263 C 226.094 99.475,221.871 86.212,228.674 77.184 C 233.116 71.288,242.819 71.145,248.154 76.898 C 248.720 77.507,248.777 77.484,250.171 76.074 C 250.856 75.382,251.717 74.596,252.083 74.327 C 252.450 74.059,253.275 73.355,253.917 72.763 L 255.083 71.687 254.333 70.913 C 250.024 66.467,242.030 64.064,234.931 65.081 M263.333 86.914 L 263.333 108.000 267.584 108.000 L 271.835 108.000 271.792 86.958 L 271.750 65.917 267.542 65.872 L 263.333 65.828 263.333 86.914 M314.500 66.055 C 314.500 66.571,315.487 69.052,318.755 76.750 C 319.456 78.400,320.108 79.975,320.205 80.250 C 320.543 81.212,321.990 84.776,323.249 87.750 C 323.947 89.400,324.788 91.425,325.117 92.250 C 326.076 94.653,328.564 100.702,329.714 103.424 C 331.931 108.674,331.962 107.747,329.347 114.228 C 326.591 121.060,323.823 122.706,317.868 121.055 C 317.016 120.819,316.298 120.654,316.272 120.688 C 316.210 120.771,315.324 127.508,315.329 127.861 C 315.342 128.745,321.201 129.574,324.572 129.169 C 327.968 128.761,329.994 127.853,332.000 125.839 C 333.922 123.909,334.801 122.396,336.501 118.083 C 336.790 117.350,337.871 114.650,338.902 112.083 C 339.933 109.517,340.987 106.817,341.244 106.083 C 341.501 105.350,342.786 102.072,344.100 98.800 C 345.414 95.527,346.541 92.640,346.604 92.383 C 346.666 92.127,347.797 89.224,349.116 85.933 C 350.434 82.643,351.666 79.493,351.853 78.933 C 352.041 78.374,353.238 75.309,354.513 72.121 C 355.789 68.934,356.833 66.215,356.833 66.080 C 356.833 65.869,356.205 65.833,352.429 65.833 L 348.024 65.833 347.666 66.789 C 347.470 67.315,347.205 68.121,347.078 68.581 C 346.951 69.041,346.353 70.729,345.751 72.333 C 342.608 80.698,342.312 81.510,341.349 84.417 C 341.167 84.967,340.537 86.692,339.951 88.250 C 337.497 94.764,336.333 97.978,336.333 98.240 C 336.333 98.394,336.258 98.473,336.167 98.417 C 336.075 98.360,335.999 98.187,335.998 98.032 C 335.998 97.877,335.358 96.100,334.577 94.083 C 333.796 92.067,332.753 89.367,332.260 88.083 C 331.767 86.800,331.206 85.388,331.015 84.945 C 330.823 84.501,330.667 84.030,330.667 83.897 C 330.667 83.764,329.476 80.564,328.020 76.786 C 326.565 73.008,325.046 69.017,324.645 67.917 L 323.917 65.917 319.208 65.872 C 315.325 65.836,314.500 65.868,314.500 66.055 M120.194 71.735 C 125.519 72.760,128.806 76.518,129.280 82.124 L 129.382 83.333 117.006 83.333 L 104.629 83.333 104.740 82.542 C 105.756 75.286,112.854 70.323,120.194 71.735 M189.417 72.672 C 197.115 73.538,201.740 79.291,201.458 87.649 C 201.177 95.947,195.753 101.420,187.833 101.397 C 179.460 101.372,174.023 95.251,174.379 86.250 C 174.706 78.000,179.320 73.234,187.667 72.524 C 187.804 72.512,188.592 72.579,189.417 72.672 M254.283 122.667 C 249.248 123.312,245.684 129.267,246.903 135.000 C 248.335 141.740,256.501 144.702,264.208 141.278 L 265.167 140.852 265.167 135.759 L 265.167 130.667 261.333 130.667 L 257.500 130.667 257.500 132.667 L 257.500 134.667 259.256 134.667 L 261.013 134.667 260.965 136.125 L 260.917 137.582 259.917 137.986 C 254.786 140.055,250.016 135.713,251.667 130.476 C 252.865 126.679,257.562 125.425,261.239 127.920 L 261.822 128.315 263.330 126.708 C 265.031 124.896,265.014 124.969,263.918 124.137 C 262.040 122.713,258.341 122.148,254.283 122.667 M134.667 132.500 L 134.667 142.167 139.152 142.167 C 145.328 142.167,147.232 141.728,148.747 139.958 C 150.776 137.588,149.769 133.228,146.977 132.298 L 146.333 132.083 147.118 131.500 C 149.371 129.827,149.714 126.406,147.819 124.511 C 146.413 123.106,145.047 122.840,139.208 122.836 L 134.667 122.833 134.667 132.500 M159.177 123.208 C 159.095 123.415,158.529 124.708,157.919 126.083 C 157.309 127.458,156.395 129.558,155.887 130.750 C 154.327 134.411,152.559 138.499,151.761 140.292 C 151.342 141.232,151.000 142.038,151.000 142.084 C 151.000 142.129,152.118 142.167,153.485 142.167 L 155.969 142.167 156.764 140.167 L 157.558 138.167 161.170 138.167 L 164.781 138.167 165.207 139.292 C 165.441 139.910,165.768 140.810,165.933 141.292 L 166.233 142.167 168.700 142.167 C 170.662 142.167,171.167 142.121,171.167 141.941 C 171.167 141.567,170.445 139.746,169.041 136.583 C 167.126 132.268,165.501 128.536,164.578 126.333 C 164.136 125.279,163.599 124.060,163.384 123.625 L 162.994 122.833 161.160 122.833 C 159.412 122.833,159.318 122.851,159.177 123.208 M173.333 132.500 L 173.333 142.167 175.583 142.167 L 177.833 142.167 177.835 135.625 L 177.837 129.083 178.370 129.917 C 178.663 130.375,179.372 131.473,179.944 132.357 C 180.517 133.241,181.261 134.479,181.599 135.107 C 181.936 135.736,182.790 137.150,183.495 138.250 C 184.201 139.350,185.034 140.679,185.347 141.204 L 185.917 142.157 188.792 142.162 L 191.667 142.167 191.667 132.495 L 191.667 122.824 189.458 122.870 L 187.250 122.917 187.167 129.315 C 187.084 135.691,187.082 135.711,186.775 135.066 C 186.439 134.361,184.388 131.019,182.745 128.500 C 182.177 127.629,181.511 126.517,181.264 126.029 C 181.017 125.541,180.482 124.622,180.075 123.987 L 179.336 122.833 176.334 122.833 L 173.333 122.833 173.333 132.500 M195.667 132.500 L 195.667 142.167 197.917 142.167 L 200.167 142.167 200.167 135.550 L 200.167 128.933 201.413 130.925 C 202.099 132.020,202.753 133.104,202.867 133.333 C 203.083 133.769,204.471 136.022,206.869 139.833 L 208.285 142.083 211.143 142.129 L 214.000 142.175 214.000 132.504 L 214.000 122.833 211.752 122.833 L 209.504 122.833 209.460 129.197 L 209.417 135.561 207.638 132.572 C 206.660 130.928,205.414 128.907,204.869 128.079 C 204.324 127.252,203.448 125.827,202.921 124.913 C 202.395 123.998,201.888 123.156,201.795 123.042 C 201.671 122.889,200.829 122.833,198.646 122.833 L 195.667 122.833 195.667 132.500 M217.500 132.500 L 217.500 142.167 219.750 142.167 L 222.000 142.167 222.000 132.500 L 222.000 122.833 219.750 122.833 L 217.500 122.833 217.500 132.500 M225.333 132.496 L 225.333 142.167 227.581 142.167 L 229.829 142.167 229.873 135.674 L 229.917 129.180 231.130 131.132 C 231.798 132.205,232.836 133.865,233.437 134.820 C 234.038 135.776,234.655 136.788,234.807 137.070 C 234.959 137.352,235.720 138.615,236.497 139.875 L 237.910 142.167 240.789 142.167 L 243.667 142.167 243.667 132.500 L 243.667 122.833 241.417 122.833 L 239.167 122.833 239.167 129.202 L 239.167 135.571 238.436 134.410 C 237.572 133.039,235.218 129.204,232.990 125.538 L 231.397 122.917 228.365 122.871 L 225.333 122.826 225.333 132.496 M143.183 127.002 C 144.053 127.244,144.388 127.690,144.375 128.591 C 144.354 129.959,143.702 130.326,141.063 130.456 L 139.167 130.550 139.167 128.691 L 139.167 126.833 140.875 126.834 C 141.815 126.835,142.853 126.910,143.183 127.002 M162.997 134.042 C 162.999 134.110,162.137 134.167,161.083 134.167 C 160.029 134.167,159.167 134.143,159.167 134.113 C 159.167 134.000,160.470 130.382,160.738 129.750 L 161.022 129.083 162.008 131.500 C 162.550 132.829,162.995 133.973,162.997 134.042 M144.063 134.564 C 145.469 135.151,145.707 136.538,144.593 137.652 L 143.995 138.250 141.581 138.307 L 139.167 138.365 139.167 136.240 L 139.167 134.115 141.341 134.225 C 142.549 134.287,143.759 134.437,144.063 134.564 " stroke="none" fill="#fcfcfc" fill-rule="evenodd"></path><path id="path1" d="M167.083 156.982 C 162.097 158.436,159.115 162.943,159.688 168.160 C 160.935 179.506,177.317 180.352,179.936 169.206 C 181.679 161.790,174.384 154.853,167.083 156.982 M197.203 156.908 C 191.118 158.382,187.753 165.347,190.340 171.115 C 194.435 180.244,207.942 178.690,209.843 168.871 C 211.259 161.551,204.489 155.144,197.203 156.908 " stroke="none" fill="#37b890" fill-rule="evenodd"></path><path id="path2" d="M227.083 156.889 C 219.515 158.823,216.733 168.304,222.073 173.964 C 227.236 179.437,236.582 177.649,239.304 170.667 C 242.313 162.951,235.116 154.837,227.083 156.889 " stroke="none" fill="#e44444" fill-rule="evenodd"></path><path id="path3" d="" stroke="none" fill="#c8cc100" fill-rule="evenodd"></path><path id="path4" d="" stroke="none" fill="#c8cc100" fill-rule="evenodd"></path><path id="path5" d="" stroke="none" fill="#c8cc100" fill-rule="evenodd"></path><path id="path6" d="" stroke="none" fill="#c8cc100" fill-rule="evenodd"></path><path id="path0" d="M148.167 74.500 L 148.167 108.000 152.250 108.000 L 156.333 108.000 156.333 74.500 L 156.333 41.000 152.250 41.000 L 148.167 41.000 148.167 74.500 M265.545 45.316 C 261.427 46.844,260.227 52.071,263.278 55.190 C 265.603 57.567,269.427 57.617,271.695 55.301 C 276.155 50.744,271.460 43.121,265.545 45.316 M43.167 45.428 C 43.167 45.572,43.388 46.228,43.658 46.887 C 44.794 49.652,47.992 57.851,48.411 59.072 C 48.660 59.800,49.945 63.121,51.265 66.452 C 52.586 69.784,53.667 72.576,53.667 72.657 C 53.667 72.820,55.623 77.870,57.576 82.750 C 58.273 84.492,58.921 86.206,59.016 86.560 C 59.111 86.914,60.347 90.122,61.761 93.690 C 63.176 97.258,64.333 100.241,64.333 100.319 C 64.333 100.470,65.994 104.809,66.795 106.750 L 67.276 107.917 71.424 107.917 L 75.572 107.917 77.511 103.148 C 78.578 100.525,79.587 97.975,79.754 97.481 C 79.921 96.987,81.219 93.696,82.637 90.167 C 84.056 86.638,85.270 83.525,85.336 83.250 C 85.402 82.975,86.583 79.975,87.961 76.583 C 89.339 73.192,90.539 70.154,90.629 69.833 C 90.719 69.512,91.859 66.625,93.164 63.417 C 94.469 60.208,95.705 57.058,95.911 56.417 C 96.117 55.775,96.567 54.575,96.911 53.750 C 97.929 51.305,100.333 45.330,100.333 45.245 C 100.333 45.202,98.168 45.167,95.522 45.167 L 90.711 45.167 90.197 46.542 C 89.914 47.298,89.072 49.492,88.325 51.417 C 87.579 53.342,86.667 55.742,86.299 56.750 C 84.993 60.332,83.509 64.292,82.332 67.333 C 81.676 69.029,80.950 70.979,80.717 71.667 C 80.149 73.346,79.820 74.238,78.500 77.667 C 76.849 81.956,75.105 86.620,74.761 87.667 C 74.596 88.171,73.991 89.783,73.417 91.250 C 72.843 92.717,72.203 94.389,71.994 94.967 L 71.616 96.018 70.547 93.134 C 69.959 91.548,69.375 89.868,69.248 89.401 C 69.121 88.934,68.710 87.734,68.333 86.734 C 66.629 82.210,64.000 75.023,64.000 74.887 C 64.000 74.718,62.985 71.917,61.082 66.833 C 60.379 64.954,59.219 61.729,58.505 59.667 C 57.791 57.604,56.867 55.017,56.453 53.917 C 54.354 48.347,53.333 45.548,53.333 45.367 C 53.333 45.215,52.100 45.167,48.250 45.167 C 43.743 45.167,43.167 45.196,43.167 45.428 M288.781 54.108 C 288.718 54.171,288.667 56.835,288.667 60.028 L 288.667 65.833 284.167 65.833 L 279.667 65.833 279.667 69.500 L 279.667 73.167 284.151 73.167 L 288.636 73.167 288.715 86.042 C 288.822 103.388,288.984 104.215,292.795 106.941 C 296.146 109.338,303.322 109.902,307.811 108.121 L 308.750 107.748 308.795 103.938 C 308.837 100.349,308.823 100.136,308.545 100.252 C 303.822 102.234,299.821 101.850,298.348 99.275 C 297.216 97.298,297.269 97.963,297.209 84.958 L 297.154 73.167 302.827 73.167 L 308.500 73.167 308.500 69.500 L 308.500 65.833 302.835 65.833 L 297.171 65.833 297.127 59.958 L 297.083 54.083 292.989 54.039 C 290.737 54.014,288.843 54.046,288.781 54.108 M115.667 64.836 C 105.385 65.712,97.176 73.569,96.166 83.500 C 95.436 90.678,97.031 97.440,100.334 101.167 C 100.537 101.396,101.033 102.010,101.437 102.531 C 107.231 110.020,122.624 111.349,131.612 105.136 C 132.915 104.235,136.385 100.743,136.285 100.433 C 136.252 100.332,135.706 99.851,135.071 99.362 C 134.436 98.874,133.757 98.339,133.562 98.173 C 132.632 97.381,131.025 96.167,130.907 96.167 C 130.835 96.167,130.636 96.039,130.463 95.884 C 130.164 95.613,130.081 95.672,128.522 97.270 C 124.582 101.307,121.225 102.436,115.652 101.597 C 109.816 100.719,104.667 95.482,104.667 90.424 C 104.667 90.196,106.481 90.164,121.458 90.126 L 138.250 90.083 138.239 87.000 C 138.194 74.133,131.129 65.728,119.606 64.832 C 118.494 64.745,117.471 64.684,117.333 64.695 C 117.196 64.706,116.446 64.770,115.667 64.836 M185.874 64.839 C 180.558 65.280,173.803 68.560,171.264 71.934 C 170.981 72.310,170.268 73.247,169.680 74.017 C 161.440 84.793,165.713 101.446,178.139 106.986 C 185.292 110.174,191.978 109.903,199.417 106.122 C 201.378 105.125,204.851 101.968,206.388 99.785 C 210.411 94.072,211.454 85.561,208.904 79.250 C 208.571 78.425,208.209 77.525,208.101 77.250 C 205.087 69.621,195.146 64.071,185.874 64.839 M234.931 65.081 C 219.575 67.280,211.982 83.746,219.376 98.811 C 224.907 110.080,244.849 112.761,253.963 103.461 L 254.842 102.564 251.937 99.615 C 248.603 96.232,248.988 96.432,247.917 97.526 C 244.712 100.797,240.838 102.048,236.340 101.263 C 226.094 99.475,221.871 86.212,228.674 77.184 C 233.116 71.288,242.819 71.145,248.154 76.898 C 248.720 77.507,248.777 77.484,250.171 76.074 C 250.856 75.382,251.717 74.596,252.083 74.327 C 252.450 74.059,253.275 73.355,253.917 72.763 L 255.083 71.687 254.333 70.913 C 250.024 66.467,242.030 64.064,234.931 65.081 M263.333 86.914 L 263.333 108.000 267.584 108.000 L 271.835 108.000 271.792 86.958 L 271.750 65.917 267.542 65.872 L 263.333 65.828 263.333 86.914 M314.500 66.055 C 314.500 66.571,315.487 69.052,318.755 76.750 C 319.456 78.400,320.108 79.975,320.205 80.250 C 320.543 81.212,321.990 84.776,323.249 87.750 C 323.947 89.400,324.788 91.425,325.117 92.250 C 326.076 94.653,328.564 100.702,329.714 103.424 C 331.931 108.674,331.962 107.747,329.347 114.228 C 326.591 121.060,323.823 122.706,317.868 121.055 C 317.016 120.819,316.298 120.654,316.272 120.688 C 316.210 120.771,315.324 127.508,315.329 127.861 C 315.342 128.745,321.201 129.574,324.572 129.169 C 327.968 128.761,329.994 127.853,332.000 125.839 C 333.922 123.909,334.801 122.396,336.501 118.083 C 336.790 117.350,337.871 114.650,338.902 112.083 C 339.933 109.517,340.987 106.817,341.244 106.083 C 341.501 105.350,342.786 102.072,344.100 98.800 C 345.414 95.527,346.541 92.640,346.604 92.383 C 346.666 92.127,347.797 89.224,349.116 85.933 C 350.434 82.643,351.666 79.493,351.853 78.933 C 352.041 78.374,353.238 75.309,354.513 72.121 C 355.789 68.934,356.833 66.215,356.833 66.080 C 356.833 65.869,356.205 65.833,352.429 65.833 L 348.024 65.833 347.666 66.789 C 347.470 67.315,347.205 68.121,347.078 68.581 C 346.951 69.041,346.353 70.729,345.751 72.333 C 342.608 80.698,342.312 81.510,341.349 84.417 C 341.167 84.967,340.537 86.692,339.951 88.250 C 337.497 94.764,336.333 97.978,336.333 98.240 C 336.333 98.394,336.258 98.473,336.167 98.417 C 336.075 98.360,335.999 98.187,335.998 98.032 C 335.998 97.877,335.358 96.100,334.577 94.083 C 333.796 92.067,332.753 89.367,332.260 88.083 C 331.767 86.800,331.206 85.388,331.015 84.945 C 330.823 84.501,330.667 84.030,330.667 83.897 C 330.667 83.764,329.476 80.564,328.020 76.786 C 326.565 73.008,325.046 69.017,324.645 67.917 L 323.917 65.917 319.208 65.872 C 315.325 65.836,314.500 65.868,314.500 66.055 M120.194 71.735 C 125.519 72.760,128.806 76.518,129.280 82.124 L 129.382 83.333 117.006 83.333 L 104.629 83.333 104.740 82.542 C 105.756 75.286,112.854 70.323,120.194 71.735 M189.417 72.672 C 197.115 73.538,201.740 79.291,201.458 87.649 C 201.177 95.947,195.753 101.420,187.833 101.397 C 179.460 101.372,174.023 95.251,174.379 86.250 C 174.706 78.000,179.320 73.234,187.667 72.524 C 187.804 72.512,188.592 72.579,189.417 72.672 M254.283 122.667 C 249.248 123.312,245.684 129.267,246.903 135.000 C 248.335 141.740,256.501 144.702,264.208 141.278 L 265.167 140.852 265.167 135.759 L 265.167 130.667 261.333 130.667 L 257.500 130.667 257.500 132.667 L 257.500 134.667 259.256 134.667 L 261.013 134.667 260.965 136.125 L 260.917 137.582 259.917 137.986 C 254.786 140.055,250.016 135.713,251.667 130.476 C 252.865 126.679,257.562 125.425,261.239 127.920 L 261.822 128.315 263.330 126.708 C 265.031 124.896,265.014 124.969,263.918 124.137 C 262.040 122.713,258.341 122.148,254.283 122.667 M134.667 132.500 L 134.667 142.167 139.152 142.167 C 145.328 142.167,147.232 141.728,148.747 139.958 C 150.776 137.588,149.769 133.228,146.977 132.298 L 146.333 132.083 147.118 131.500 C 149.371 129.827,149.714 126.406,147.819 124.511 C 146.413 123.106,145.047 122.840,139.208 122.836 L 134.667 122.833 134.667 132.500 M159.177 123.208 C 159.095 123.415,158.529 124.708,157.919 126.083 C 157.309 127.458,156.395 129.558,155.887 130.750 C 154.327 134.411,152.559 138.499,151.761 140.292 C 151.342 141.232,151.000 142.038,151.000 142.084 C 151.000 142.129,152.118 142.167,153.485 142.167 L 155.969 142.167 156.764 140.167 L 157.558 138.167 161.170 138.167 L 164.781 138.167 165.207 139.292 C 165.441 139.910,165.768 140.810,165.933 141.292 L 166.233 142.167 168.700 142.167 C 170.662 142.167,171.167 142.121,171.167 141.941 C 171.167 141.567,170.445 139.746,169.041 136.583 C 167.126 132.268,165.501 128.536,164.578 126.333 C 164.136 125.279,163.599 124.060,163.384 123.625 L 162.994 122.833 161.160 122.833 C 159.412 122.833,159.318 122.851,159.177 123.208 M173.333 132.500 L 173.333 142.167 175.583 142.167 L 177.833 142.167 177.835 135.625 L 177.837 129.083 178.370 129.917 C 178.663 130.375,179.372 131.473,179.944 132.357 C 180.517 133.241,181.261 134.479,181.599 135.107 C 181.936 135.736,182.790 137.150,183.495 138.250 C 184.201 139.350,185.034 140.679,185.347 141.204 L 185.917 142.157 188.792 142.162 L 191.667 142.167 191.667 132.495 L 191.667 122.824 189.458 122.870 L 187.250 122.917 187.167 129.315 C 187.084 135.691,187.082 135.711,186.775 135.066 C 186.439 134.361,184.388 131.019,182.745 128.500 C 182.177 127.629,181.511 126.517,181.264 126.029 C 181.017 125.541,180.482 124.622,180.075 123.987 L 179.336 122.833 176.334 122.833 L 173.333 122.833 173.333 132.500 M195.667 132.500 L 195.667 142.167 197.917 142.167 L 200.167 142.167 200.167 135.550 L 200.167 128.933 201.413 130.925 C 202.099 132.020,202.753 133.104,202.867 133.333 C 203.083 133.769,204.471 136.022,206.869 139.833 L 208.285 142.083 211.143 142.129 L 214.000 142.175 214.000 132.504 L 214.000 122.833 211.752 122.833 L 209.504 122.833 209.460 129.197 L 209.417 135.561 207.638 132.572 C 206.660 130.928,205.414 128.907,204.869 128.079 C 204.324 127.252,203.448 125.827,202.921 124.913 C 202.395 123.998,201.888 123.156,201.795 123.042 C 201.671 122.889,200.829 122.833,198.646 122.833 L 195.667 122.833 195.667 132.500 M217.500 132.500 L 217.500 142.167 219.750 142.167 L 222.000 142.167 222.000 132.500 L 222.000 122.833 219.750 122.833 L 217.500 122.833 217.500 132.500 M225.333 132.496 L 225.333 142.167 227.581 142.167 L 229.829 142.167 229.873 135.674 L 229.917 129.180 231.130 131.132 C 231.798 132.205,232.836 133.865,233.437 134.820 C 234.038 135.776,234.655 136.788,234.807 137.070 C 234.959 137.352,235.720 138.615,236.497 139.875 L 237.910 142.167 240.789 142.167 L 243.667 142.167 243.667 132.500 L 243.667 122.833 241.417 122.833 L 239.167 122.833 239.167 129.202 L 239.167 135.571 238.436 134.410 C 237.572 133.039,235.218 129.204,232.990 125.538 L 231.397 122.917 228.365 122.871 L 225.333 122.826 225.333 132.496 M143.183 127.002 C 144.053 127.244,144.388 127.690,144.375 128.591 C 144.354 129.959,143.702 130.326,141.063 130.456 L 139.167 130.550 139.167 128.691 L 139.167 126.833 140.875 126.834 C 141.815 126.835,142.853 126.910,143.183 127.002 M162.997 134.042 C 162.999 134.110,162.137 134.167,161.083 134.167 C 160.029 134.167,159.167 134.143,159.167 134.113 C 159.167 134.000,160.470 130.382,160.738 129.750 L 161.022 129.083 162.008 131.500 C 162.550 132.829,162.995 133.973,162.997 134.042 M144.063 134.564 C 145.469 135.151,145.707 136.538,144.593 137.652 L 143.995 138.250 141.581 138.307 L 139.167 138.365 139.167 136.240 L 139.167 134.115 141.341 134.225 C 142.549 134.287,143.759 134.437,144.063 134.564 " stroke="none" fill="#fcfcfc" fill-rule="evenodd"></path><path id="path1" d="M167.083 156.982 C 162.097 158.436,159.115 162.943,159.688 168.160 C 160.935 179.506,177.317 180.352,179.936 169.206 C 181.679 161.790,174.384 154.853,167.083 156.982 M197.203 156.908 C 191.118 158.382,187.753 165.347,190.340 171.115 C 194.435 180.244,207.942 178.690,209.843 168.871 C 211.259 161.551,204.489 155.144,197.203 156.908 " stroke="none" fill="#37b890" fill-rule="evenodd"></path><path id="path2" d="M227.083 156.889 C 219.515 158.823,216.733 168.304,222.073 173.964 C 227.236 179.437,236.582 177.649,239.304 170.667 C 242.313 162.951,235.116 154.837,227.083 156.889 " stroke="none" fill="#e44444" fill-rule="evenodd"></path><path id="path3" d="" stroke="none" fill="#c8cc100" fill-rule="evenodd"></path><path id="path4" d="" stroke="none" fill="#c8cc100" fill-rule="evenodd"></path><path id="path5" d="" stroke="none" fill="#c8cc100" fill-rule="evenodd"></path><path id="path6" d="" stroke="none" fill="#c8cc100" fill-rule="evenodd"></path><path id="path0" d="M148.167 74.500 L 148.167 108.000 152.250 108.000 L 156.333 108.000 156.333 74.500 L 156.333 41.000 152.250 41.000 L 148.167 41.000 148.167 74.500 M265.545 45.316 C 261.427 46.844,260.227 52.071,263.278 55.190 C 265.603 57.567,269.427 57.617,271.695 55.301 C 276.155 50.744,271.460 43.121,265.545 45.316 M43.167 45.428 C 43.167 45.572,43.388 46.228,43.658 46.887 C 44.794 49.652,47.992 57.851,48.411 59.072 C 48.660 59.800,49.945 63.121,51.265 66.452 C 52.586 69.784,53.667 72.576,53.667 72.657 C 53.667 72.820,55.623 77.870,57.576 82.750 C 58.273 84.492,58.921 86.206,59.016 86.560 C 59.111 86.914,60.347 90.122,61.761 93.690 C 63.176 97.258,64.333 100.241,64.333 100.319 C 64.333 100.470,65.994 104.809,66.795 106.750 L 67.276 107.917 71.424 107.917 L 75.572 107.917 77.511 103.148 C 78.578 100.525,79.587 97.975,79.754 97.481 C 79.921 96.987,81.219 93.696,82.637 90.167 C 84.056 86.638,85.270 83.525,85.336 83.250 C 85.402 82.975,86.583 79.975,87.961 76.583 C 89.339 73.192,90.539 70.154,90.629 69.833 C 90.719 69.512,91.859 66.625,93.164 63.417 C 94.469 60.208,95.705 57.058,95.911 56.417 C 96.117 55.775,96.567 54.575,96.911 53.750 C 97.929 51.305,100.333 45.330,100.333 45.245 C 100.333 45.202,98.168 45.167,95.522 45.167 L 90.711 45.167 90.197 46.542 C 89.914 47.298,89.072 49.492,88.325 51.417 C 87.579 53.342,86.667 55.742,86.299 56.750 C 84.993 60.332,83.509 64.292,82.332 67.333 C 81.676 69.029,80.950 70.979,80.717 71.667 C 80.149 73.346,79.820 74.238,78.500 77.667 C 76.849 81.956,75.105 86.620,74.761 87.667 C 74.596 88.171,73.991 89.783,73.417 91.250 C 72.843 92.717,72.203 94.389,71.994 94.967 L 71.616 96.018 70.547 93.134 C 69.959 91.548,69.375 89.868,69.248 89.401 C 69.121 88.934,68.710 87.734,68.333 86.734 C 66.629 82.210,64.000 75.023,64.000 74.887 C 64.000 74.718,62.985 71.917,61.082 66.833 C 60.379 64.954,59.219 61.729,58.505 59.667 C 57.791 57.604,56.867 55.017,56.453 53.917 C 54.354 48.347,53.333 45.548,53.333 45.367 C 53.333 45.215,52.100 45.167,48.250 45.167 C 43.743 45.167,43.167 45.196,43.167 45.428 M288.781 54.108 C 288.718 54.171,288.667 56.835,288.667 60.028 L 288.667 65.833 284.167 65.833 L 279.667 65.833 279.667 69.500 L 279.667 73.167 284.151 73.167 L 288.636 73.167 288.715 86.042 C 288.822 103.388,288.984 104.215,292.795 106.941 C 296.146 109.338,303.322 109.902,307.811 108.121 L 308.750 107.748 308.795 103.938 C 308.837 100.349,308.823 100.136,308.545 100.252 C 303.822 102.234,299.821 101.850,298.348 99.275 C 297.216 97.298,297.269 97.963,297.209 84.958 L 297.154 73.167 302.827 73.167 L 308.500 73.167 308.500 69.500 L 308.500 65.833 302.835 65.833 L 297.171 65.833 297.127 59.958 L 297.083 54.083 292.989 54.039 C 290.737 54.014,288.843 54.046,288.781 54.108 M115.667 64.836 C 105.385 65.712,97.176 73.569,96.166 83.500 C 95.436 90.678,97.031 97.440,100.334 101.167 C 100.537 101.396,101.033 102.010,101.437 102.531 C 107.231 110.020,122.624 111.349,131.612 105.136 C 132.915 104.235,136.385 100.743,136.285 100.433 C 136.252 100.332,135.706 99.851,135.071 99.362 C 134.436 98.874,133.757 98.339,133.562 98.173 C 132.632 97.381,131.025 96.167,130.907 96.167 C 130.835 96.167,130.636 96.039,130.463 95.884 C 130.164 95.613,130.081 95.672,128.522 97.270 C 124.582 101.307,121.225 102.436,115.652 101.597 C 109.816 100.719,104.667 95.482,104.667 90.424 C 104.667 90.196,106.481 90.164,121.458 90.126 L 138.250 90.083 138.239 87.000 C 138.194 74.133,131.129 65.728,119.606 64.832 C 118.494 64.745,117.471 64.684,117.333 64.695 C 117.196 64.706,116.446 64.770,115.667 64.836 M185.874 64.839 C 180.558 65.280,173.803 68.560,171.264 71.934 C 170.981 72.310,170.268 73.247,169.680 74.017 C 161.440 84.793,165.713 101.446,178.139 106.986 C 185.292 110.174,191.978 109.903,199.417 106.122 C 201.378 105.125,204.851 101.968,206.388 99.785 C 210.411 94.072,211.454 85.561,208.904 79.250 C 208.571 78.425,208.209 77.525,208.101 77.250 C 205.087 69.621,195.146 64.071,185.874 64.839 M234.931 65.081 C 219.575 67.280,211.982 83.746,219.376 98.811 C 224.907 110.080,244.849 112.761,253.963 103.461 L 254.842 102.564 251.937 99.615 C 248.603 96.232,248.988 96.432,247.917 97.526 C 244.712 100.797,240.838 102.048,236.340 101.263 C 226.094 99.475,221.871 86.212,228.674 77.184 C 233.116 71.288,242.819 71.145,248.154 76.898 C 248.720 77.507,248.777 77.484,250.171 76.074 C 250.856 75.382,251.717 74.596,252.083 74.327 C 252.450 74.059,253.275 73.355,253.917 72.763 L 255.083 71.687 254.333 70.913 C 250.024 66.467,242.030 64.064,234.931 65.081 M263.333 86.914 L 263.333 108.000 267.584 108.000 L 271.835 108.000 271.792 86.958 L 271.750 65.917 267.542 65.872 L 263.333 65.828 263.333 86.914 M314.500 66.055 C 314.500 66.571,315.487 69.052,318.755 76.750 C 319.456 78.400,320.108 79.975,320.205 80.250 C 320.543 81.212,321.990 84.776,323.249 87.750 C 323.947 89.400,324.788 91.425,325.117 92.250 C 326.076 94.653,328.564 100.702,329.714 103.424 C 331.931 108.674,331.962 107.747,329.347 114.228 C 326.591 121.060,323.823 122.706,317.868 121.055 C 317.016 120.819,316.298 120.654,316.272 120.688 C 316.210 120.771,315.324 127.508,315.329 127.861 C 315.342 128.745,321.201 129.574,324.572 129.169 C 327.968 128.761,329.994 127.853,332.000 125.839 C 333.922 123.909,334.801 122.396,336.501 118.083 C 336.790 117.350,337.871 114.650,338.902 112.083 C 339.933 109.517,340.987 106.817,341.244 106.083 C 341.501 105.350,342.786 102.072,344.100 98.800 C 345.414 95.527,346.541 92.640,346.604 92.383 C 346.666 92.127,347.797 89.224,349.116 85.933 C 350.434 82.643,351.666 79.493,351.853 78.933 C 352.041 78.374,353.238 75.309,354.513 72.121 C 355.789 68.934,356.833 66.215,356.833 66.080 C 356.833 65.869,356.205 65.833,352.429 65.833 L 348.024 65.833 347.666 66.789 C 347.470 67.315,347.205 68.121,347.078 68.581 C 346.951 69.041,346.353 70.729,345.751 72.333 C 342.608 80.698,342.312 81.510,341.349 84.417 C 341.167 84.967,340.537 86.692,339.951 88.250 C 337.497 94.764,336.333 97.978,336.333 98.240 C 336.333 98.394,336.258 98.473,336.167 98.417 C 336.075 98.360,335.999 98.187,335.998 98.032 C 335.998 97.877,335.358 96.100,334.577 94.083 C 333.796 92.067,332.753 89.367,332.260 88.083 C 331.767 86.800,331.206 85.388,331.015 84.945 C 330.823 84.501,330.667 84.030,330.667 83.897 C 330.667 83.764,329.476 80.564,328.020 76.786 C 326.565 73.008,325.046 69.017,324.645 67.917 L 323.917 65.917 319.208 65.872 C 315.325 65.836,314.500 65.868,314.500 66.055 M120.194 71.735 C 125.519 72.760,128.806 76.518,129.280 82.124 L 129.382 83.333 117.006 83.333 L 104.629 83.333 104.740 82.542 C 105.756 75.286,112.854 70.323,120.194 71.735 M189.417 72.672 C 197.115 73.538,201.740 79.291,201.458 87.649 C 201.177 95.947,195.753 101.420,187.833 101.397 C 179.460 101.372,174.023 95.251,174.379 86.250 C 174.706 78.000,179.320 73.234,187.667 72.524 C 187.804 72.512,188.592 72.579,189.417 72.672 M254.283 122.667 C 249.248 123.312,245.684 129.267,246.903 135.000 C 248.335 141.740,256.501 144.702,264.208 141.278 L 265.167 140.852 265.167 135.759 L 265.167 130.667 261.333 130.667 L 257.500 130.667 257.500 132.667 L 257.500 134.667 259.256 134.667 L 261.013 134.667 260.965 136.125 L 260.917 137.582 259.917 137.986 C 254.786 140.055,250.016 135.713,251.667 130.476 C 252.865 126.679,257.562 125.425,261.239 127.920 L 261.822 128.315 263.330 126.708 C 265.031 124.896,265.014 124.969,263.918 124.137 C 262.040 122.713,258.341 122.148,254.283 122.667 M134.667 132.500 L 134.667 142.167 139.152 142.167 C 145.328 142.167,147.232 141.728,148.747 139.958 C 150.776 137.588,149.769 133.228,146.977 132.298 L 146.333 132.083 147.118 131.500 C 149.371 129.827,149.714 126.406,147.819 124.511 C 146.413 123.106,145.047 122.840,139.208 122.836 L 134.667 122.833 134.667 132.500 M159.177 123.208 C 159.095 123.415,158.529 124.708,157.919 126.083 C 157.309 127.458,156.395 129.558,155.887 130.750 C 154.327 134.411,152.559 138.499,151.761 140.292 C 151.342 141.232,151.000 142.038,151.000 142.084 C 151.000 142.129,152.118 142.167,153.485 142.167 L 155.969 142.167 156.764 140.167 L 157.558 138.167 161.170 138.167 L 164.781 138.167 165.207 139.292 C 165.441 139.910,165.768 140.810,165.933 141.292 L 166.233 142.167 168.700 142.167 C 170.662 142.167,171.167 142.121,171.167 141.941 C 171.167 141.567,170.445 139.746,169.041 136.583 C 167.126 132.268,165.501 128.536,164.578 126.333 C 164.136 125.279,163.599 124.060,163.384 123.625 L 162.994 122.833 161.160 122.833 C 159.412 122.833,159.318 122.851,159.177 123.208 M173.333 132.500 L 173.333 142.167 175.583 142.167 L 177.833 142.167 177.835 135.625 L 177.837 129.083 178.370 129.917 C 178.663 130.375,179.372 131.473,179.944 132.357 C 180.517 133.241,181.261 134.479,181.599 135.107 C 181.936 135.736,182.790 137.150,183.495 138.250 C 184.201 139.350,185.034 140.679,185.347 141.204 L 185.917 142.157 188.792 142.162 L 191.667 142.167 191.667 132.495 L 191.667 122.824 189.458 122.870 L 187.250 122.917 187.167 129.315 C 187.084 135.691,187.082 135.711,186.775 135.066 C 186.439 134.361,184.388 131.019,182.745 128.500 C 182.177 127.629,181.511 126.517,181.264 126.029 C 181.017 125.541,180.482 124.622,180.075 123.987 L 179.336 122.833 176.334 122.833 L 173.333 122.833 173.333 132.500 M195.667 132.500 L 195.667 142.167 197.917 142.167 L 200.167 142.167 200.167 135.550 L 200.167 128.933 201.413 130.925 C 202.099 132.020,202.753 133.104,202.867 133.333 C 203.083 133.769,204.471 136.022,206.869 139.833 L 208.285 142.083 211.143 142.129 L 214.000 142.175 214.000 132.504 L 214.000 122.833 211.752 122.833 L 209.504 122.833 209.460 129.197 L 209.417 135.561 207.638 132.572 C 206.660 130.928,205.414 128.907,204.869 128.079 C 204.324 127.252,203.448 125.827,202.921 124.913 C 202.395 123.998,201.888 123.156,201.795 123.042 C 201.671 122.889,200.829 122.833,198.646 122.833 L 195.667 122.833 195.667 132.500 M217.500 132.500 L 217.500 142.167 219.750 142.167 L 222.000 142.167 222.000 132.500 L 222.000 122.833 219.750 122.833 L 217.500 122.833 217.500 132.500 M225.333 132.496 L 225.333 142.167 227.581 142.167 L 229.829 142.167 229.873 135.674 L 229.917 129.180 231.130 131.132 C 231.798 132.205,232.836 133.865,233.437 134.820 C 234.038 135.776,234.655 136.788,234.807 137.070 C 234.959 137.352,235.720 138.615,236.497 139.875 L 237.910 142.167 240.789 142.167 L 243.667 142.167 243.667 132.500 L 243.667 122.833 241.417 122.833 L 239.167 122.833 239.167 129.202 L 239.167 135.571 238.436 134.410 C 237.572 133.039,235.218 129.204,232.990 125.538 L 231.397 122.917 228.365 122.871 L 225.333 122.826 225.333 132.496 M143.183 127.002 C 144.053 127.244,144.388 127.690,144.375 128.591 C 144.354 129.959,143.702 130.326,141.063 130.456 L 139.167 130.550 139.167 128.691 L 139.167 126.833 140.875 126.834 C 141.815 126.835,142.853 126.910,143.183 127.002 M162.997 134.042 C 162.999 134.110,162.137 134.167,161.083 134.167 C 160.029 134.167,159.167 134.143,159.167 134.113 C 159.167 134.000,160.470 130.382,160.738 129.750 L 161.022 129.083 162.008 131.500 C 162.550 132.829,162.995 133.973,162.997 134.042 M144.063 134.564 C 145.469 135.151,145.707 136.538,144.593 137.652 L 143.995 138.250 141.581 138.307 L 139.167 138.365 139.167 136.240 L 139.167 134.115 141.341 134.225 C 142.549 134.287,143.759 134.437,144.063 134.564 " stroke="none" fill="#fcfcfc" fill-rule="evenodd"></path><path id="path1" d="M167.083 156.982 C 162.097 158.436,159.115 162.943,159.688 168.160 C 160.935 179.506,177.317 180.352,179.936 169.206 C 181.679 161.790,174.384 154.853,167.083 156.982 M197.203 156.908 C 191.118 158.382,187.753 165.347,190.340 171.115 C 194.435 180.244,207.942 178.690,209.843 168.871 C 211.259 161.551,204.489 155.144,197.203 156.908 " stroke="none" fill="#37b890" fill-rule="evenodd"></path><path id="path2" d="M227.083 156.889 C 219.515 158.823,216.733 168.304,222.073 173.964 C 227.236 179.437,236.582 177.649,239.304 170.667 C 242.313 162.951,235.116 154.837,227.083 156.889 " stroke="none" fill="#e44444" fill-rule="evenodd"></path><path id="path3" d="" stroke="none" fill="#c8cc100" fill-rule="evenodd"></path><path id="path4" d="" stroke="none" fill="#c8cc100" fill-rule="evenodd"></path><path id="path5" d="" stroke="none" fill="#c8cc100" fill-rule="evenodd"></path><path id="path6" d="" stroke="none" fill="#c8cc100" fill-rule="evenodd"></path></g></svg>