<svg xmlns="http://www.w3.org/2000/svg" width="73.34" height="76.84" viewBox="0 0 73.34 76.84">
  <g id="data-icon" transform="translate(11968 -10626)">
    <path id="Path_254" data-name="Path 254" d="M56.764,187.131h0A7.8,7.8,0,0,1,49,179.368v-41.9a7.8,7.8,0,0,1,7.764-7.764h0a7.8,7.8,0,0,1,7.764,7.764v41.869A7.781,7.781,0,0,1,56.764,187.131Z" transform="translate(-12017 10515.569)" fill="#36c0f8"/>
    <path id="Path_255" data-name="Path 255" d="M140.164,172.764h0A7.8,7.8,0,0,1,132.4,165V115.264a7.8,7.8,0,0,1,7.764-7.764h0a7.8,7.8,0,0,1,7.764,7.764V165A7.751,7.751,0,0,1,140.164,172.764Z" transform="translate(-12071.493 10530.075)" fill="#36c0f8"/>
    <path id="Path_256" data-name="Path 256" d="M223.564,84.4h0c-4.263,0-7.764-2.693-7.764-5.972V13.672c0-3.279,3.5-5.972,7.764-5.972h0c4.263,0,7.764,2.693,7.764,5.972V78.4C231.328,81.708,227.862,84.4,223.564,84.4Z" transform="translate(-12125.987 10618.3)" fill="#36c0f8"/>
  </g>
</svg>
