<svg id="sites-icon" xmlns="http://www.w3.org/2000/svg" width="79.615" height="93.694" viewBox="0 0 79.615 93.694">
  <g id="Group_291" data-name="Group 291">
    <path id="Path_238" data-name="Path 238" d="M70.959,14.013a39.8,39.8,0,0,0-38.3,50.634,59.026,59.026,0,0,0,5.252,14.2c10.07,19.176,27.648,26.769,33.053,28.863h0c5.406-2.093,22.983-9.687,33.053-28.863a59.018,59.018,0,0,0,5.252-14.2,39.8,39.8,0,0,0-38.3-50.634Zm0,60.869a25.6,25.6,0,1,1,25.6-25.6A25.6,25.6,0,0,1,70.959,74.882Z" transform="translate(-31.152 -14.013)" fill="#36c0f8"/>
  </g>
  <g id="Group_292" data-name="Group 292" transform="translate(24.187 19.65)">
    <path id="Path_239" data-name="Path 239" d="M119.515,73.044h-7.7a1.761,1.761,0,0,1-1.761-1.761v-7.67a1.761,1.761,0,0,0-1.761-1.761h-5.33a1.761,1.761,0,0,0-1.761,1.761v7.671a1.761,1.761,0,0,1-1.761,1.761H91.8a1.761,1.761,0,0,0-1.761,1.761v5.33A1.761,1.761,0,0,0,91.8,81.9h7.645a1.761,1.761,0,0,1,1.761,1.761v7.671a1.761,1.761,0,0,0,1.761,1.761h5.33a1.761,1.761,0,0,0,1.761-1.761V83.658a1.761,1.761,0,0,1,1.761-1.761h7.7a1.761,1.761,0,0,0,1.761-1.761v-5.33A1.762,1.762,0,0,0,119.515,73.044Z" transform="translate(-90.037 -61.851)" fill="#36c0f8"/>
  </g>
</svg>
