<?xml version="1.0" encoding="utf-8"?>
<!-- Generator: Adobe Illustrator 24.2.3, SVG Export Plug-In . SVG Version: 6.00 Build 0)  -->
<svg version="1.1" id="Layer_1" xmlns="http://www.w3.org/2000/svg" xmlns:xlink="http://www.w3.org/1999/xlink" x="0px" y="0px"
	 viewBox="0 0 239.7 313.1" style="enable-background:new 0 0 239.7 313.1;" xml:space="preserve">
<style type="text/css">
	.st0{fill:#004FB5;}
	.st1{opacity:0.6;}
	.st2{opacity:0.1;}
	.st3{fill:#33BDD4;}
	.st4{fill:#49A939;}
	.st5{fill:none;}
</style>
<g class="st1">
	<defs>
		<rect id="SVGID_1_" x="277.5" y="-1246.3" class="st1" width="1955.4" height="736.5"/>
	</defs>
	<clipPath id="SVGID_2_">
		<use xlink:href="#SVGID_1_"  style="overflow:visible;"/>
	</clipPath>
	<g style="clip-path:url(#SVGID_2_);">
		
			<image style="overflow:visible;" width="5000" height="2771" xlink:href="../../../../_Brand Assets/Photography/Stock/GettyImages-1165053717-mono.jpg"  transform="matrix(0.6142 0 0 0.6142 56.4897 -1596.9443)">
		</image>
	</g>
</g>
<g id="Group_43_1_" transform="translate(169.107) rotate(90)" class="st2">
	<g id="Group_3_1_" transform="translate(0 154.144)">
		
			<ellipse id="Ellipse_1_1_" transform="matrix(2.535182e-06 1 -1 2.535182e-06 7.6009 -63.2682)" class="st3" cx="35.4" cy="-27.8" rx="7.5" ry="7.5"/>
		
			<ellipse id="Ellipse_3_1_" transform="matrix(2.535182e-06 1 -1 2.535182e-06 51.6318 -107.2992)" class="st3" cx="79.5" cy="-27.8" rx="7.5" ry="7.5"/>
	</g>
	<g id="Group_3-2_1_" transform="translate(22.015 132.123)">
		
			<ellipse id="Ellipse_2_1_" transform="matrix(2.535182e-06 1 -1 2.535182e-06 7.6009 -63.2682)" class="st3" cx="35.4" cy="-27.8" rx="7.5" ry="7.5"/>
		
			<ellipse id="Ellipse_3-2_1_" transform="matrix(2.535182e-06 1 -1 2.535182e-06 29.6169 -85.2842)" class="st3" cx="57.5" cy="-27.8" rx="7.5" ry="7.5"/>
	</g>
	<g id="Group_3-3_1_" transform="translate(66.062 154.144)">
		
			<ellipse id="Ellipse_1-2_1_" transform="matrix(2.535182e-06 1 -1 2.535182e-06 7.6009 -63.2682)" class="st3" cx="35.4" cy="-27.8" rx="7.5" ry="7.5"/>
		
			<ellipse id="Ellipse_3-3_1_" transform="matrix(2.535182e-06 1 -1 2.535182e-06 51.6318 -107.2992)" class="st3" cx="79.5" cy="-27.8" rx="7.5" ry="7.5"/>
	</g>
	<g id="Group_3-4_1_" transform="translate(66.062 132.123)">
		
			<ellipse id="Ellipse_1-3_1_" transform="matrix(2.535182e-06 1 -1 2.535182e-06 7.6009 -63.2682)" class="st3" cx="35.4" cy="-27.8" rx="7.5" ry="7.5"/>
		
			<ellipse id="Ellipse_2-2_1_" transform="matrix(2.535182e-06 1 -1 2.535182e-06 29.6159 -85.2832)" class="st3" cx="57.4" cy="-27.8" rx="7.5" ry="7.5"/>
		
			<ellipse id="Ellipse_3-4_1_" transform="matrix(2.535182e-06 1 -1 2.535182e-06 51.6318 -107.2992)" class="st3" cx="79.5" cy="-27.8" rx="7.5" ry="7.5"/>
	</g>
	<g id="Group_3-5_1_" transform="translate(0 110.103)">
		
			<ellipse id="Ellipse_1-4_1_" transform="matrix(2.535182e-06 1 -1 2.535182e-06 7.6009 -63.2682)" class="st3" cx="35.4" cy="-27.8" rx="7.5" ry="7.5"/>
		
			<ellipse id="Ellipse_2-3_1_" transform="matrix(2.535182e-06 1 -1 2.535182e-06 29.6159 -85.2832)" class="st3" cx="57.4" cy="-27.8" rx="7.5" ry="7.5"/>
		
			<ellipse id="Ellipse_3-5_1_" transform="matrix(2.535182e-06 1 -1 2.535182e-06 51.6318 -107.2992)" class="st3" cx="79.5" cy="-27.8" rx="7.5" ry="7.5"/>
	</g>
	<g id="Group_3-6_1_" transform="translate(0 88.082)">
		
			<ellipse id="Ellipse_1-5_1_" transform="matrix(2.535182e-06 1 -1 2.535182e-06 7.6009 -63.2682)" class="st3" cx="35.4" cy="-27.8" rx="7.5" ry="7.5"/>
		
			<ellipse id="Ellipse_2-4_1_" transform="matrix(2.535182e-06 1 -1 2.535182e-06 29.6159 -85.2832)" class="st3" cx="57.4" cy="-27.8" rx="7.5" ry="7.5"/>
		
			<ellipse id="Ellipse_3-6_1_" transform="matrix(2.535182e-06 1 -1 2.535182e-06 51.6318 -107.2992)" class="st3" cx="79.5" cy="-27.8" rx="7.5" ry="7.5"/>
	</g>
	<g id="Group_3-7_1_" transform="translate(66.062 110.103)">
		
			<ellipse id="Ellipse_1-6_1_" transform="matrix(2.535182e-06 1 -1 2.535182e-06 7.6009 -63.2682)" class="st3" cx="35.4" cy="-27.8" rx="7.5" ry="7.5"/>
		
			<ellipse id="Ellipse_2-5_1_" transform="matrix(2.535182e-06 1 -1 2.535182e-06 29.6159 -85.2832)" class="st3" cx="57.4" cy="-27.8" rx="7.5" ry="7.5"/>
		
			<ellipse id="Ellipse_3-7_1_" transform="matrix(2.535182e-06 1 -1 2.535182e-06 51.6318 -107.2992)" class="st3" cx="79.5" cy="-27.8" rx="7.5" ry="7.5"/>
	</g>
	<g id="Group_3-8_1_" transform="translate(66.062 88.082)">
		
			<ellipse id="Ellipse_1-7_1_" transform="matrix(2.535182e-06 1 -1 2.535182e-06 7.6009 -63.2682)" class="st3" cx="35.4" cy="-27.8" rx="7.5" ry="7.5"/>
		
			<ellipse id="Ellipse_2-6_1_" transform="matrix(2.535182e-06 1 -1 2.535182e-06 29.6159 -85.2832)" class="st3" cx="57.4" cy="-27.8" rx="7.5" ry="7.5"/>
		
			<ellipse id="Ellipse_3-8_1_" transform="matrix(2.535182e-06 1 -1 2.535182e-06 51.6318 -107.2992)" class="st3" cx="79.5" cy="-27.8" rx="7.5" ry="7.5"/>
	</g>
	<g id="Group_3-9_1_" transform="translate(44.031 66.062)">
		
			<ellipse id="Ellipse_3-9_1_" transform="matrix(2.535182e-06 1 -1 2.535182e-06 7.6009 -63.2682)" class="st3" cx="35.4" cy="-27.8" rx="7.5" ry="7.5"/>
	</g>
	<g id="Group_3-10_1_" transform="translate(0 44.041)">
		
			<ellipse id="Ellipse_1-8_1_" transform="matrix(2.535182e-06 1 -1 2.535182e-06 7.6009 -63.2682)" class="st3" cx="35.4" cy="-27.8" rx="7.5" ry="7.5"/>
		
			<ellipse id="Ellipse_2-7_1_" transform="matrix(2.535182e-06 1 -1 2.535182e-06 29.6159 -85.2832)" class="st3" cx="57.4" cy="-27.8" rx="7.5" ry="7.5"/>
		
			<ellipse id="Ellipse_3-10_1_" transform="matrix(2.535182e-06 1 -1 2.535182e-06 51.6318 -107.2992)" class="st3" cx="79.5" cy="-27.8" rx="7.5" ry="7.5"/>
	</g>
	<g id="Group_3-11_1_" transform="translate(66.062 66.062)">
		
			<ellipse id="Ellipse_1-9_1_" transform="matrix(2.535182e-06 1 -1 2.535182e-06 7.6009 -63.2682)" class="st3" cx="35.4" cy="-27.8" rx="7.5" ry="7.5"/>
		
			<ellipse id="Ellipse_2-8_1_" transform="matrix(2.535182e-06 1 -1 2.535182e-06 29.6159 -85.2832)" class="st3" cx="57.4" cy="-27.8" rx="7.5" ry="7.5"/>
		
			<ellipse id="Ellipse_3-11_1_" transform="matrix(2.535182e-06 1 -1 2.535182e-06 51.6318 -107.2992)" class="st3" cx="79.5" cy="-27.8" rx="7.5" ry="7.5"/>
	</g>
	<g id="Group_3-12_1_" transform="translate(66.062 44.041)">
		
			<ellipse id="Ellipse_1-10_1_" transform="matrix(2.535182e-06 1 -1 2.535182e-06 7.6009 -63.2682)" class="st3" cx="35.4" cy="-27.8" rx="7.5" ry="7.5"/>
		
			<ellipse id="Ellipse_2-9_1_" transform="matrix(2.535182e-06 1 -1 2.535182e-06 29.6159 -85.2832)" class="st3" cx="57.4" cy="-27.8" rx="7.5" ry="7.5"/>
		
			<ellipse id="Ellipse_3-12_1_" transform="matrix(2.535182e-06 1 -1 2.535182e-06 51.6318 -107.2992)" class="st3" cx="79.5" cy="-27.8" rx="7.5" ry="7.5"/>
	</g>
	<g id="Group_3-13_1_" transform="translate(44.031 22.021)">
		
			<ellipse id="Ellipse_3-13_1_" transform="matrix(2.535182e-06 1 -1 2.535182e-06 7.6009 -63.2682)" class="st3" cx="35.4" cy="-27.8" rx="7.5" ry="7.5"/>
	</g>
	<g id="Group_3-14_1_" transform="translate(44.031 0)">
		
			<ellipse id="Ellipse_3-14_1_" transform="matrix(2.535182e-06 1 -1 2.535182e-06 7.6009 -63.2682)" class="st3" cx="35.4" cy="-27.8" rx="7.5" ry="7.5"/>
	</g>
	<g id="Group_3-15_1_" transform="translate(66.062 22.021)">
		
			<ellipse id="Ellipse_1-11_1_" transform="matrix(2.535182e-06 1 -1 2.535182e-06 7.6009 -63.2682)" class="st3" cx="35.4" cy="-27.8" rx="7.5" ry="7.5"/>
		
			<ellipse id="Ellipse_2-10_1_" transform="matrix(2.535182e-06 1 -1 2.535182e-06 29.6159 -85.2832)" class="st3" cx="57.4" cy="-27.8" rx="7.5" ry="7.5"/>
		
			<ellipse id="Ellipse_3-15_1_" transform="matrix(2.535182e-06 1 -1 2.535182e-06 51.6318 -107.2992)" class="st3" cx="79.5" cy="-27.8" rx="7.5" ry="7.5"/>
	</g>
	<g id="Group_3-16_1_" transform="translate(88.077 0)">
		
			<ellipse id="Ellipse_2-11_1_" transform="matrix(2.535182e-06 1 -1 2.535182e-06 7.6009 -63.2682)" class="st3" cx="35.4" cy="-27.8" rx="7.5" ry="7.5"/>
		
			<ellipse id="Ellipse_3-16_1_" transform="matrix(2.535182e-06 1 -1 2.535182e-06 29.6169 -85.2842)" class="st3" cx="57.5" cy="-27.8" rx="7.5" ry="7.5"/>
	</g>
	<g id="Group_3-17_1_" transform="translate(154.138 154.144)">
		
			<ellipse id="Ellipse_2-12_1_" transform="matrix(2.535182e-06 1 -1 2.535182e-06 7.6009 -63.2682)" class="st3" cx="35.4" cy="-27.8" rx="7.5" ry="7.5"/>
		
			<ellipse id="Ellipse_3-17_1_" transform="matrix(2.535182e-06 1 -1 2.535182e-06 29.6169 -85.2842)" class="st3" cx="57.5" cy="-27.8" rx="7.5" ry="7.5"/>
	</g>
	<g id="Group_3-18_1_" transform="translate(132.123 132.123)">
		
			<ellipse id="Ellipse_1-12_1_" transform="matrix(2.535182e-06 1 -1 2.535182e-06 7.6009 -63.2682)" class="st3" cx="35.4" cy="-27.8" rx="7.5" ry="7.5"/>
		
			<ellipse id="Ellipse_2-13_1_" transform="matrix(2.535182e-06 1 -1 2.535182e-06 29.6159 -85.2832)" class="st3" cx="57.4" cy="-27.8" rx="7.5" ry="7.5"/>
		
			<ellipse id="Ellipse_3-18_1_" transform="matrix(2.535182e-06 1 -1 2.535182e-06 51.6318 -107.2992)" class="st3" cx="79.5" cy="-27.8" rx="7.5" ry="7.5"/>
	</g>
	<g id="Group_3-19_1_" transform="translate(198.185 154.144)">
		
			<ellipse id="Ellipse_1-13_1_" transform="matrix(2.535182e-06 1 -1 2.535182e-06 7.6009 -63.2682)" class="st3" cx="35.4" cy="-27.8" rx="7.5" ry="7.5"/>
		
			<ellipse id="Ellipse_3-19_1_" transform="matrix(2.535182e-06 1 -1 2.535182e-06 51.6318 -107.2992)" class="st3" cx="79.5" cy="-27.8" rx="7.5" ry="7.5"/>
	</g>
	<g id="Group_3-20_1_" transform="translate(198.185 132.123)">
		
			<ellipse id="Ellipse_1-14_1_" transform="matrix(2.535182e-06 1 -1 2.535182e-06 7.6009 -63.2682)" class="st3" cx="35.4" cy="-27.8" rx="7.5" ry="7.5"/>
		
			<ellipse id="Ellipse_2-14_1_" transform="matrix(2.535182e-06 1 -1 2.535182e-06 29.6159 -85.2832)" class="st3" cx="57.4" cy="-27.8" rx="7.5" ry="7.5"/>
	</g>
	<g id="Group_3-21_1_" transform="translate(132.123 110.103)">
		
			<ellipse id="Ellipse_1-15_1_" transform="matrix(2.535182e-06 1 -1 2.535182e-06 7.6009 -63.2682)" class="st3" cx="35.4" cy="-27.8" rx="7.5" ry="7.5"/>
		
			<ellipse id="Ellipse_2-15_1_" transform="matrix(2.535182e-06 1 -1 2.535182e-06 29.6159 -85.2832)" class="st3" cx="57.4" cy="-27.8" rx="7.5" ry="7.5"/>
		
			<ellipse id="Ellipse_3-20_1_" transform="matrix(2.535182e-06 1 -1 2.535182e-06 51.6318 -107.2992)" class="st3" cx="79.5" cy="-27.8" rx="7.5" ry="7.5"/>
	</g>
	<g id="Group_3-22_1_" transform="translate(132.123 88.082)">
		
			<ellipse id="Ellipse_1-16_1_" transform="matrix(2.535182e-06 1 -1 2.535182e-06 7.6009 -63.2682)" class="st3" cx="35.4" cy="-27.8" rx="7.5" ry="7.5"/>
		
			<ellipse id="Ellipse_2-16_1_" transform="matrix(2.535182e-06 1 -1 2.535182e-06 29.6159 -85.2832)" class="st3" cx="57.4" cy="-27.8" rx="7.5" ry="7.5"/>
		
			<ellipse id="Ellipse_3-21_1_" transform="matrix(2.535182e-06 1 -1 2.535182e-06 51.6318 -107.2992)" class="st3" cx="79.5" cy="-27.8" rx="7.5" ry="7.5"/>
	</g>
	<g id="Group_3-23_1_" transform="translate(198.185 110.103)">
		
			<ellipse id="Ellipse_1-17_1_" transform="matrix(2.535182e-06 1 -1 2.535182e-06 7.6009 -63.2682)" class="st3" cx="35.4" cy="-27.8" rx="7.5" ry="7.5"/>
		
			<ellipse id="Ellipse_2-17_1_" transform="matrix(2.535182e-06 1 -1 2.535182e-06 29.6159 -85.2832)" class="st3" cx="57.4" cy="-27.8" rx="7.5" ry="7.5"/>
		
			<ellipse id="Ellipse_3-22_1_" transform="matrix(2.535182e-06 1 -1 2.535182e-06 51.6318 -107.2992)" class="st3" cx="79.5" cy="-27.8" rx="7.5" ry="7.5"/>
	</g>
	<g id="Group_3-24_1_" transform="translate(198.185 88.082)">
		
			<ellipse id="Ellipse_1-18_1_" transform="matrix(2.535182e-06 1 -1 2.535182e-06 7.6009 -63.2682)" class="st3" cx="35.4" cy="-27.8" rx="7.5" ry="7.5"/>
		
			<ellipse id="Ellipse_2-18_1_" transform="matrix(2.535182e-06 1 -1 2.535182e-06 29.6159 -85.2832)" class="st3" cx="57.4" cy="-27.8" rx="7.5" ry="7.5"/>
	</g>
	<g id="Group_3-25_1_" transform="translate(132.123 66.062)">
		
			<ellipse id="Ellipse_1-19_1_" transform="matrix(2.535182e-06 1 -1 2.535182e-06 7.6009 -63.2682)" class="st3" cx="35.4" cy="-27.8" rx="7.5" ry="7.5"/>
		
			<ellipse id="Ellipse_2-19_1_" transform="matrix(2.535182e-06 1 -1 2.535182e-06 29.6159 -85.2832)" class="st3" cx="57.4" cy="-27.8" rx="7.5" ry="7.5"/>
		
			<ellipse id="Ellipse_3-23_1_" transform="matrix(2.535182e-06 1 -1 2.535182e-06 51.6318 -107.2992)" class="st3" cx="79.5" cy="-27.8" rx="7.5" ry="7.5"/>
	</g>
	<g id="Group_3-26_1_" transform="translate(132.123 44.041)">
		
			<ellipse id="Ellipse_1-20_1_" transform="matrix(2.535182e-06 1 -1 2.535182e-06 7.6009 -63.2682)" class="st3" cx="35.4" cy="-27.8" rx="7.5" ry="7.5"/>
		
			<ellipse id="Ellipse_2-20_1_" transform="matrix(2.535182e-06 1 -1 2.535182e-06 29.6159 -85.2832)" class="st3" cx="57.4" cy="-27.8" rx="7.5" ry="7.5"/>
		
			<ellipse id="Ellipse_3-24_1_" transform="matrix(2.535182e-06 1 -1 2.535182e-06 51.6318 -107.2992)" class="st3" cx="79.5" cy="-27.8" rx="7.5" ry="7.5"/>
	</g>
	<g id="Group_3-27_1_" transform="translate(198.185 66.062)">
		
			<ellipse id="Ellipse_1-21_1_" transform="matrix(2.535182e-06 1 -1 2.535182e-06 7.6009 -63.2682)" class="st3" cx="35.4" cy="-27.8" rx="7.5" ry="7.5"/>
		
			<ellipse id="Ellipse_2-21_1_" transform="matrix(2.535182e-06 1 -1 2.535182e-06 29.6159 -85.2832)" class="st3" cx="57.4" cy="-27.8" rx="7.5" ry="7.5"/>
		
			<ellipse id="Ellipse_3-25_1_" transform="matrix(2.535182e-06 1 -1 2.535182e-06 51.6318 -107.2992)" class="st3" cx="79.5" cy="-27.8" rx="7.5" ry="7.5"/>
	</g>
	<g id="Group_3-28_1_" transform="translate(198.185 44.041)">
		
			<ellipse id="Ellipse_1-22_1_" transform="matrix(2.535182e-06 1 -1 2.535182e-06 7.6009 -63.2682)" class="st3" cx="35.4" cy="-27.8" rx="7.5" ry="7.5"/>
		
			<ellipse id="Ellipse_2-22_1_" transform="matrix(2.535182e-06 1 -1 2.535182e-06 29.6159 -85.2832)" class="st3" cx="57.4" cy="-27.8" rx="7.5" ry="7.5"/>
		
			<ellipse id="Ellipse_3-26_1_" transform="matrix(2.535182e-06 1 -1 2.535182e-06 51.6318 -107.2992)" class="st3" cx="79.5" cy="-27.8" rx="7.5" ry="7.5"/>
	</g>
	<g id="Group_3-29_1_" transform="translate(132.123 22.021)">
		
			<ellipse id="Ellipse_1-23_1_" transform="matrix(2.535182e-06 1 -1 2.535182e-06 7.6009 -63.2682)" class="st3" cx="35.4" cy="-27.8" rx="7.5" ry="7.5"/>
		
			<ellipse id="Ellipse_2-23_1_" transform="matrix(2.535182e-06 1 -1 2.535182e-06 29.6159 -85.2832)" class="st3" cx="57.4" cy="-27.8" rx="7.5" ry="7.5"/>
		
			<ellipse id="Ellipse_3-27_1_" transform="matrix(2.535182e-06 1 -1 2.535182e-06 51.6318 -107.2992)" class="st3" cx="79.5" cy="-27.8" rx="7.5" ry="7.5"/>
	</g>
	<g id="Group_3-30_1_" transform="translate(132.123 0)">
		
			<ellipse id="Ellipse_1-24_1_" transform="matrix(2.535182e-06 1 -1 2.535182e-06 7.6009 -63.2682)" class="st3" cx="35.4" cy="-27.8" rx="7.5" ry="7.5"/>
		
			<ellipse id="Ellipse_2-24_1_" transform="matrix(2.535182e-06 1 -1 2.535182e-06 29.6159 -85.2832)" class="st3" cx="57.4" cy="-27.8" rx="7.5" ry="7.5"/>
	</g>
	<g id="Group_3-31_1_" transform="translate(198.185 22.021)">
		
			<ellipse id="Ellipse_1-25_1_" transform="matrix(2.535182e-06 1 -1 2.535182e-06 7.6009 -63.2682)" class="st3" cx="35.4" cy="-27.8" rx="7.5" ry="7.5"/>
	</g>
	<g id="Group_3-32_1_" transform="translate(198.185 0)">
		
			<ellipse id="Ellipse_1-26_1_" transform="matrix(2.535182e-06 1 -1 2.535182e-06 7.6009 -63.2682)" class="st3" cx="35.4" cy="-27.8" rx="7.5" ry="7.5"/>
	</g>
</g>
</svg>
