<?xml version="1.0" encoding="utf-8"?>
<!-- Generator: Adobe Illustrator 24.2.3, SVG Export Plug-In . SVG Version: 6.00 Build 0)  -->
<svg version="1.1" id="Layer_1" xmlns="http://www.w3.org/2000/svg" xmlns:xlink="http://www.w3.org/1999/xlink" x="0px" y="0px"
	 viewBox="0 0 313.1 239.7" style="enable-background:new 0 0 313.1 239.7;" xml:space="preserve">
<style type="text/css">
	.st0{fill:#004FB5;}
	.st1{opacity:0.6;}
	.st2{opacity:0.1;}
	.st3{fill:#33BDD4;}
	.st4{fill:#49A939;}
	.st5{fill:none;}
</style>
<g class="st1">
	<defs>
		<rect id="SVGID_1_" x="-364.8" y="-1282.9" class="st1" width="1955.4" height="736.5"/>
	</defs>
	<clipPath id="SVGID_2_">
		<use xlink:href="#SVGID_1_"  style="overflow:visible;"/>
	</clipPath>
	<g style="clip-path:url(#SVGID_2_);">
		
			<image style="overflow:visible;" width="5000" height="2771" xlink:href="../../../../_Brand Assets/Photography/Stock/GettyImages-1165053717-mono.jpg"  transform="matrix(0.6142 0 0 0.6142 -585.8303 -1633.6184)">
		</image>
	</g>
</g>
<g id="Group_1" transform="translate(-88.152 -282.883)" class="st2">
	<g id="Group_3_2_" transform="translate(88.152 282.883)">
		<circle id="Ellipse_1_2_" class="st3" cx="35.4" cy="42.8" r="7.5"/>
		<circle id="Ellipse_3_2_" class="st3" cx="79.5" cy="42.8" r="7.5"/>
	</g>
	<g id="Group_3-2_2_" transform="translate(110.167 304.903)">
		<circle id="Ellipse_2_2_" class="st3" cx="35.4" cy="42.8" r="7.5"/>
		<circle id="Ellipse_3-2_2_" class="st3" cx="57.5" cy="42.8" r="7.5"/>
	</g>
	<g id="Group_3-3_2_" transform="translate(154.214 282.883)">
		<circle id="Ellipse_1-2_2_" class="st3" cx="35.4" cy="42.8" r="7.5"/>
		<circle id="Ellipse_3-3_2_" class="st3" cx="79.5" cy="42.8" r="7.5"/>
	</g>
	<g id="Group_3-4_2_" transform="translate(154.214 304.903)">
		<circle id="Ellipse_1-3_2_" class="st3" cx="35.4" cy="42.8" r="7.5"/>
		<circle id="Ellipse_2-2_2_" class="st3" cx="57.4" cy="42.8" r="7.5"/>
		<circle id="Ellipse_3-4_2_" class="st3" cx="79.5" cy="42.8" r="7.5"/>
	</g>
	<g id="Group_3-5_2_" transform="translate(88.152 326.924)">
		<circle id="Ellipse_1-4_2_" class="st3" cx="35.4" cy="42.8" r="7.5"/>
		<circle id="Ellipse_2-3_2_" class="st3" cx="57.4" cy="42.8" r="7.5"/>
		<circle id="Ellipse_3-5_2_" class="st3" cx="79.5" cy="42.8" r="7.5"/>
	</g>
	<g id="Group_3-6_2_" transform="translate(88.152 348.944)">
		<circle id="Ellipse_1-5_2_" class="st3" cx="35.4" cy="42.8" r="7.5"/>
		<circle id="Ellipse_2-4_2_" class="st3" cx="57.4" cy="42.8" r="7.5"/>
		<circle id="Ellipse_3-6_2_" class="st3" cx="79.5" cy="42.8" r="7.5"/>
	</g>
	<g id="Group_3-7_2_" transform="translate(154.214 326.924)">
		<circle id="Ellipse_1-6_2_" class="st3" cx="35.4" cy="42.8" r="7.5"/>
		<circle id="Ellipse_2-5_2_" class="st3" cx="57.4" cy="42.8" r="7.5"/>
		<circle id="Ellipse_3-7_2_" class="st3" cx="79.5" cy="42.8" r="7.5"/>
	</g>
	<g id="Group_3-8_2_" transform="translate(154.214 348.944)">
		<circle id="Ellipse_1-7_2_" class="st3" cx="35.4" cy="42.8" r="7.5"/>
		<circle id="Ellipse_2-6_2_" class="st3" cx="57.4" cy="42.8" r="7.5"/>
		<circle id="Ellipse_3-8_2_" class="st3" cx="79.5" cy="42.8" r="7.5"/>
	</g>
	<g id="Group_3-9_2_" transform="translate(132.183 370.965)">
		<circle id="Ellipse_3-9_2_" class="st3" cx="35.4" cy="42.8" r="7.5"/>
	</g>
	<g id="Group_3-10_2_" transform="translate(88.152 392.986)">
		<circle id="Ellipse_1-8_2_" class="st3" cx="35.4" cy="42.8" r="7.5"/>
		<circle id="Ellipse_2-7_2_" class="st3" cx="57.4" cy="42.8" r="7.5"/>
		<circle id="Ellipse_3-10_2_" class="st3" cx="79.5" cy="42.8" r="7.5"/>
	</g>
	<g id="Group_3-11_2_" transform="translate(154.214 370.965)">
		<circle id="Ellipse_1-9_2_" class="st3" cx="35.4" cy="42.8" r="7.5"/>
		<circle id="Ellipse_2-8_2_" class="st3" cx="57.4" cy="42.8" r="7.5"/>
		<circle id="Ellipse_3-11_2_" class="st3" cx="79.5" cy="42.8" r="7.5"/>
	</g>
	<g id="Group_3-12_2_" transform="translate(154.214 392.986)">
		<circle id="Ellipse_1-10_2_" class="st3" cx="35.4" cy="42.8" r="7.5"/>
		<circle id="Ellipse_2-9_2_" class="st3" cx="57.4" cy="42.8" r="7.5"/>
		<circle id="Ellipse_3-12_2_" class="st3" cx="79.5" cy="42.8" r="7.5"/>
	</g>
	<g id="Group_3-13_2_" transform="translate(132.183 415.006)">
		<circle id="Ellipse_3-13_2_" class="st3" cx="35.4" cy="42.8" r="7.5"/>
	</g>
	<g id="Group_3-14_2_" transform="translate(132.183 437.027)">
		<circle id="Ellipse_3-14_2_" class="st3" cx="35.4" cy="42.8" r="7.5"/>
	</g>
	<g id="Group_3-15_2_" transform="translate(154.214 415.006)">
		<circle id="Ellipse_1-11_2_" class="st3" cx="35.4" cy="42.8" r="7.5"/>
		<circle id="Ellipse_2-10_2_" class="st3" cx="57.4" cy="42.8" r="7.5"/>
		<circle id="Ellipse_3-15_2_" class="st3" cx="79.5" cy="42.8" r="7.5"/>
	</g>
	<g id="Group_3-16_2_" transform="translate(176.229 437.027)">
		<circle id="Ellipse_2-11_2_" class="st3" cx="35.4" cy="42.8" r="7.5"/>
		<circle id="Ellipse_3-16_2_" class="st3" cx="57.5" cy="42.8" r="7.5"/>
	</g>
	<g id="Group_3-17_2_" transform="translate(242.291 282.883)">
		<circle id="Ellipse_2-12_2_" class="st3" cx="35.4" cy="42.8" r="7.5"/>
		<circle id="Ellipse_3-17_2_" class="st3" cx="57.5" cy="42.8" r="7.5"/>
	</g>
	<g id="Group_3-18_2_" transform="translate(220.275 304.903)">
		<circle id="Ellipse_1-12_2_" class="st3" cx="35.4" cy="42.8" r="7.5"/>
		<circle id="Ellipse_2-13_2_" class="st3" cx="57.4" cy="42.8" r="7.5"/>
		<circle id="Ellipse_3-18_2_" class="st3" cx="79.5" cy="42.8" r="7.5"/>
	</g>
	<g id="Group_3-19_2_" transform="translate(286.337 282.883)">
		<circle id="Ellipse_1-13_2_" class="st3" cx="35.4" cy="42.8" r="7.5"/>
		<circle id="Ellipse_3-19_2_" class="st3" cx="79.5" cy="42.8" r="7.5"/>
	</g>
	<g id="Group_3-20_2_" transform="translate(286.337 304.903)">
		<circle id="Ellipse_1-14_2_" class="st3" cx="35.4" cy="42.8" r="7.5"/>
		<circle id="Ellipse_2-14_2_" class="st3" cx="57.4" cy="42.8" r="7.5"/>
	</g>
	<g id="Group_3-21_2_" transform="translate(220.275 326.924)">
		<circle id="Ellipse_1-15_2_" class="st3" cx="35.4" cy="42.8" r="7.5"/>
		<circle id="Ellipse_2-15_2_" class="st3" cx="57.4" cy="42.8" r="7.5"/>
		<circle id="Ellipse_3-20_2_" class="st3" cx="79.5" cy="42.8" r="7.5"/>
	</g>
	<g id="Group_3-22_2_" transform="translate(220.275 348.944)">
		<circle id="Ellipse_1-16_2_" class="st3" cx="35.4" cy="42.8" r="7.5"/>
		<circle id="Ellipse_2-16_2_" class="st3" cx="57.4" cy="42.8" r="7.5"/>
		<circle id="Ellipse_3-21_2_" class="st3" cx="79.5" cy="42.8" r="7.5"/>
	</g>
	<g id="Group_3-23_2_" transform="translate(286.337 326.924)">
		<circle id="Ellipse_1-17_2_" class="st3" cx="35.4" cy="42.8" r="7.5"/>
		<circle id="Ellipse_2-17_2_" class="st3" cx="57.4" cy="42.8" r="7.5"/>
		<circle id="Ellipse_3-22_2_" class="st3" cx="79.5" cy="42.8" r="7.5"/>
	</g>
	<g id="Group_3-24_2_" transform="translate(286.337 348.944)">
		<circle id="Ellipse_1-18_2_" class="st3" cx="35.4" cy="42.8" r="7.5"/>
		<circle id="Ellipse_2-18_2_" class="st3" cx="57.4" cy="42.8" r="7.5"/>
	</g>
	<g id="Group_3-25_2_" transform="translate(220.275 370.965)">
		<circle id="Ellipse_1-19_2_" class="st3" cx="35.4" cy="42.8" r="7.5"/>
		<circle id="Ellipse_2-19_2_" class="st3" cx="57.4" cy="42.8" r="7.5"/>
		<circle id="Ellipse_3-23_2_" class="st3" cx="79.5" cy="42.8" r="7.5"/>
	</g>
	<g id="Group_3-26_2_" transform="translate(220.275 392.986)">
		<circle id="Ellipse_1-20_2_" class="st3" cx="35.4" cy="42.8" r="7.5"/>
		<circle id="Ellipse_2-20_2_" class="st3" cx="57.4" cy="42.8" r="7.5"/>
		<circle id="Ellipse_3-24_2_" class="st3" cx="79.5" cy="42.8" r="7.5"/>
	</g>
	<g id="Group_3-27_2_" transform="translate(286.337 370.965)">
		<circle id="Ellipse_1-21_2_" class="st3" cx="35.4" cy="42.8" r="7.5"/>
		<circle id="Ellipse_2-21_2_" class="st3" cx="57.4" cy="42.8" r="7.5"/>
		<circle id="Ellipse_3-25_2_" class="st3" cx="79.5" cy="42.8" r="7.5"/>
	</g>
	<g id="Group_3-28_2_" transform="translate(286.337 392.986)">
		<circle id="Ellipse_1-22_2_" class="st3" cx="35.4" cy="42.8" r="7.5"/>
		<circle id="Ellipse_2-22_2_" class="st3" cx="57.4" cy="42.8" r="7.5"/>
		<circle id="Ellipse_3-26_2_" class="st3" cx="79.5" cy="42.8" r="7.5"/>
	</g>
	<g id="Group_3-29_2_" transform="translate(220.275 415.006)">
		<circle id="Ellipse_1-23_2_" class="st3" cx="35.4" cy="42.8" r="7.5"/>
		<circle id="Ellipse_2-23_2_" class="st3" cx="57.4" cy="42.8" r="7.5"/>
		<circle id="Ellipse_3-27_2_" class="st3" cx="79.5" cy="42.8" r="7.5"/>
	</g>
	<g id="Group_3-30_2_" transform="translate(220.275 437.027)">
		<circle id="Ellipse_1-24_2_" class="st3" cx="35.4" cy="42.8" r="7.5"/>
		<circle id="Ellipse_2-24_2_" class="st3" cx="57.4" cy="42.8" r="7.5"/>
	</g>
	<g id="Group_3-31_2_" transform="translate(286.337 415.006)">
		<circle id="Ellipse_1-25_2_" class="st3" cx="35.4" cy="42.8" r="7.5"/>
	</g>
	<g id="Group_3-32_2_" transform="translate(286.337 437.027)">
		<circle id="Ellipse_1-26_2_" class="st3" cx="35.4" cy="42.8" r="7.5"/>
	</g>
</g>
</svg>
