<svg xmlns="http://www.w3.org/2000/svg" viewBox="0 0 388 388"><defs><style>.cls-1{fill:#294199}</style></defs><g id="Layer_2" data-name="Layer 2"><g id="Lungs"><path class="cls-1" d="M144.89 177l-4.35-12.68a192.26 192.26 0 0 1 27.06-6.68c-.14-4.41-.33-7.93-.59-10.14-1.37-11.69-8.07-21.78-17.49-26.33a22.41 22.41 0 0 0-9.83-2.36 20.55 20.55 0 0 0-10.88 3.16c-13 8-22.68 18.84-29.71 33.12-14.14 28.74-19.2 62.31-15 99.77 1.17 10.53 4.73 18 10.87 22.82a23.08 23.08 0 0 0 16.33 5c8.12-.48 17.71-1.16 27.34-2.65 4.35-.67 9.9-1.76 14.16-4.24 9.55-5.56 14.4-15.41 14.41-29.27v-.13c0-.61.91-45.27.65-75.12a180.73 180.73 0 0 0-22.97 5.73zm114.3-55.06a20.55 20.55 0 0 0-10.88-3.16 22.41 22.41 0 0 0-9.83 2.36c-9.42 4.55-16.12 14.64-17.49 26.33-.26 2.23-.45 5.78-.59 10.24a205.57 205.57 0 0 1 27 6.56L243.17 177a191.93 191.93 0 0 0-23-5.69c-.25 29.85.64 74.41.65 75v.13c0 13.86 4.85 23.71 14.4 29.27 4.26 2.48 9.81 3.57 14.16 4.24 9.63 1.49 19.22 2.17 27.34 2.65a23.16 23.16 0 0 0 16.33-5c6.14-4.83 9.7-12.29 10.87-22.82 4.18-37.46-.88-71-15-99.77-7.05-14.23-16.77-25.01-29.73-33.07z"/><path class="cls-1" d="M194 0C86.86 0 0 86.86 0 194s86.86 194 194 194 194-86.86 194-194S301.14 0 194 0zm123.24 256.32c-1.57 14.08-6.92 24.8-15.91 31.86a36.17 36.17 0 0 1-22.89 7.88c-.83 0-1.67 0-2.51-.07-8.42-.5-18.41-1.22-28.59-2.79-5.52-.85-12.66-2.29-18.86-5.9-13.76-8-21-22.1-21.06-40.77-.07-3.15-.95-47.55-.63-77.19a125.34 125.34 0 0 0-13.18-.74 121.09 121.09 0 0 0-12.4.67c.32 29.64-.56 74.11-.62 77.26 0 18.67-7.31 32.77-21.07 40.77-6.2 3.61-13.34 5.05-18.86 5.9-10.18 1.57-20.17 2.29-28.59 2.79-.84 0-1.68.07-2.51.07a36.17 36.17 0 0 1-22.89-7.88c-9-7.06-14.34-17.78-15.91-31.86-4.46-40 1-76.11 16.32-107.18a92.55 92.55 0 0 1 34.69-38.6c10.21-6.32 22.45-6.85 33.58-1.47 13.5 6.53 23.07 20.65 25 36.84.26 2.25.46 5.67.61 9.91q3.15-.3 6.37-.46V91.94h13.4v63.46c2.14.12 4.27.29 6.37.49.15-4.27.34-7.72.61-10 1.9-16.19 11.47-30.31 25-36.84a34.33 34.33 0 0 1 33.58 1.47 92.55 92.55 0 0 1 34.69 38.6c15.23 31.09 20.72 67.15 16.26 107.2z"/></g></g></svg>