<?xml version="1.0" standalone="no"?>
<!DOCTYPE svg PUBLIC "-//W3C//DTD SVG 20010904//EN"
 "http://www.w3.org/TR/2001/REC-SVG-20010904/DTD/svg10.dtd">
<svg version="1.0" xmlns="http://www.w3.org/2000/svg"
 width="700.000000pt" height="700.000000pt" viewBox="0 0 700.000000 700.000000"
 preserveAspectRatio="xMidYMid meet">
<metadata>
Created by potrace 1.11, written by Peter Selinger 2001-2013
</metadata>
<g transform="translate(0.000000,700.000000) scale(0.100000,-0.100000)"
fill="#000000" stroke="none">
<path d="M1565 4113 c-48 -10 -153 -48 -185 -66 -193 -106 -316 -304 -324
-520 -5 -114 15 -203 66 -306 159 -318 549 -434 862 -256 62 35 153 116 192
171 49 68 94 174 110 258 6 35 7 150 1 196 -32 230 -203 430 -430 502 -59 19
-242 32 -292 21z"/>
<path d="M3363 4105 c-219 -49 -410 -236 -467 -458 -23 -90 -15 -254 16 -343
95 -271 340 -436 623 -421 282 16 508 209 570 487 17 78 18 187 3 255 -6 22
-11 48 -13 58 -3 11 -21 53 -42 95 -27 56 -58 98 -113 153 -93 93 -184 146
-305 176 -52 12 -214 12 -272 -2z"/>
<path d="M5173 4100 c-278 -73 -466 -317 -465 -602 1 -147 48 -280 135 -386
291 -354 853 -288 1042 123 81 175 81 376 -1 537 -77 152 -200 260 -357 315
-99 34 -252 40 -354 13z"/>
</g>
</svg>
