<svg xmlns="http://www.w3.org/2000/svg" viewBox="0 0 1241.02 257.49"><defs><style>.cls-1{fill:#fff;}</style></defs><title>CRI-Southern-Oregon-reversed</title><g id="Layer_2" data-name="Layer 2"><g id="Layer_1-2" data-name="Layer 1"><path class="cls-1" d="M312.39,56q-10.59,0-16.67,6.78t-6.09,18.56q0,12,5.74,18.71t16.41,6.67a44.61,44.61,0,0,0,13-1.81v3.46a42.43,42.43,0,0,1-13.94,2q-11.87,0-18.67-7.67T285.36,81.3a33.55,33.55,0,0,1,3.25-15.13A23.61,23.61,0,0,1,298,56.06a27.69,27.69,0,0,1,14.19-3.56,34.14,34.14,0,0,1,14.75,3.08l-1.58,3.54A28.62,28.62,0,0,0,312.39,56Z"/><path class="cls-1" d="M342.56,109.61h-3.81V49.69h3.81Z"/><path class="cls-1" d="M358.4,56.12q0-3.7,2.43-3.7a2.17,2.17,0,0,1,1.87,1,4.76,4.76,0,0,1,.67,2.74,4.82,4.82,0,0,1-.67,2.73,2.14,2.14,0,0,1-1.87,1Q358.4,59.85,358.4,56.12Zm4.36,53.49h-3.82V67.75h3.82Z"/><path class="cls-1" d="M408.33,109.61V82.46q0-6.31-2.66-9.19t-8.24-2.87q-7.51,0-11,3.8T383,86.5v23.11h-3.81V67.75h3.23l.73,5.74h.23q4.1-6.55,14.52-6.55,14.25,0,14.25,15.29v27.38Z"/><path class="cls-1" d="M427.48,56.12q0-3.7,2.43-3.7a2.14,2.14,0,0,1,1.86,1,4.76,4.76,0,0,1,.68,2.74,4.81,4.81,0,0,1-.68,2.73,2.11,2.11,0,0,1-1.86,1Q427.48,59.85,427.48,56.12Zm4.35,53.49H428V67.75h3.81Z"/><path class="cls-1" d="M464.93,110.38q-9,0-14.06-5.67t-5.08-15.78q0-10.4,5.27-16.2t14.45-5.79a29,29,0,0,1,10.39,1.89l-1,3.38a30.69,30.69,0,0,0-9.43-1.81q-7.71,0-11.67,4.76t-4,13.69q0,8.48,4,13.27t11.09,4.79a27.23,27.23,0,0,0,10.59-2v3.54A24,24,0,0,1,464.93,110.38Z"/><path class="cls-1" d="M513.46,109.61l-1-6.63h-.31a19.73,19.73,0,0,1-6.49,5.72,17.26,17.26,0,0,1-7.87,1.68q-6.16,0-9.59-3.16t-3.43-8.74A10.79,10.79,0,0,1,489.92,89q5.1-3.39,14.76-3.59l8-.23V82.38q0-6-2.43-9c-1.62-2-4.22-3-7.82-3a26.23,26.23,0,0,0-12.05,3.23l-1.43-3.31A31.86,31.86,0,0,1,502.57,67q6.89,0,10.3,3.58t3.41,11.16v27.85Zm-15.4-2.7q6.7,0,10.57-3.83c2.58-2.56,3.87-6.1,3.87-10.65V88.31l-7.32.31q-8.81.42-12.57,2.75a8,8,0,0,0-3.75,7.26,7.81,7.81,0,0,0,2.4,6.1C492.87,106.19,495.13,106.91,498.06,106.91Z"/><path class="cls-1" d="M536,109.61H532.2V49.69H536Z"/><path class="cls-1" d="M580.13,85.08v24.53h-3.92V53.31h13.4q10.47,0,15.48,3.87t5,11.65a15.24,15.24,0,0,1-3,9.55q-3,3.89-9.07,5.58l15.29,25.65h-4.7L594.11,85.08Zm0-3.39h10.75q7.13,0,11-3.18t3.93-9.38q0-6.42-3.85-9.35t-12.56-2.93h-9.32Z"/><path class="cls-1" d="M641.38,110.38q-9.14,0-14.23-5.63T622.05,89q0-10,4.92-16a16.28,16.28,0,0,1,13.29-6q7.4,0,11.67,5.16t4.27,14V89.2H626.05q.08,8.63,4,13.17t11.3,4.54a35.4,35.4,0,0,0,6.29-.5,37.74,37.74,0,0,0,6.88-2.16v3.47a30.58,30.58,0,0,1-6.55,2.1A36.5,36.5,0,0,1,641.38,110.38Zm-1.12-40a12.54,12.54,0,0,0-9.7,4q-3.66,4-4.28,11.5h25.88q0-7.28-3.16-11.38A10.42,10.42,0,0,0,640.26,70.33Z"/><path class="cls-1" d="M696.07,98.71a9.93,9.93,0,0,1-4.27,8.64q-4.27,3-12.13,3-8.4,0-13.32-2.58v-4.12a29.46,29.46,0,0,0,13.32,3.15c4.13,0,7.27-.68,9.42-2.06a6.26,6.26,0,0,0,3.21-5.48A6.69,6.69,0,0,0,689.74,94a28,28,0,0,0-8.41-4.23,48.33,48.33,0,0,1-8.82-3.91,12.15,12.15,0,0,1-3.83-3.7,9.28,9.28,0,0,1-1.29-5,8.59,8.59,0,0,1,3.94-7.44q3.95-2.73,11-2.73a33.15,33.15,0,0,1,12.86,2.54L693.8,73a30,30,0,0,0-11.43-2.55,16.55,16.55,0,0,0-8.13,1.7,5.2,5.2,0,0,0-3,4.7A6.47,6.47,0,0,0,673.57,82q2.32,2,9.1,4.39a44.6,44.6,0,0,1,8.24,3.68,11.94,11.94,0,0,1,3.87,3.72A9.06,9.06,0,0,1,696.07,98.71Z"/><path class="cls-1" d="M726.13,110.38q-9.14,0-14.23-5.63T706.8,89q0-10,4.93-16a16.25,16.25,0,0,1,13.28-6q7.4,0,11.67,5.16t4.27,14V89.2H710.8q.08,8.63,4,13.17t11.3,4.54a35.32,35.32,0,0,0,6.29-.5,37.74,37.74,0,0,0,6.88-2.16v3.47a30.58,30.58,0,0,1-6.55,2.1A36.5,36.5,0,0,1,726.13,110.38Zm-1.12-40a12.55,12.55,0,0,0-9.7,4q-3.66,4-4.28,11.5h25.88q0-7.28-3.16-11.38A10.42,10.42,0,0,0,725,70.33Z"/><path class="cls-1" d="M780.29,109.61l-1-6.63H779a19.93,19.93,0,0,1-6.49,5.72,17.31,17.31,0,0,1-7.88,1.68q-6.17,0-9.59-3.16t-3.42-8.74a10.78,10.78,0,0,1,5.1-9.51q5.1-3.39,14.77-3.59l8-.23V82.38q0-6-2.43-9c-1.62-2-4.22-3-7.82-3a26.23,26.23,0,0,0-12.05,3.23l-1.42-3.31A31.82,31.82,0,0,1,769.39,67q6.89,0,10.3,3.58t3.41,11.16v27.85Zm-15.41-2.7q6.71,0,10.57-3.83c2.58-2.56,3.87-6.1,3.87-10.65V88.31l-7.31.31q-8.82.42-12.58,2.75a8,8,0,0,0-3.75,7.26,7.78,7.78,0,0,0,2.41,6.1C759.69,106.19,762,106.91,764.88,106.91Z"/><path class="cls-1" d="M815.5,66.94a32.74,32.74,0,0,1,5.7.54l-.73,3.66a22.18,22.18,0,0,0-5.43-.66A10.54,10.54,0,0,0,806.26,75a18.48,18.48,0,0,0-3.43,11.47v23.11H799V67.75h3.23l.39,7.55h.27a17.63,17.63,0,0,1,5.5-6.49A12.88,12.88,0,0,1,815.5,66.94Z"/><path class="cls-1" d="M848.79,110.38q-9,0-14.06-5.67t-5.08-15.78q0-10.4,5.27-16.2t14.44-5.79a29,29,0,0,1,10.4,1.89l-1,3.38a30.69,30.69,0,0,0-9.43-1.81q-7.71,0-11.67,4.76t-4,13.69q0,8.48,4,13.27t11.09,4.79a27.23,27.23,0,0,0,10.59-2v3.54A24,24,0,0,1,848.79,110.38Z"/><path class="cls-1" d="M901.1,109.61V82.46q0-6.31-2.66-9.19T890.2,70.4q-7.51,0-11,3.8t-3.48,12.3v23.11h-3.81V49.69h3.81V68.75l-.19,5.35h.27a14,14,0,0,1,5.93-5.47,20.7,20.7,0,0,1,8.89-1.69q14.25,0,14.25,15.29v27.38Z"/><path class="cls-1" d="M944.6,109.61V53.31h3.93v56.3Z"/><path class="cls-1" d="M995.07,109.61V82.46q0-6.31-2.66-9.19t-8.24-2.87q-7.51,0-11,3.8t-3.49,12.3v23.11h-3.81V67.75h3.23l.73,5.74h.24q4.08-6.55,14.51-6.55,14.25,0,14.25,15.29v27.38Z"/><path class="cls-1" d="M1040.72,98.71a9.94,9.94,0,0,1-4.28,8.64q-4.28,3-12.13,3-8.4,0-13.32-2.58v-4.12a29.46,29.46,0,0,0,13.32,3.15c4.13,0,7.27-.68,9.42-2.06a6.26,6.26,0,0,0,3.21-5.48,6.69,6.69,0,0,0-2.56-5.32,28,28,0,0,0-8.41-4.23,48.33,48.33,0,0,1-8.82-3.91,12.15,12.15,0,0,1-3.83-3.7,9.28,9.28,0,0,1-1.29-5,8.59,8.59,0,0,1,3.94-7.44q3.94-2.73,11-2.73a33.15,33.15,0,0,1,12.86,2.54L1038.44,73A30,30,0,0,0,1027,70.4a16.55,16.55,0,0,0-8.13,1.7,5.2,5.2,0,0,0-3,4.7,6.47,6.47,0,0,0,2.33,5.23q2.32,2,9.1,4.39a45.08,45.08,0,0,1,8.25,3.68,12.14,12.14,0,0,1,3.87,3.72A9.14,9.14,0,0,1,1040.72,98.71Z"/><path class="cls-1" d="M1064.91,107a28.64,28.64,0,0,0,6.32-.62v3.08a20.09,20.09,0,0,1-6.39.93q-5.55,0-8.19-3c-1.75-2-2.63-5.08-2.63-9.32v-27h-6.2V68.83l6.2-1.74,1.92-9.47h2V67.75h12.28v3.31h-12.28V97.55q0,4.82,1.69,7.13A6.15,6.15,0,0,0,1064.91,107Z"/><path class="cls-1" d="M1082.11,56.12q0-3.7,2.42-3.7a2.16,2.16,0,0,1,1.87,1,4.76,4.76,0,0,1,.67,2.74,4.82,4.82,0,0,1-.67,2.73,2.12,2.12,0,0,1-1.87,1Q1082.12,59.85,1082.11,56.12Zm4.35,53.49h-3.81V67.75h3.81Z"/><path class="cls-1" d="M1113.89,107a28.71,28.71,0,0,0,6.32-.62v3.08a20.12,20.12,0,0,1-6.4.93q-5.54,0-8.18-3c-1.76-2-2.64-5.08-2.64-9.32v-27h-6.2V68.83l6.2-1.74,1.93-9.47h2V67.75h12.29v3.31h-12.29V97.55q0,4.82,1.7,7.13A6.15,6.15,0,0,0,1113.89,107Z"/><path class="cls-1" d="M1134.93,67.75V94.86q0,6.31,2.66,9.18t8.24,2.87q7.47,0,11-3.77t3.52-12.29V67.75h3.77v41.86h-3.23l-.7-5.78H1160q-4.08,6.54-14.51,6.55-14.29,0-14.29-15.29V67.75Z"/><path class="cls-1" d="M1191.56,107a28.61,28.61,0,0,0,6.31-.62v3.08a20.09,20.09,0,0,1-6.39.93c-3.7,0-6.42-1-8.18-3s-2.64-5.08-2.64-9.32v-27h-6.2V68.83l6.2-1.74,1.92-9.47h2V67.75h12.28v3.31h-12.28V97.55q0,4.82,1.69,7.13A6.15,6.15,0,0,0,1191.56,107Z"/><path class="cls-1" d="M1226.19,110.38q-9.12,0-14.23-5.63T1206.86,89q0-10,4.93-16a16.27,16.27,0,0,1,13.29-6q7.38,0,11.66,5.16t4.28,14V89.2h-30.15q.08,8.63,4,13.17t11.3,4.54a35.43,35.43,0,0,0,6.3-.5,37.44,37.44,0,0,0,6.87-2.16v3.47a30.23,30.23,0,0,1-6.55,2.1A36.5,36.5,0,0,1,1226.19,110.38Zm-1.11-40a12.56,12.56,0,0,0-9.71,4q-3.66,4-4.27,11.5H1237q0-7.28-3.15-11.38A10.43,10.43,0,0,0,1225.08,70.33Z"/><path class="cls-1" d="M322,183.25q0,10.25-5,16T303.34,205a17.67,17.67,0,0,1-9.7-2.66,17,17,0,0,1-6.43-7.62A27.73,27.73,0,0,1,285,183.25q0-10.23,5-16t13.63-5.72q8.63,0,13.54,5.8T322,183.25Zm-33,0q0,8.64,3.79,13.46t10.73,4.84q6.93,0,10.72-4.84T318,183.25q0-8.66-3.83-13.43T303.42,165q-6.93,0-10.69,4.76T289,183.25Z"/><path class="cls-1" d="M351.53,165.7h-9.86v38.54h-3.81V165.7h-7.78v-2.24l7.78-1.42V158.8q0-7.7,2.83-11.3t9.26-3.6a24.11,24.11,0,0,1,6.93,1l-.88,3.31a20.54,20.54,0,0,0-6.12-1q-4.47,0-6.34,2.64c-1.24,1.76-1.87,4.61-1.87,8.56v3.89h9.86Z"/><path class="cls-1" d="M416.87,189.72a13.52,13.52,0,0,1-5.17,11.17Q406.51,205,397.93,205q-10.32,0-15.83-2.27v-3.93q6.09,2.58,15.52,2.58,6.93,0,11-3.18a10.07,10.07,0,0,0,4.06-8.33,9.63,9.63,0,0,0-1.35-5.3,12.33,12.33,0,0,0-4.39-3.83A54.53,54.53,0,0,0,398,177q-8.62-3-11.92-6.42a13.74,13.74,0,0,1,1.65-19.48q5-4,12.73-4a37.26,37.26,0,0,1,14.9,3L414,153.53a34.78,34.78,0,0,0-13.4-2.93q-6.24,0-9.94,2.89a9.43,9.43,0,0,0-3.69,7.85,10.31,10.31,0,0,0,1.13,5.13,10.56,10.56,0,0,0,3.72,3.6,51.44,51.44,0,0,0,8.85,3.83,47.07,47.07,0,0,1,9.9,4.41,14,14,0,0,1,4.83,4.85A13.18,13.18,0,0,1,416.87,189.72Z"/><path class="cls-1" d="M464.79,183.25q0,10.25-5,16T446.12,205a17.71,17.71,0,0,1-9.71-2.66,17,17,0,0,1-6.43-7.62,27.73,27.73,0,0,1-2.23-11.48q0-10.23,5-16t13.63-5.72q8.63,0,13.54,5.8T464.79,183.25Zm-33,0q0,8.64,3.79,13.46t10.72,4.84q6.93,0,10.73-4.84t3.79-13.46q0-8.66-3.83-13.43T446.2,165q-6.93,0-10.69,4.76T431.76,183.25Z"/><path class="cls-1" d="M482.06,162.38v27.11q0,6.31,2.66,9.19t8.24,2.87q7.47,0,11-3.78t3.53-12.28V162.38h3.77v41.86H508l-.7-5.78h-.23Q503,205,492.58,205q-14.29,0-14.29-15.29V162.38Z"/><path class="cls-1" d="M538.69,201.62A28.66,28.66,0,0,0,545,201v3.08a20.39,20.39,0,0,1-6.39.92q-5.55,0-8.18-3t-2.64-9.32v-27h-6.2v-2.24l6.2-1.73,1.92-9.47h2v10.12H544v3.32H531.68v26.49q0,4.81,1.69,7.12A6.15,6.15,0,0,0,538.69,201.62Z"/><path class="cls-1" d="M585.61,204.24V177.09q0-6.32-2.66-9.18T574.71,165q-7.51,0-11,3.79t-3.48,12.31v23.1h-3.81V144.32h3.81v19.06l-.19,5.36h.27a14,14,0,0,1,5.93-5.47,20.7,20.7,0,0,1,8.89-1.7q14.25,0,14.25,15.29v27.38Z"/><path class="cls-1" d="M622.2,205q-9.12,0-14.22-5.62t-5.11-15.75q0-10,4.93-16a16.28,16.28,0,0,1,13.29-6q7.39,0,11.67,5.17t4.27,14v3.08H606.88q.07,8.63,4,13.17t11.3,4.55a34.45,34.45,0,0,0,6.3-.51,38.08,38.08,0,0,0,6.87-2.15v3.46a30.33,30.33,0,0,1-6.54,2.1A36.53,36.53,0,0,1,622.2,205Zm-1.11-40a12.55,12.55,0,0,0-9.71,4q-3.66,4-4.27,11.49H633q0-7.27-3.16-11.38A10.43,10.43,0,0,0,621.09,165Z"/><path class="cls-1" d="M667.43,161.57a32.74,32.74,0,0,1,5.7.54l-.73,3.66a22.68,22.68,0,0,0-5.43-.65,10.53,10.53,0,0,0-8.78,4.54,18.51,18.51,0,0,0-3.43,11.48v23.1H651V162.38h3.23l.39,7.55h.27a17.8,17.8,0,0,1,5.5-6.49A13,13,0,0,1,667.43,161.57Z"/><path class="cls-1" d="M713.19,204.24V177.09q0-6.32-2.65-9.18T702.3,165q-7.51,0-11,3.79t-3.48,12.31v23.1H684V162.38h3.24l.73,5.74h.23q4.08-6.54,14.52-6.55,14.25,0,14.25,15.29v27.38Z"/><path class="cls-1" d="M804,176q0,13.39-6.7,21.19T778.84,205q-11.75,0-18.44-7.8t-6.7-21.27q0-13.44,6.76-21.16t18.46-7.72q11.79,0,18.45,7.76T804,176ZM758,176q0,12.09,5.39,18.69t15.48,6.6q10.17,0,15.54-6.54T799.75,176q0-12.18-5.37-18.66t-15.46-6.49q-10,0-15.5,6.55T758,176Z"/><path class="cls-1" d="M834.85,161.57a32.74,32.74,0,0,1,5.7.54l-.73,3.66a22.68,22.68,0,0,0-5.43-.65,10.53,10.53,0,0,0-8.78,4.54,18.51,18.51,0,0,0-3.43,11.48v23.1h-3.81V162.38h3.23l.39,7.55h.27a17.72,17.72,0,0,1,5.51-6.49A12.93,12.93,0,0,1,834.85,161.57Z"/><path class="cls-1" d="M868.33,205q-9.12,0-14.23-5.62T849,183.64q0-10,4.93-16a16.25,16.25,0,0,1,13.28-6q7.39,0,11.67,5.17t4.28,14v3.08H853q.09,8.63,4,13.17t11.3,4.55a34.45,34.45,0,0,0,6.3-.51,38.08,38.08,0,0,0,6.87-2.15v3.46a30.23,30.23,0,0,1-6.55,2.1A36.5,36.5,0,0,1,868.33,205Zm-1.12-40a12.53,12.53,0,0,0-9.7,4q-3.66,4-4.27,11.49h25.87q0-7.27-3.15-11.38A10.44,10.44,0,0,0,867.21,165Z"/><path class="cls-1" d="M929.73,162.38V165l-8.67.54a14.78,14.78,0,0,1,3.47,9.47,12.79,12.79,0,0,1-4,9.8q-4,3.77-10.81,3.76a23.88,23.88,0,0,1-4-.23,9.88,9.88,0,0,0-3.47,2.81,5.71,5.71,0,0,0-1.19,3.42,3.18,3.18,0,0,0,1.52,2.93,10.35,10.35,0,0,0,5.1.92H915q6.81,0,10.44,2.76c2.41,1.83,3.62,4.55,3.62,8.14a11.61,11.61,0,0,1-5.38,10.23q-5.37,3.6-15.3,3.6-7.9,0-12.23-3.05a9.75,9.75,0,0,1-4.33-8.47,10.07,10.07,0,0,1,2.67-7.16,13.89,13.89,0,0,1,7.26-3.89,7.37,7.37,0,0,1-3-2.29,5.43,5.43,0,0,1-1.14-3.41q0-4.2,5.36-7.39a11.94,11.94,0,0,1-5.7-4.72,13.45,13.45,0,0,1-2-7.37,13.27,13.27,0,0,1,4-10.07q4-3.8,10.77-3.8a19.85,19.85,0,0,1,6.39.81Zm-33.89,49q0,8.63,12.83,8.62,16.47,0,16.48-10.51,0-3.78-2.58-5.47t-8.36-1.69h-6.85Q895.84,202.28,895.84,211.33Zm3.2-35.89A9.68,9.68,0,0,0,902,183a11.3,11.3,0,0,0,7.88,2.67q5.24,0,8-2.65c1.86-1.78,2.79-4.34,2.79-7.71q0-5.34-2.87-8t-8-2.67a10.59,10.59,0,0,0-7.87,2.87C900,169.36,899,172,899,175.44Z"/><path class="cls-1" d="M975.3,183.25q0,10.25-5,16T956.62,205a17.67,17.67,0,0,1-9.7-2.66,17,17,0,0,1-6.43-7.62,27.73,27.73,0,0,1-2.23-11.48q0-10.23,5-16t13.63-5.72q8.63,0,13.54,5.8T975.3,183.25Zm-33,0q0,8.64,3.79,13.46t10.73,4.84q6.93,0,10.72-4.84t3.8-13.46q0-8.66-3.84-13.43T956.7,165q-6.93,0-10.68,4.76T942.26,183.25Z"/><path class="cls-1" d="M1018.45,204.24V177.09q0-6.32-2.66-9.18t-8.24-2.87q-7.51,0-11,3.79t-3.48,12.31v23.1h-3.81V162.38h3.23l.73,5.74h.23q4.09-6.54,14.52-6.55,14.25,0,14.25,15.29v27.38Z"/><path class="cls-1" d="M241.05,128.74c0-.5,0-1,0-1.5h-15.7a10,10,0,0,1,1.11-3.55,2.22,2.22,0,0,0-.48-3.06,4.86,4.86,0,0,0-.88-.56,3.64,3.64,0,0,1-.82-.54c-.22-.21-.71-1-.71-4.29a5.29,5.29,0,0,0-.37-1.7,9,9,0,0,1,1.92.59c1,.49,2.22,1.24,3.44,2s2.53,1.52,3.56,2a10,10,0,0,0,5.45,1.11,11.22,11.22,0,0,1,3.2,1.28c-.05-.78-.12-1.55-.2-2.32a8.61,8.61,0,0,0-3-1,8.09,8.09,0,0,1-4.55-.89c-1-.49-2.22-1.24-3.44-2s-2.53-1.52-3.56-2a15,15,0,0,0-3.34-1l-.31-.07c-.27-.71-.56-1.49-.85-2.37a5.45,5.45,0,0,1-.22-.81,1.28,1.28,0,0,0,.49-.62,2.15,2.15,0,0,0-.33-1.7,9.64,9.64,0,0,0-1.2-1.82,2.17,2.17,0,0,1-.69-1.73V100a13.39,13.39,0,0,1,2.29,1,13.33,13.33,0,0,0,1.23,1,8.45,8.45,0,0,1,2.59,2.72c1.23,2.46,4.69,4.54,7.57,5.5l6.63,2.21c-.1-.75-.21-1.49-.35-2.23a112.52,112.52,0,0,0-220.17-8.53c-.23.93-.45,1.86-.65,2.8A73.23,73.23,0,0,0,25.26,100l8-8c.16-.16,1.52-1.21,12.74-6.82.56-.28,1.34-.58,2.16-.89l.55-.21A16.61,16.61,0,0,0,54.26,81c1.24-1.24,5.13-1.71,7.29-1.71H62l8.11-8.11,6.75-1.93,6.28-4.13,11-10.92L97.26,51A28.82,28.82,0,0,1,102,48.13l.14-.07.61-.6L109.92,51c4.88,5.85,6.06,6.18,6.55,6.2.24.09,1.38.71,5.37,4.71,2.16,2.16,2.67,3,2.71,3.29,0,1.28,1.6,3,2.29,3.71l.16.15,8,3,11,10,7,2,6,5,11.83,3,6.88,10.82.15.11c2,1.46,4.5,3.2,5.6,3.2a16.39,16.39,0,0,1,5,1.3,5.83,5.83,0,0,0,2.28,2.72,14.48,14.48,0,0,1-1.57,2,11.55,11.55,0,0,0-5.45,2.28L179,119.36c-1.78.59-6,1.88-7.46,1.88-2,0-6.16,0-9.32,1.05a5.58,5.58,0,0,1-1.4.36c-.57,0-.78.09-3.51,1.49v-23.4H146.73L129.32,83.33,117,95.64l-7.79-3.21-2-3-.23-.11a13.53,13.53,0,0,1-3.46-2.26l0-.58-.61-.26c-.44-.18-1.1-.45-8.84,3.61l-1.13.59C89,92.53,84,95.38,82.84,96.53c-.78.79-1.83,2.12-2.94,3.52-1.58,2-3.74,4.77-4.8,5.3-2.24,1.12-8.89,3.89-10.55,3.89-2.32,0-18.7,6.23-20.45,7.11a10,10,0,0,0-3.29,3.44c-1.07-.45-2.16-.87-3.19-1.25s-1.73-.59-2.49-.81a21.93,21.93,0,0,1,.4-3.29l.15-.75-.68-.34a4.07,4.07,0,0,1-1.45-1.11,1.69,1.69,0,0,0-1-1.63,2.62,2.62,0,0,0-2.73.92,4.89,4.89,0,0,1-.91.68,2.29,2.29,0,0,0-1.38,2,8.31,8.31,0,0,1-.89,1.94l-1.14-.29a16.61,16.61,0,0,0-3-.64,52.44,52.44,0,0,0-5.83,1.2c-.08.7-.15,1.39-.2,2.1,2.93-.7,5.56-1.28,6-1.3a24.23,24.23,0,0,1,2.46.58l.63.16c-.35.63-.71,1.25-1,1.81l-2,4a5.7,5.7,0,0,0-.61,2.83c0,.6,0,.72-.21.91L18.41,131l1.17,3.51c.43,1.7.55,3.68.26,4.05a8.69,8.69,0,0,0-2.28,4.55,3.2,3.2,0,0,1-.53.54q.15,1.15.33,2.31c2.19-1.67,2.19-2.37,2.19-2.69A6.7,6.7,0,0,1,21.26,140c1.26-1.27.6-4.59.24-6l-.81-2.41L23.26,129a2.94,2.94,0,0,0,.79-2.33,3.8,3.8,0,0,1,.39-1.93l2-4c.33-.64.77-1.42,1.2-2.18,0,0,0,0,0,0,.4-.7.74-1.31,1-1.84a5.66,5.66,0,0,0,.87-2.43,2.76,2.76,0,0,1,.45-.31,6.9,6.9,0,0,0,1.27-1,1.64,1.64,0,0,1,.34-.29,4,4,0,0,0,1.84,2.1,20.91,20.91,0,0,0-.31,2.52,9.57,9.57,0,0,0,0,2,2.84,2.84,0,0,0,.66,1.65,6.7,6.7,0,0,1,1.71,3.29,2.29,2.29,0,0,0,1.38,2l.15.09a4.35,4.35,0,0,1,.76.59c.46.46.71,2.21.71,3.29v.62l.55.27a4.07,4.07,0,0,1,1.45,1.11,15.48,15.48,0,0,1-.47,2.26,15.08,15.08,0,0,0-.53,2.64l-.22.28a2,2,0,0,0-.59,2c.32.87,1.33,1.38,3.61,1.84,3,.59,3.27,1.11,3.28,1.12a1.47,1.47,0,0,1,0,.33,3.66,3.66,0,0,0-.05.57,8.28,8.28,0,0,0,.55,2.32,7.9,7.9,0,0,1,.45,1.68c0,1.17,1.11,2,2.18,2.8a10.23,10.23,0,0,1,1.11.91,5.58,5.58,0,0,0,1.29.88,3.06,3.06,0,0,1,.69.44,1.07,1.07,0,0,1-.16.52c-1.25,2.5-1,2.93,1.18,5.16.59.58,1.16,1.08,1.67,1.51a11.24,11.24,0,0,1,1.24,1.17,5,5,0,0,0-.69,4.5,1.6,1.6,0,0,0,1.49,1.11,3.66,3.66,0,0,1,.55,0,5.73,5.73,0,0,1,.74.69,11,11,0,0,0,.92.79c1.08.88,1.79,1.52,1.79,2.5,0,1.53,0,2.87.14,4a11.24,11.24,0,0,0,.31,2,3.48,3.48,0,0,0,.82,1.67,4.23,4.23,0,0,1-.28,1.59c-.25.88-.47,1.64,0,2.25a1.26,1.26,0,0,0,1,.49,8.28,8.28,0,0,0,2.32-.55,7.9,7.9,0,0,1,1.68-.45c.43,0,1.27,0,5-5,.45-.6.94-1.26,1.47-2l.27-.37a2,2,0,0,0,.45-1.55,2.87,2.87,0,0,0-1.78-2c-1-.52-1.7-2.25-1.83-3.11,3.31-.05,4.13-.48,4.45-1.24a1.34,1.34,0,0,0-.36-1.47,4.24,4.24,0,0,1-.76-1.61,6,6,0,0,0-1.24-2.39c-.11-.11-.28-.28,0-.58l.16-.17.08-.22a7,7,0,0,1,1.19-2.33,1.4,1.4,0,0,0,1-.48c.51-.63.35-1.46.15-2.52a10.72,10.72,0,0,1-.25-2,1.45,1.45,0,0,1,.81-1.55,8.25,8.25,0,0,0,.9-.74c.74-.75.63-2,.48-3.6a13.59,13.59,0,0,1,0-3,2.36,2.36,0,0,1,.57-1.35l.41-.42a19,19,0,0,0,2.57-3.46,2.1,2.1,0,0,1,.42.62,14.83,14.83,0,0,0,2,3c.08.49.17,1,.26,1.61s.22,1.41.32,2.08c.2,1.35.36,2.51.36,2.85,0,.87.79,1.7,2.29,3.21a13.22,13.22,0,0,1,1.7,1.88,3.52,3.52,0,0,1-.38,1,4.31,4.31,0,0,0-.61,2c0,1.27,1.09,3.64,2.64,4a10.82,10.82,0,0,1,.36,3v.16l1,3v2.84a5.4,5.4,0,0,1-.09.62c-.19,1-.58,3.16,1.64,4.27a.87.87,0,0,1,.18.11,6.48,6.48,0,0,1,1.77,1.91l.06.09a9.45,9.45,0,0,1,1.44,3v3c0,.63-.27.84-.83,1.24a4.14,4.14,0,0,0-.67.56,1.7,1.7,0,0,0-.5,1.2,3.58,3.58,0,0,0,.5,1.59c1.08,2,3.58,4.41,4.5,4.41,4,0,4.89,1,5.11,1.45.38.77.77,1.71,1.1,2.55H37.81c.48.67,1,1.34,1.5,2l1,1.34c.52.65,1,1.3,1.59,1.94A112.64,112.64,0,0,0,154.4,238.25c.8-.19,1.6-.38,2.39-.59s1.28-.33,1.92-.52a1.49,1.49,0,0,1,0-.66.5.5,0,0,1,.31-.35c2-1,6.86-3.91,7.06-4l2.07-1.24-2.34-.59c-.92-.23-3.7-1.18-4.35-2.48a.54.54,0,0,1,0-.45c.26-.76,1.59-1.62,2.27-2L177,222.05l-.79-1.18a17.59,17.59,0,0,0-1.91-2.34c-.66-.66-1.85-.75-3.11-.85a11.31,11.31,0,0,1-1.6-.19,3.87,3.87,0,0,1,1.54-1.36,2.6,2.6,0,0,0,1.41-1.46,26.59,26.59,0,0,1,3.29-1c3.17-.79,4.76-1.19,4.76-2.47a3.25,3.25,0,0,0-1.19-2,12.92,12.92,0,0,0-2.78-2c-.19-.1-.37-.2-.55-.28a6.3,6.3,0,0,0-2.48-.72h-.16a4.59,4.59,0,0,0,.15-.74c.8-.78,4.87-2.68,6.65-3.51.75-.35,1.39-.65,1.81-.86,1.65-.82,3.54-2.4,3.79-3.91a1.93,1.93,0,0,0-.53-1.69c-1-1-4.93-.82-8.52-.44a21.89,21.89,0,0,1,1.7-4.4c1.89-3.78,2.93-5.86,3.82-6.74a5.19,5.19,0,0,1,1.72-.69c1.2-.34,2.57-.72,2.57-2a2.48,2.48,0,0,1,.17-.68,2.67,2.67,0,0,0-.46-3c-.61-.6-.61-1,0-1.58a3.87,3.87,0,0,1,1-.59,3.37,3.37,0,0,0,2.33-3.12,5.15,5.15,0,0,0-.94-2.76,5.91,5.91,0,0,1-.32-.57c.19-.18.47-.41.78-.66h0a3.52,3.52,0,0,1,.41-.36c.77-.62,1.41-1.16,1.91-1.65a3,3,0,0,0,1.14-2c0-.68-.49-1.23-1.26-2l-.11-.11L191,162a14.56,14.56,0,0,1-1.55-1.74c-.06-.09-.12-.18-.17-.27-.39-.68-.2-.88-.05-1,.4-.41.55-.36,1-.22a2,2,0,0,0,1.73-.08c.7-.42,1.12-1.32,1.5-3.21a21.87,21.87,0,0,0,.52-4.82,3.38,3.38,0,0,1,.39-1.93,6.62,6.62,0,0,0,.62-1.76,1.43,1.43,0,0,1,.07-.27,3.28,3.28,0,0,1,.87-.53c2.19-1.09,2.35-1.25,3.44-3.44a15.58,15.58,0,0,0,.7-1.68c.55-1.52.75-1.77,1.41-1.77,2.64,0,3.82-3.31,3.95-3.68l.44-1.32h-1.39a10.38,10.38,0,0,1-4.06-.65l2.18-4.35,1-2,.77-1.55A8.45,8.45,0,0,1,207,123a13.33,13.33,0,0,0,1.23-1,2.54,2.54,0,0,1,.42-.35c.87-.57.87-.95.87-3.36,0-2,0-2,.28-2.44.15-.25.35-.58.61-1.11a13.5,13.5,0,0,0,1.11-6.45v-.08a1.7,1.7,0,0,1,0-.3,2.32,2.32,0,0,0,.83-1.53,11.13,11.13,0,0,0,.15-2.09,24.39,24.39,0,0,0-.18-2.9c0-.34-.09-.72-.09-.78a3,3,0,0,1,.72-.43,4.39,4.39,0,0,0,1.85-1.85s0,0,0,0a11.87,11.87,0,0,0,.6-1.28,1.42,1.42,0,0,1,.08-.18v.46a1.86,1.86,0,0,0,1,1.61l.52.28a3.79,3.79,0,0,1,.45.25v2.86a4.16,4.16,0,0,0,1.13,3,7.34,7.34,0,0,1,1,1.46l0,.07c-.66.66-.45,1.72-.09,2.8l.4,1.15c.25.69.49,1.31.71,1.89,0,.14.1.28.16.41a10.07,10.07,0,0,1,.68,2.23,11.37,11.37,0,0,0,.81,5,2.6,2.6,0,0,0,.48.68,5.58,5.58,0,0,0,1.29.88,3.06,3.06,0,0,1,.69.44,1.07,1.07,0,0,1-.16.52,12.58,12.58,0,0,0-1.34,4.45,2.51,2.51,0,0,0,.66,2l.09.09a2.59,2.59,0,0,1,.61.9,6.09,6.09,0,0,0,1.16,1.72,5.37,5.37,0,0,0,1.13.8l.36.22a3.94,3.94,0,0,1-.49.56c-2.12,2.13-2.29,3.34-2.29,4.71,0,1.17,1.11,2,2.18,2.8a10.23,10.23,0,0,1,1.11.91l6,6a2.28,2.28,0,0,1,.08,3.51,4.23,4.23,0,0,1-.7-.18c-.48-.16-1.27-.43-1.76.26s0,1.64,1.29,3.3a35.44,35.44,0,0,0,3.72,4.23l.34.35c.22-.74.42-1.48.61-2.23a33.67,33.67,0,0,1-3.07-3.55l-.15-.2a1.76,1.76,0,0,0,1.06-.49,4.32,4.32,0,0,0,0-6.42l-6-6a14.6,14.6,0,0,0-1.33-1.09,6.38,6.38,0,0,1-1.38-1.2c0-.89,0-1.59,1.71-3.29a3,3,0,0,0,1.13-2.3A2.35,2.35,0,0,0,228,131a3.28,3.28,0,0,1-.71-.49,4.06,4.06,0,0,1-.8-1.2.41.41,0,0,0-.05-.09H241C241.05,129.07,241.05,128.91,241.05,128.74ZM128.11,67.38a7.14,7.14,0,0,1-1.56-2.14c0-1.18-1.21-2.62-3.29-4.71-4.85-4.84-6-5.25-6.57-5.29a40.65,40.65,0,0,1-5.37-5.64l-.14-.16L102.35,45,101,46.42a29.47,29.47,0,0,0-5.12,3.11l-1.79,1.79L81.91,63.46l-5.78,3.86-7.1,2-7.9,7.9c-1.53,0-6.32.31-8.29,2.28a8.68,8.68,0,0,1-2.44,1.6,91.53,91.53,0,0,1,163.47,14.5.54.54,0,0,0-.05.11,46.91,46.91,0,0,1-5.56-2.21c-7.3-7.29-8.19-7.29-8.62-7.28a33.46,33.46,0,0,1-5.47-3.79l-.17-.11a52.82,52.82,0,0,1-6.74-3.82c-1.08-1.08-4.58-.8-7.48-.34l-2.45-1.63-2-4-4-3c-2.8-4.63-4-5.23-4.56-5.31-.86-.57-3.94-4.33-6.4-7.61l-.21-.28-.35-.09a39.55,39.55,0,0,0-5.24-1,3.39,3.39,0,0,0-2.21,1.29,4.9,4.9,0,0,1-.79.71c-.74,0-1.77.59-3.51,1.64a17.37,17.37,0,0,1-2.49,1.36c-2.06,0-4.61,5-4.89,5.55-.6,1.18-3.37,3.19-5.22,4.34Zm17.79,35.36h9.42v22.44c-2.59,1.36-4.53,2.5-6,3.45V106.74h-9.46v-2.5A10.51,10.51,0,0,0,129.4,93.71h0a10.5,10.5,0,0,0-10.5,10.46v2.57h-9.54v26h-6v-30h9.41l16.59-16.59Zm-1.22,30h-4.91l0-14.2h7.5V130A8.16,8.16,0,0,0,144.68,132.74ZM125.4,147.83c-1.06-.35-2.68-.83-5.61-1.56-1.43-.36-2.6-.6-3.56-.74a14.17,14.17,0,0,0-2-3l-2-2c-.76-.76-1.71-1.7-1.71-2.29,0-1-1.12-2.41-2.54-3.5h35.66a12.55,12.55,0,0,1-1.83,2.79,3.71,3.71,0,0,0-.68,1c-.27.53-.54,1.07-3.81,1.72-4.83,1-8.14,2.91-9.51,4.27A24.21,24.21,0,0,0,125.4,147.83Zm21.92-31.29h-7.49l0-7.8h7.47Zm-9.46-9.8H130.3l0-11a8.5,8.5,0,0,1,7.54,8.47Zm-9.56,0h-7.44v-2.56a8.51,8.51,0,0,1,7.46-8.41h0Zm9.55,2,0,7.8h-17l0-7.8Zm-17.08,23.94,0-14.14h17l0,14.2Zm-1.94-16.14h-7.51v-7.8h7.53Zm-7.51,2h7.5l0,14.2h-7.45ZM45,118.13c2.52-1.26,17.94-6.89,19.55-6.89,2.39,0,10-3.38,11.45-4.11s3.5-3.32,5.48-5.84A42.58,42.58,0,0,1,84.26,98c1-1,5.5-3.59,9.79-5.84A84.87,84.87,0,0,1,102,88.3a11.69,11.69,0,0,0,3.9,2.71l2,3,7.58,3.12-3.57,3.57H101.32V131.8a26.28,26.28,0,0,1-4.06-3.27,7,7,0,0,0-3.21-1c-7.74-1.31-26.19-1-27.94-.14-.9.39-6.69.42-13.54.23-1-.88-2.43-2.16-4.31-4a29.8,29.8,0,0,0-5.57-2.93h0A7.8,7.8,0,0,1,45,118.13Zm21.36,61.12a9.24,9.24,0,0,0-2.13.54l-.76.25c.31-1.09.73-2.56-.21-3.51a1.11,1.11,0,0,1-.19-.29h6A20.34,20.34,0,0,1,66.36,179.25Zm8.39-32.72a11,11,0,0,1,.09,2,4.35,4.35,0,0,1-.67.55,3.37,3.37,0,0,0-1.62,3.16,12.48,12.48,0,0,0,.29,2.37c0,.23.1.52.13.75-1.06.43-1.82,2-2.31,3.38a2.86,2.86,0,0,0-.43.81,2.28,2.28,0,0,0,.61,2.4,4.24,4.24,0,0,1,.76,1.61,9.62,9.62,0,0,0,.63,1.56,23.41,23.41,0,0,1-2.68.12,1.38,1.38,0,0,0-1.33,1.14,6.26,6.26,0,0,0,2.88,5.75,1.87,1.87,0,0,1,.67.48l0,0c-.37.52-.77,1.05-1.16,1.58H62.7c-.09-.94-.15-2.23-.15-4,0-2-1.47-3.19-2.54-4.06a8.35,8.35,0,0,1-.75-.65c-1-1-1.34-1.26-2.4-1.29a3.1,3.1,0,0,1,.4-2.29,1.74,1.74,0,0,0,.55-1.33c0-1-.86-1.69-2-2.67-.48-.42-1-.88-1.55-1.42A7.42,7.42,0,0,1,52.9,155a4.81,4.81,0,0,1,.54-1.31c1.14-2.27-.55-3.18-1.36-3.62a3.64,3.64,0,0,1-.82-.54,14.6,14.6,0,0,0-1.33-1.09,6.38,6.38,0,0,1-1.38-1.2,8.28,8.28,0,0,0-.55-2.32,7.9,7.9,0,0,1-.45-1.68,2.85,2.85,0,0,1,0-.29c.28-2-.94-2.91-4.83-3.69a9.35,9.35,0,0,1-1.91-.53l0,0a2.35,2.35,0,0,0,.67-1.45A15.48,15.48,0,0,1,42,135a13.55,13.55,0,0,0,.53-2.74c0-1.18-1.21-2.11-2-2.6-.05-1.08-.29-3.12-1.27-4.11a6.9,6.9,0,0,0-1.27-1,1.6,1.6,0,0,1-.44-.33,4.52,4.52,0,0,0-.3-1.46A10,10,0,0,0,35.64,120c.56.19,1.16.4,1.78.63h0c.77.28,1.57.6,2.37.93l1.85.79a33.58,33.58,0,0,1,5.2,2.63c.95.94,1.83,1.79,2.62,2.53s1.68,1.52,2.38,2.08h0a13.3,13.3,0,0,0,2.22,1.56l1.57.83a45.56,45.56,0,0,0,9.64,4.25c3.56.89,8.11,4.41,8.58,4.78.13.12.52.5,1.07,1A11.16,11.16,0,0,0,74.75,146.53Zm9.79-5.45-.06-.32-.22-.22a11.91,11.91,0,0,1-1.82-2.75,2.87,2.87,0,0,0-2-1.78,2,2,0,0,0-1.63.52l-.11.12-.07.14a16.51,16.51,0,0,1-2.58,3.49c-.5-.43-.81-.74-.82-.75l-.09-.07c-.21-.17-5.21-4.15-9.38-5.19a44.3,44.3,0,0,1-9.17-4.07c-.38-.2-.69-.39-1-.55,5.25.1,10.27,0,11.35-.51,2.07-.85,21-.74,27.07.29a5,5,0,0,1,1.79.52,28.79,28.79,0,0,0,5.48,4.19c.4.22.81.43,1.2.6a5.47,5.47,0,0,0,2,.5c1.44,0,3.83,2.36,4,3,0,1.41,1.17,2.58,2.29,3.71l2,2a7.67,7.67,0,0,1,1,1.41,5.25,5.25,0,0,0-2.47.63,1.51,1.51,0,0,1-.82.25,18.09,18.09,0,0,0-2.36.23c-.92.13-2.62.38-2.93.06s-1.3-1.29-9.71-1.29c-.18,0-.72-.06-1.5-.16-2.07-.26-5.83-.82-9.09-1.39C84.78,142.52,84.61,141.48,84.54,141.08Zm7,22c0-4.84-1.5-4.86-2-4.83a3.21,3.21,0,0,1-1-2,3,3,0,0,1,.39-1.05,4.31,4.31,0,0,0,.61-1.95c0-.87-.79-1.7-2.29-3.21a13.16,13.16,0,0,1-1.71-1.89c0-.44-.13-1.35-.28-2.37,3.27.57,6.8,1.08,8.78,1.32.78.1,1.32.15,1.5.15,5.76,0,8,.48,8.29.71,1,1,2.77.77,4.63.5a16.83,16.83,0,0,1,2.08-.21,3.49,3.49,0,0,0,1.74-.47,4.13,4.13,0,0,1,2.63-.39c0,.05,0,.11.08.16l.26-.12h0a29.62,29.62,0,0,1,4,.79,52.89,52.89,0,0,1,6.86,2,21.25,21.25,0,0,0,3.14,1,7.41,7.41,0,0,1,2.59,1.08c1,.64,2.1,1.31,6.51,1.94l2.6.37c2,.28,3.25.46,4.09.62a2.89,2.89,0,0,1,1.74.73l.12.12,1.4,1.28c.78.7,2,1.77,3.16,2.89.71.67,1.42,1.36,2.06,2a13.7,13.7,0,0,1,2.08,2.45,19,19,0,0,1,.78,1.82,6.17,6.17,0,0,0,1.4,2.44,8.58,8.58,0,0,1,1.19,2.78,11.93,11.93,0,0,0-3.69,2.51H95.12a9.14,9.14,0,0,0-1.07-1.15,5.19,5.19,0,0,0-1-.74c-.8-.4-.79-.93-.57-2.13a5.7,5.7,0,0,0,.12-1v-3.16Zm98.07.31c.15.15.33.33.48.5L189,165.73l-.63.52c-7.19,0-9.36.14-10.51,1.28a10.58,10.58,0,0,1-3.27.82,28.58,28.58,0,0,0-4.34.94c-3,1-5.84,2-8.68,2l-.57,0a9.83,9.83,0,0,0-1.72-3.73,4.35,4.35,0,0,1-1-1.74,19,19,0,0,0-.86-2,8.44,8.44,0,0,0-1.12-1.55h32.21C188.91,162.68,189.3,163.07,189.62,163.39Zm-84.18,28.4c-.83-1.68-3.12-2.53-6.79-2.55a12.83,12.83,0,0,1-3.08-3.9,3.3,3.3,0,0,1,.3-.22,3.31,3.31,0,0,0,1.68-2.88v-3a7.8,7.8,0,0,0-1.1-3h57l-1.09,1.31c-1.15,1.39-2.45,3-3.47,4l-5,5c-.36.36-1.73,1.36-3.06,2.33a64.73,64.73,0,0,0-5.94,4.67c-.64.64-1.18,1.18-1.68,1.71H106.9C106.51,194.2,106,192.87,105.44,191.79Zm-34.89,7.72c-.77-.63-1.52-1.27-2.26-1.92-.14-.11-.27-.23-.4-.35h63.56c-.51.67-1.07,1.45-1.73,2.45-1.75,2.62-2.09,6.51-2.16,8h0v12.56a91.26,91.26,0,0,1-57-20.72Zm59,20.72v-11h42.53a86.09,86.09,0,0,1-8.22,3.93A91,91,0,0,1,129.55,220.23Zm56.77-46.66a5.42,5.42,0,0,0-1.48,1,2.88,2.88,0,0,0,0,4.42c.19.19.22.25,0,1a5.2,5.2,0,0,0-.26,1.05,8.34,8.34,0,0,1-1.13.37,6,6,0,0,0-2.59,1.19c-1.11,1.12-2.14,3.17-4.18,7.26s-2.11,6.22-2.11,6.45v1.13l1.12-.14c3.26-.4,7.17-.6,8.14-.27a5.82,5.82,0,0,1-2.71,2.39l-1.75.83c-6.34,2.95-7.8,3.9-7.8,5.06a2.54,2.54,0,0,1-.1.53,2.1,2.1,0,0,0,0,1.47H129.59c0-.25,0-.53.08-.84a13.41,13.41,0,0,1,1.71-5.61,31.94,31.94,0,0,1,2.67-3.55c.57-.64,1.17-1.25,1.92-2l.29-.29a61.3,61.3,0,0,1,5.7-4.47c1.75-1.28,2.85-2.09,3.3-2.53l5-5c1.08-1.09,2.41-2.7,3.59-4.12a33.52,33.52,0,0,1,2.26-2.59s0,0,0,0l.5-.45a13.67,13.67,0,0,1,1.89-1.53,5.78,5.78,0,0,1,1-.53h0a4.93,4.93,0,0,1,1.93-.45h.12c3.16,0,6.29-1,9.32-2.05a27,27,0,0,1,4-.87c2-.33,3.57-.58,4.36-1.37.52-.53,2.8-.66,7.11-.69a2.06,2.06,0,0,0,.13,1.53,6.14,6.14,0,0,0,.4.73,3.33,3.33,0,0,1,.65,1.72C187.55,172.89,187.3,173.08,186.32,173.57Zm12.38-39c.67,1.09,2.67,1.48,4.27,1.61a2,2,0,0,1-1.42,1.06c-2.16,0-2.79,1.71-3.29,3.09a15,15,0,0,1-.6,1.46c-.86,1.7-.86,1.7-2.56,2.56-1.46.73-1.78,1.18-2,2.15a4.83,4.83,0,0,1-.45,1.29,5.23,5.23,0,0,0-.61,2.83,19.8,19.8,0,0,1-.48,4.42,6.53,6.53,0,0,1-.54,1.82l-.17,0a2.7,2.7,0,0,0-3,.71,2.38,2.38,0,0,0-.58,2.71H154.41c-1.37-1.34-3-2.86-4.71-4.38-.69-.63-1.22-1.1-1.44-1.33a3.83,3.83,0,0,0-.55-.46,46.27,46.27,0,0,1,2.73-6.38c.38-.76,1.28-1.16,2.42-1.66a10.41,10.41,0,0,0,3.4-2.08,25.82,25.82,0,0,1,1.93-1.72,19.06,19.06,0,0,0,4.19-4.44c1.24-1.85,2.93-2.38,4.57-2.89a14.24,14.24,0,0,0,2.05-.77,32.38,32.38,0,0,1,4.32-1.43,30.84,30.84,0,0,0,4.68-1.57c1.7-.85,12.33-1.89,16.55-1.89h5.89l-1.78,3.55A1.74,1.74,0,0,0,198.7,134.57Zm10.85-26.33a11.84,11.84,0,0,1-.89,5.55c-.24.47-.41.76-.55,1-.56.94-.56,1.13-.56,3.47,0,.82,0,1.44,0,1.73a4,4,0,0,0-.69.56,9.15,9.15,0,0,1-1,.85,10.07,10.07,0,0,0-3.15,3.41l-1.22,2.45h-6.89c-3.63,0-15.15,1-17.45,2.11a32.38,32.38,0,0,1-4.32,1.43,30.84,30.84,0,0,0-4.68,1.57,13.89,13.89,0,0,1-1.75.64,9.33,9.33,0,0,0-5.63,3.7,17.52,17.52,0,0,1-3.81,4c-.67.56-1.37,1.14-2.07,1.84a8.53,8.53,0,0,1-2.79,1.67c-1.32.58-2.69,1.19-3.39,2.59a57,57,0,0,0-2.82,6.54c-1-.22-2.39-.41-4.55-.71l-2.6-.37c-4-.57-4.83-1.1-5.73-1.66a9.53,9.53,0,0,0-3.17-1.32,23.19,23.19,0,0,1-2.46-.73,18.55,18.55,0,0,1,1.93-2.59c.94-.94,3.79-2.79,8.49-3.73,3.92-.78,4.63-1.65,5.19-2.78a1.54,1.54,0,0,1,.32-.49,17.22,17.22,0,0,0,2.65-4.21c.18-.34.35-.69.53-1.05a3.74,3.74,0,0,1,.75-.95l.13-.13a20.46,20.46,0,0,1,2-1.57,60.23,60.23,0,0,1,6-3.6c.62-.34,1.29-.69,2-1l.09,0c3.11-1.6,3.36-1.68,3.57-1.7a6.92,6.92,0,0,0,1.89-.45c2.84-1,6.78-1,8.68-1,2.1,0,7.69-1.84,8.32-2l.22-.08,5.17-5.16a9.87,9.87,0,0,1,4.29-1.71c.58,0,1.54,0,7.64-10.13a31.6,31.6,0,0,1,5.36-.87c.39,0,1.83.44,7.19,3.78A3.24,3.24,0,0,0,209.55,108.24Zm2.55-9.89c-1.81.9-1.91,1.6-1.72,3.23a21,21,0,0,1,.17,2.66c0,.36,0,.66,0,.91-4.36-2.7-6.85-3.91-8-3.91a35.85,35.85,0,0,0-6.24,1l-.4.1-.22.36c-1.2,2-2.53,4.12-3.7,5.87a6.19,6.19,0,0,1-1.44-1.44c-.08-1.14-1.8-1.87-3.51-2.32a24.23,24.23,0,0,0-3.44-.6,21.68,21.68,0,0,1-4.3-2.69l-7.12-11.18-12.17-3-6-5-7-2-9.85-9c1.63-1.07,4.43-3.08,5.24-4.7,1.06-2.12,2.62-4.19,3.19-4.45.74,0,1.75-.63,3.43-1.64a17.37,17.37,0,0,1,2.49-1.36A3.39,3.39,0,0,0,153.76,58a4.9,4.9,0,0,1,.79-.71,35,35,0,0,1,4.41.89c5.5,7.29,6.86,8,7.42,8.1a22.34,22.34,0,0,1,3.31,4.52l.1.17,4,3,2,4,3.55,2.37.39-.06c2.75-.46,5.63-.57,6.13-.28,1,1,5.95,3.53,7.17,4.14,3.28,2.62,5.43,4,6.4,4.14.5.23,2.58,1.86,7.43,6.72.53.53,2.24,1.21,6.11,2.6A2.32,2.32,0,0,1,212.1,98.35Z"/><path class="cls-1" d="M132.78,11.82A117,117,0,0,1,245.64,123.05h11.82A128.81,128.81,0,0,0,132.78,0Z"/><path class="cls-1" d="M245.75,131.05a117,117,0,0,1-113.2,114.63v11.81a128.8,128.8,0,0,0,125-126.44Z"/><path class="cls-1" d="M11.93,122.81a117,117,0,0,1,112.85-111V0A128.81,128.81,0,0,0,.11,122.81Z"/><path class="cls-1" d="M124.55,245.66A117,117,0,0,1,11.81,130.81H0A128.8,128.8,0,0,0,124.55,257.47Z"/></g></g></svg>