<svg xmlns="http://www.w3.org/2000/svg" viewBox="0 0 388 388"><defs><style>.cls-1{fill:#294199;}</style></defs><title>icon2</title><g id="Layer_2" data-name="Layer 2"><g id="heart"><path class="cls-1" d="M272.21,133.37a51.75,51.75,0,0,0-72.94-.12l-.17.18-4.6,4.73-.08-.08-.33.33-4.79-5.66c-.14-.16-.29-.31-.44-.47a51.66,51.66,0,0,0-73.05,73.07,5.6,5.6,0,0,0,.43.41l5.37,5.15-.12.12,70.87,70.88a3.11,3.11,0,0,0,4.38,0l75.59-75.6A51.75,51.75,0,0,0,272.21,133.37Z"/><path class="cls-1" d="M194,0C86.86,0,0,86.86,0,194S86.86,388,194,388s194-86.86,194-194S301.14,0,194,0Zm92.56,211-80.35,80.35a16.5,16.5,0,0,1-23.33,0l-76.47-76.47-.07-.07-.18-.18L102.54,211l.15-.15a65.07,65.07,0,0,1,91.63-91.77l.58-.6.35.42a65.06,65.06,0,0,1,91.05,91.84Z"/></g></g></svg>