<svg xmlns="http://www.w3.org/2000/svg" viewBox="0 0 388 388"><defs><style>.cls-1{fill:#294199;}</style></defs><title>icon3</title><g id="Layer_2" data-name="Layer 2"><g id="Nerves"><path class="cls-1" d="M194,0C86.86,0,0,86.86,0,194S86.86,388,194,388s194-86.86,194-194S301.14,0,194,0ZM304.8,240.18A27,27,0,0,1,265,216.39l-87.09-23,17.89,72.7a12.78,12.78,0,0,1,7.2,6.09,12.93,12.93,0,1,1-20.76-2.77l-18.42-74.85-35.68,21.77a14.2,14.2,0,1,1-7.27-11.92l29.28-17.87-36.94-8.65a16.26,16.26,0,1,1,2.34-18.69,16.11,16.11,0,0,1,1.75,5.31L159,174.22l-8.18-34.49a20.54,20.54,0,1,1,13.59-3.22l8.7,36.68,72.8-38.64a22.2,22.2,0,1,1,6.54,12.33l-65,34.52,81.32,21.51a27,27,0,1,1,36.11,37.27Z"/></g></g></svg>