<svg xmlns="http://www.w3.org/2000/svg" viewBox="0 0 620.48 269.29"><defs><style>.cls-1{fill:#35c1d8;}.cls-2{fill:#35bc4e;}.cls-3{fill:#e84242;}.cls-4{fill:#294199;}</style></defs><title>logo</title><g id="Layer_2" data-name="Layer 2"><g id="Type"><circle class="cls-1" cx="251.04" cy="249.18" r="20.12"/><circle class="cls-2" cx="310.24" cy="249.18" r="20.12"/><circle class="cls-3" cx="369.44" cy="249.18" r="20.12"/><path class="cls-4" d="M0,8.4H19.43L55.85,109.25h.35L94,8.4H112.4l-48.85,124H47.8Z"/><path class="cls-4" d="M121.16,96.65a20.78,20.78,0,0,0,2.36,9.89,24.66,24.66,0,0,0,6.21,7.61,28.94,28.94,0,0,0,8.93,4.91,32.24,32.24,0,0,0,10.51,1.75A23.47,23.47,0,0,0,162,117.39a41.17,41.17,0,0,0,10-9l11.9,9.1q-13.12,17-36.76,17a45.82,45.82,0,0,1-17.77-3.32,38.59,38.59,0,0,1-13.49-9.2,40.77,40.77,0,0,1-8.49-13.83,48.93,48.93,0,0,1-3-17.24,45.15,45.15,0,0,1,3.24-17.25,42.5,42.5,0,0,1,8.93-13.83,40.73,40.73,0,0,1,13.56-9.19,43.64,43.64,0,0,1,17.16-3.33q11,0,18.65,3.85a36.92,36.92,0,0,1,12.52,10.07,40,40,0,0,1,7.09,14A58.28,58.28,0,0,1,187.69,91v5.61ZM170.88,84a33.1,33.1,0,0,0-1.67-9.63,21.3,21.3,0,0,0-4.46-7.62,20.61,20.61,0,0,0-7.44-5.07,27.16,27.16,0,0,0-10.42-1.84,25.28,25.28,0,0,0-10.59,2.19,25.63,25.63,0,0,0-8.14,5.69A26.27,26.27,0,0,0,123,75.55,21.51,21.51,0,0,0,121.16,84Z"/><path class="cls-4" d="M207.82,0h15.76V132.36H207.82Z"/><path class="cls-4" d="M242.13,90.87a42.24,42.24,0,0,1,3.42-17,44.17,44.17,0,0,1,9.37-13.83,44.59,44.59,0,0,1,62.67,0A44.17,44.17,0,0,1,327,73.88a42.24,42.24,0,0,1,3.42,17,43.17,43.17,0,0,1-12.79,30.9,44.5,44.5,0,0,1-14,9.28,45.77,45.77,0,0,1-34.67,0,44.39,44.39,0,0,1-14-9.28,43.17,43.17,0,0,1-12.79-30.9Zm16.81,0a33.93,33.93,0,0,0,1.93,11.64,26.15,26.15,0,0,0,5.43,9.11,25,25,0,0,0,8.58,5.95,30.66,30.66,0,0,0,22.76,0,25.09,25.09,0,0,0,8.57-5.95,26.15,26.15,0,0,0,5.43-9.11,36.1,36.1,0,0,0,0-23.29,26.19,26.19,0,0,0-5.43-9.1,25.09,25.09,0,0,0-8.57-6,30.66,30.66,0,0,0-22.76,0,25,25,0,0,0-8.58,6,26.19,26.19,0,0,0-5.43,9.1A34,34,0,0,0,258.94,90.87Z"/><path class="cls-4" d="M406.71,71.43a33.05,33.05,0,0,0-9.19-6.91,25.74,25.74,0,0,0-11.47-2.37,25.27,25.27,0,0,0-11.29,2.37A22.89,22.89,0,0,0,366.7,71a29.08,29.08,0,0,0-4.9,9.45,37.15,37.15,0,0,0-1.66,11.12,31.13,31.13,0,0,0,1.92,10.94,27.72,27.72,0,0,0,5.43,9,24.92,24.92,0,0,0,8.41,6,26.72,26.72,0,0,0,11,2.19,25.2,25.2,0,0,0,11.38-2.37,29.19,29.19,0,0,0,8.75-6.91l11.21,11.2A35.44,35.44,0,0,1,404,131.49a50,50,0,0,1-17.25,3,47.51,47.51,0,0,1-17.6-3.15,40.65,40.65,0,0,1-13.74-8.84,39,39,0,0,1-8.93-13.66,47.42,47.42,0,0,1-3.15-17.59,48.18,48.18,0,0,1,3.15-17.69A39.4,39.4,0,0,1,369,50.69a46.75,46.75,0,0,1,17.77-3.24,47.54,47.54,0,0,1,17.42,3.24,38.35,38.35,0,0,1,14.45,9.89Z"/><path class="cls-4" d="M432.45,19.61a11.09,11.09,0,0,1,3.41-8.14,11.4,11.4,0,0,1,16.28,0,11.09,11.09,0,0,1,3.42,8.14,11.11,11.11,0,0,1-3.42,8.14,11.4,11.4,0,0,1-16.28,0A11.1,11.1,0,0,1,432.45,19.61Zm3.67,29.76h15.76v83H436.12Z"/><path class="cls-4" d="M524.71,63H502.13v37.64c0,2.34.06,4.64.17,6.92a18.25,18.25,0,0,0,1.32,6.13,9.78,9.78,0,0,0,3.5,4.37c1.57,1.11,3.88,1.67,6.91,1.67a33.32,33.32,0,0,0,5.78-.53,16.65,16.65,0,0,0,5.43-1.93v14.36a20.62,20.62,0,0,1-7.27,2.19,54,54,0,0,1-6.91.61q-9.1,0-14.1-2.54a17.37,17.37,0,0,1-7.35-6.56,21.17,21.17,0,0,1-2.8-9q-.44-5-.44-10.07V63H468.16V49.37h18.21V26.09h15.76V49.37h22.58Z"/><path class="cls-4" d="M537,49.37h18.21l24.57,64.78h.35l23.57-64.78h16.81L581.09,150.22a107.23,107.23,0,0,1-4.36,9.89,29.79,29.79,0,0,1-5.41,7.62,21.8,21.8,0,0,1-7.58,4.9,29.82,29.82,0,0,1-10.9,1.75,58.43,58.43,0,0,1-7.06-.44,25.54,25.54,0,0,1-6.88-1.83l1.91-14.36a24.64,24.64,0,0,0,9.39,1.92,17.44,17.44,0,0,0,6.18-1,12.11,12.11,0,0,0,4.35-2.8,16.63,16.63,0,0,0,3-4.29c.81-1.63,1.63-3.5,2.44-5.6l5.1-13.13Z"/><path class="cls-4" d="M74,165.13a6.71,6.71,0,0,0-2.44-1.86,8.14,8.14,0,0,0-3.35-.64,8.4,8.4,0,0,0-3.52.73,8.53,8.53,0,0,0-2.81,2A9.72,9.72,0,0,0,60,168.55a11.92,11.92,0,0,0,0,7.88,9.71,9.71,0,0,0,1.84,3.11,8.35,8.35,0,0,0,2.74,2.06,8,8,0,0,0,3.4.73,7.68,7.68,0,0,0,3.67-.86,7.29,7.29,0,0,0,2.64-2.42l5.62,4.19a11.65,11.65,0,0,1-4.93,4,15.36,15.36,0,0,1-6.14,1.3,18.84,18.84,0,0,1-6.61-1.13A15.09,15.09,0,0,1,57,184.21a14.64,14.64,0,0,1-3.44-5.08,18.62,18.62,0,0,1,0-13.31A14.69,14.69,0,0,1,57,160.75a15.09,15.09,0,0,1,5.23-3.22,18.84,18.84,0,0,1,6.61-1.13,15.92,15.92,0,0,1,2.7.24,14.42,14.42,0,0,1,2.77.76,11.69,11.69,0,0,1,2.61,1.38,10.25,10.25,0,0,1,2.25,2.12Z"/><path class="cls-4" d="M85.52,157.18h6.74v24.37h12.49v6.23H85.52Z"/><path class="cls-4" d="M110.07,157.18h6.74v30.6h-6.74Z"/><path class="cls-4" d="M124.63,157.18h9.16l13,21.26h.09V157.18h6.74v30.6h-8.81L131.46,166h-.08v21.78h-6.75Z"/><path class="cls-4" d="M161.45,157.18h6.74v30.6h-6.74Z"/><path class="cls-4" d="M196,165.13a6.83,6.83,0,0,0-2.45-1.86,8.12,8.12,0,0,0-3.34-.64,8.45,8.45,0,0,0-3.53.73,8.63,8.63,0,0,0-2.81,2,9.52,9.52,0,0,0-1.85,3.14,11.92,11.92,0,0,0,0,7.88,9.51,9.51,0,0,0,1.83,3.11,8.29,8.29,0,0,0,2.75,2.06,7.91,7.91,0,0,0,3.39.73,7.65,7.65,0,0,0,3.67-.86,7.29,7.29,0,0,0,2.64-2.42l5.62,4.19a11.65,11.65,0,0,1-4.93,4,15.32,15.32,0,0,1-6.14,1.3,18.84,18.84,0,0,1-6.61-1.13,15.09,15.09,0,0,1-5.23-3.22,14.48,14.48,0,0,1-3.43-5.08,18.62,18.62,0,0,1,0-13.31,14.53,14.53,0,0,1,3.43-5.07,15.09,15.09,0,0,1,5.23-3.22,18.84,18.84,0,0,1,6.61-1.13,15.92,15.92,0,0,1,2.7.24,14.42,14.42,0,0,1,2.77.76,11.69,11.69,0,0,1,2.61,1.38,10.25,10.25,0,0,1,2.25,2.12Z"/><path class="cls-4" d="M217.38,157.18H223l13.31,30.6h-7.6L226,181.3H214.13l-2.55,6.48h-7.43Zm2.59,8.9-3.72,9.51h7.48Z"/><path class="cls-4" d="M241.27,157.18H248v24.37H260.5v6.23H241.27Z"/><path class="cls-4" d="M280.38,157.18h11.85a21.12,21.12,0,0,1,4.43.45,10.61,10.61,0,0,1,3.67,1.52,7.46,7.46,0,0,1,2.5,2.85,9.67,9.67,0,0,1,.93,4.47,9,9,0,0,1-1.68,5.51,7.59,7.59,0,0,1-4.93,2.88l7.78,12.92h-8.08l-6.4-12.23h-3.32v12.23h-6.75Zm6.75,12.66h4c.61,0,1.25,0,1.93-.06a5.84,5.84,0,0,0,1.83-.39,3.21,3.21,0,0,0,1.36-1,3.09,3.09,0,0,0,.54-1.94,3.28,3.28,0,0,0-.47-1.86,3.25,3.25,0,0,0-1.21-1.06,5.58,5.58,0,0,0-1.69-.5,14.76,14.76,0,0,0-1.86-.12h-4.4Z"/><path class="cls-4" d="M310.33,157.18h20.79v6.22H317.07v5.71h13.27v6.22H317.07v6.22H331.9v6.23H310.33Z"/><path class="cls-4" d="M354.11,164.66a4.82,4.82,0,0,0-2.23-1.54,8,8,0,0,0-2.65-.49,6.75,6.75,0,0,0-1.52.17,5.46,5.46,0,0,0-1.46.54,3.14,3.14,0,0,0-1.13,1,2.7,2.7,0,0,0,.61,3.59,9.61,9.61,0,0,0,2.61,1.25c1.05.35,2.18.69,3.39,1a13.72,13.72,0,0,1,3.4,1.47,7.94,7.94,0,0,1,2.61,2.55,7.77,7.77,0,0,1,1,4.28,9.89,9.89,0,0,1-.95,4.45,9,9,0,0,1-2.57,3.15A10.86,10.86,0,0,1,351.5,188a16.72,16.72,0,0,1-4.52.61,16.49,16.49,0,0,1-5.53-.91,14,14,0,0,1-4.76-2.94l4.8-5.27a7,7,0,0,0,2.62,2.14,7.51,7.51,0,0,0,3.26.75,7.29,7.29,0,0,0,1.66-.19,5.34,5.34,0,0,0,1.51-.59,3.25,3.25,0,0,0,1.09-1,2.51,2.51,0,0,0,.41-1.43A2.61,2.61,0,0,0,351,177a10.18,10.18,0,0,0-2.66-1.36c-1.07-.37-2.22-.75-3.46-1.12A16,16,0,0,1,341.4,173a8.36,8.36,0,0,1-2.65-2.51,7.16,7.16,0,0,1-1.06-4.11,9.17,9.17,0,0,1,1-4.32,9.42,9.42,0,0,1,2.59-3.11A11.25,11.25,0,0,1,345,157a15.24,15.24,0,0,1,4.37-.63,17.16,17.16,0,0,1,5,.74,11.55,11.55,0,0,1,4.36,2.46Z"/><path class="cls-4" d="M365.73,157.18h20.79v6.22h-14v5.71h13.26v6.22H372.48v6.22H387.3v6.23H365.73Z"/><path class="cls-4" d="M404.46,157.18H410l13.31,30.6h-7.6l-2.64-6.48H401.22l-2.55,6.48h-7.44Zm2.59,8.9-3.72,9.51h7.48Z"/><path class="cls-4" d="M428.1,157.18h11.84a21.12,21.12,0,0,1,4.43.45,10.53,10.53,0,0,1,3.67,1.52,7.48,7.48,0,0,1,2.51,2.85,9.67,9.67,0,0,1,.93,4.47,9,9,0,0,1-1.69,5.51,7.57,7.57,0,0,1-4.92,2.88l7.77,12.92h-8.08l-6.39-12.23h-3.33v12.23H428.1Zm6.74,12.66h4c.61,0,1.25,0,1.93-.06a5.78,5.78,0,0,0,1.83-.39,3.3,3.3,0,0,0,1.37-1,3.09,3.09,0,0,0,.54-1.94,3.2,3.2,0,0,0-.48-1.86,3.25,3.25,0,0,0-1.21-1.06,5.6,5.6,0,0,0-1.68-.5,15,15,0,0,0-1.86-.12h-4.41Z"/><path class="cls-4" d="M477.8,165.13a6.83,6.83,0,0,0-2.45-1.86,8.14,8.14,0,0,0-3.35-.64,8.44,8.44,0,0,0-3.52.73,8.63,8.63,0,0,0-2.81,2,9.72,9.72,0,0,0-1.86,3.14,12.09,12.09,0,0,0,0,7.88,9.71,9.71,0,0,0,1.84,3.11,8.29,8.29,0,0,0,2.75,2.06,7.91,7.91,0,0,0,3.39.73,7.65,7.65,0,0,0,3.67-.86,7.29,7.29,0,0,0,2.64-2.42l5.62,4.19a11.65,11.65,0,0,1-4.93,4,15.32,15.32,0,0,1-6.14,1.3,18.84,18.84,0,0,1-6.61-1.13,15.09,15.09,0,0,1-5.23-3.22,14.48,14.48,0,0,1-3.43-5.08,18.62,18.62,0,0,1,0-13.31,14.53,14.53,0,0,1,3.43-5.07,15.09,15.09,0,0,1,5.23-3.22,18.84,18.84,0,0,1,6.61-1.13,15.92,15.92,0,0,1,2.7.24,14.42,14.42,0,0,1,2.77.76,11.69,11.69,0,0,1,2.61,1.38A10.25,10.25,0,0,1,483,160.9Z"/><path class="cls-4" d="M489.07,157.18h6.75v11.41h13.09V157.18h6.74v30.6h-6.74V174.55H495.82v13.23h-6.75Z"/></g></g></svg>