<svg xmlns="http://www.w3.org/2000/svg" viewBox="0 0 679.56 356.62"><defs><style>.cls-1,.cls-3{fill:#fff;}.cls-2{opacity:0.6;}.cls-3{opacity:0.65;}</style></defs><title>New-horizons-reversed-logo</title><g id="Layer_2" data-name="Layer 2"><g id="Layer_1-2" data-name="Layer 1"><path class="cls-1" d="M485.74,175.2C473.9,76.5,389.88,0,288,0,191,0,110.23,69.32,92.47,161.11c0,0,79.79-49.24,199.63-41.48S485.74,175.2,485.74,175.2Z"/><path class="cls-1" d="M132.59,264.19l-.74-15.69V226.6h18.61v68.87h-18.2L111.09,258l.74,15.68v21.81H93.22V226.6h18.2Z"/><path class="cls-1" d="M172,274.91c0,5.93,4,9.85,8.48,9.85a6.76,6.76,0,0,0,6.42-4.4h16.38c-3,12.43-13.83,16.55-23.87,16.55-13.84,0-24.55-9.19-24.55-26,0-16.45,10.63-27,24.47-27,16,0,25.61,12.81,25.36,31Zm15.56-10.14c0-4.59-3.54-8.71-7.58-8.71-5.1,0-8,3.35-8,8.71Z"/><path class="cls-1" d="M255.15,276.34h.17l6.67-31h16.22l-13.75,50.12H247.74l-6.67-29.36h-.16l-6,29.36H218.18l-14.25-50.12h16.72l6.58,31h.17l6.67-31h14.49Z"/><path class="cls-1" d="M310.21,295.47V226.6h19.44v23.25H348V226.6h19.44v68.87H348V268.78H329.65v26.69Z"/><path class="cls-1" d="M397.12,243.92c15.23,0,24.62,10.42,24.62,26,0,18.35-10.71,27-24.54,27S372.65,288.1,372.65,271C372.65,253.57,382.54,243.92,397.12,243.92Zm-7.34,26c0,9.46,3.05,13.57,7.42,13.57,4.61,0,7.41-4.11,7.41-13.57,0-7.37-2.8-12.92-7.25-12.63C391.52,257.31,389.78,264.29,389.78,269.94Z"/><path class="cls-1" d="M426.92,245.35h15.57v10.14h.16c2.39-7.85,6.59-11.57,13.26-11.57a18.71,18.71,0,0,1,2.22.28v19.9a21.74,21.74,0,0,0-3.54-.57c-7,0-10.54,3.82-10.54,14.63v17.31H426.92Z"/><path class="cls-1" d="M462.25,224.78h17.13v14.16H462.25Zm0,70.69V245.35h17.13v50.12Z"/><path class="cls-1" d="M484.64,295.47V282.18l19.52-22.29H486.38V245.35h38.86v13.87l-18.86,21.71h19.77v14.54Z"/><path class="cls-1" d="M553.57,243.92c15.23,0,24.62,10.42,24.62,26,0,18.35-10.7,27-24.53,27S529.11,288.1,529.11,271C529.11,253.57,539,243.92,553.57,243.92Zm-7.33,26c0,9.46,3,13.57,7.42,13.57,4.61,0,7.4-4.11,7.4-13.57,0-7.37-2.79-12.92-7.24-12.63C548,257.31,546.24,264.29,546.24,269.94Z"/><path class="cls-1" d="M583.05,245.35h15.64v7.84c3.88-6,8.07-9.27,14.58-9.27,11.37,0,16.72,7.74,16.72,21.52v30H612.86V269c0-5-1.15-9.37-6-9.37-5.27,0-6.67,3.93-6.67,10.34v25.53H583.05Z"/><path class="cls-1" d="M651,279.88a6,6,0,0,0,1.81,4.59A6.23,6.23,0,0,0,657,286c2.63,0,5.43-1,5.43-4.49,0-8-26.44-1.63-26.44-21.05,0-12.82,11.45-16.54,20.43-16.54,9.39,0,20.43,2.48,21.41,15.78H662.26a5.5,5.5,0,0,0-1.64-3.64,4.93,4.93,0,0,0-3.46-1.24c-3,0-4.86,1.05-4.86,3.54,0,7,27.26,2.29,27.26,21,0,10.43-7.41,17.51-23.22,17.51-9.88,0-20.75-3.54-21.66-17Z"/><g class="cls-2"><path class="cls-3" d="M177.53,351.38l-1,2.3a24.65,24.65,0,0,1-11.73,2.77,25.46,25.46,0,0,1-7.14-1,18.49,18.49,0,0,1-5.77-2.76,17.43,17.43,0,0,1-4-4,17.67,17.67,0,0,1-2.38-4.83,19.26,19.26,0,0,1-.81-5.73,17.14,17.14,0,0,1,5.51-13.06q5.52-5.18,15.07-5.18a32,32,0,0,1,4.18.26,38.36,38.36,0,0,1,4.68,1c1.85.49,3,.77,3.39.85a15.33,15.33,0,0,0-.82,2.67,36.57,36.57,0,0,0-.55,4.87H174.6l0-2.92a4.38,4.38,0,0,0-2.69-3.6,17,17,0,0,0-7.16-1.19,19,19,0,0,0-6,.9,11.47,11.47,0,0,0-4.33,2.7,13.94,13.94,0,0,0-3.06,4.67,18.62,18.62,0,0,0-1.22,7.1q0,7.5,4.59,12.05t12.12,4.57a20.49,20.49,0,0,0,6.3-.94,14.84,14.84,0,0,0,4-2Z"/><path class="cls-3" d="M182.09,355.75v-1.28a7.92,7.92,0,0,0,2-1.14,1.28,1.28,0,0,0,.35-.57,13,13,0,0,0,.29-3c.07-2.26.1-3.6.1-4v-13.3q0-3.36-.07-6.58a7.79,7.79,0,0,0-.36-2.78,1.69,1.69,0,0,0-.92-.64,17.4,17.4,0,0,0-3.58-.26v-1.58q6,.19,7.49.2t7.11-.2v1.58a17.48,17.48,0,0,0-3.58.26,1.64,1.64,0,0,0-.88.58,6.28,6.28,0,0,0-.37,2.4q0,.49-.1,7v16.61c0,1.73,0,3.14.1,4.23,1.88.11,3.75.17,5.6.17,4.67,0,7.93-.3,9.8-.89a12.66,12.66,0,0,0,.57-1.71l1-4.1h1.66c-.36,2.46-.72,5.34-1.06,8.65a15.68,15.68,0,0,1-1.62.25c-.86.05-2.18.07-4,.07l-14.68-.19C185.34,355.56,183.73,355.62,182.09,355.75Z"/><path class="cls-3" d="M225.74,354.17v1.58c-3.53-.13-5.84-.19-7-.19l-7.66.19v-1.58a17.52,17.52,0,0,0,3.57-.26,1.59,1.59,0,0,0,.89-.58,6.08,6.08,0,0,0,.37-2.4q0-.51.1-7V332.47q0-3.36-.07-6.58a7.79,7.79,0,0,0-.36-2.78,1.69,1.69,0,0,0-.92-.64,17.4,17.4,0,0,0-3.58-.26v-1.58q4.74.17,7.31.17t7.3-.17v1.58a17.53,17.53,0,0,0-3.59.26,1.64,1.64,0,0,0-.88.58,6.28,6.28,0,0,0-.37,2.4q0,.49-.1,7v11.44c0,2.24,0,4.43.08,6.55a7.79,7.79,0,0,0,.35,2.8,1.7,1.7,0,0,0,.92.65A17.53,17.53,0,0,0,225.74,354.17Z"/><path class="cls-3" d="M228.49,355.75V354.2a10.22,10.22,0,0,0,3.42-.4,1,1,0,0,0,.5-.47,8.73,8.73,0,0,0,.34-2.59q.15-3.27.15-5.64V325a3.41,3.41,0,0,0-.1-1.06,3.45,3.45,0,0,0-.89-1.06,2.13,2.13,0,0,0-1-.51,19.31,19.31,0,0,0-2.59-.13v-1.56c2.76.06,4.5.1,5.21.1,1.2,0,2.4,0,3.59-.1q2.11,2.75,3.1,4.05l5.14,6.31,7.48,9q3.6,4.31,5.78,6.78c.93,1.08,1.71,1.94,2.33,2.57V331.26c0-1.62-.05-3.51-.17-5.69a9.55,9.55,0,0,0-.32-2.54,1,1,0,0,0-.52-.47,10.66,10.66,0,0,0-3.4-.37v-1.56c1.95.06,3.93.1,5.93.1s3.59,0,5.13-.1v1.56a10.66,10.66,0,0,0-3.4.37.91.91,0,0,0-.49.49,8.44,8.44,0,0,0-.35,2.6q-.15,3.25-.15,5.61v11.89q0,3.6.12,13.47l-2.55-.74-.59-.13a.85.85,0,0,1-.28-.15,10.7,10.7,0,0,1-.94-1q-2.06-2.33-3-3.51l-3.2-4-17.59-20.94v19c0,1.61.06,3.52.18,5.71a8.79,8.79,0,0,0,.32,2.52,1.05,1.05,0,0,0,.52.5,11,11,0,0,0,3.4.37v1.55c-1.46-.11-3.06-.17-4.81-.17Q231.86,355.58,228.49,355.75Z"/><path class="cls-3" d="M285.05,354.17v1.58q-5.28-.19-6.94-.19l-7.66.19v-1.58a17.52,17.52,0,0,0,3.57-.26,1.63,1.63,0,0,0,.89-.58,6.28,6.28,0,0,0,.37-2.4q0-.51.1-7V332.47q0-3.36-.07-6.58a7.79,7.79,0,0,0-.36-2.78,1.69,1.69,0,0,0-.92-.64,17.48,17.48,0,0,0-3.58-.26v-1.58q4.73.17,7.31.17t7.29-.17v1.58a17.4,17.4,0,0,0-3.58.26,1.6,1.6,0,0,0-.88.58,6.28,6.28,0,0,0-.37,2.4q0,.49-.1,7v11.44c0,2.24,0,4.43.07,6.55a7.94,7.94,0,0,0,.36,2.8,1.7,1.7,0,0,0,.92.65A17.4,17.4,0,0,0,285.05,354.17Z"/><path class="cls-3" d="M321,351.38l-1,2.3a24.65,24.65,0,0,1-11.73,2.77,25.46,25.46,0,0,1-7.14-1,18.49,18.49,0,0,1-5.77-2.76,17.24,17.24,0,0,1-4-4,17.67,17.67,0,0,1-2.38-4.83,18.94,18.94,0,0,1-.82-5.73,17.15,17.15,0,0,1,5.52-13.06q5.52-5.18,15.06-5.18a31.77,31.77,0,0,1,4.18.26,38.47,38.47,0,0,1,4.69,1c1.84.49,3,.77,3.38.85a16.18,16.18,0,0,0-.81,2.67,36.57,36.57,0,0,0-.55,4.87h-1.56l0-2.92a4.34,4.34,0,0,0-2.69-3.6,16.91,16.91,0,0,0-7.15-1.19,19.07,19.07,0,0,0-6,.9,11.43,11.43,0,0,0-4.32,2.7,14.11,14.11,0,0,0-3.07,4.67,18.63,18.63,0,0,0-1.21,7.1q0,7.5,4.59,12.05c3.05,3,7.1,4.57,12.12,4.57a20.49,20.49,0,0,0,6.3-.94,14.79,14.79,0,0,0,3.94-2Z"/><path class="cls-3" d="M323.27,355.75v-1.68a12.65,12.65,0,0,0,2.44-.16,2.09,2.09,0,0,0,.89-.52,7.86,7.86,0,0,0,1.18-2q.45-.91,3.22-6.94l6.2-13.94q1-2.31,4.34-10.24h1.61l10.59,24.79q2.58,6,3.43,7.57a2.58,2.58,0,0,0,1,1.14,7.34,7.34,0,0,0,2.52.29v1.68q-3.87-.24-5.4-.24l-8,.24v-1.68a27.54,27.54,0,0,0,3.37-.17,1.46,1.46,0,0,0,.81-.36.84.84,0,0,0,.21-.58,4.09,4.09,0,0,0-.35-1.41L348.31,344H334l-2.7,6.35a7.44,7.44,0,0,0-.72,2.5.8.8,0,0,0,.2.56,1.42,1.42,0,0,0,.84.45,18.36,18.36,0,0,0,3.23.22v1.68q-4.2-.22-6.28-.22C326.92,355.53,325.17,355.6,323.27,355.75Zm11.53-13.86h12.52L341.12,327Z"/><path class="cls-3" d="M365.05,355.75v-1.28a7.92,7.92,0,0,0,2-1.14,1.28,1.28,0,0,0,.35-.57,13.65,13.65,0,0,0,.29-3c.07-2.26.1-3.6.1-4v-13.3q0-3.36-.07-6.58a7.79,7.79,0,0,0-.36-2.78,1.69,1.69,0,0,0-.92-.64,17.4,17.4,0,0,0-3.58-.26v-1.58q6,.19,7.49.2t7.11-.2v1.58a17.48,17.48,0,0,0-3.58.26,1.64,1.64,0,0,0-.88.58,6.28,6.28,0,0,0-.37,2.4q0,.49-.1,7v16.61c0,1.73,0,3.14.1,4.23,1.88.11,3.75.17,5.6.17,4.67,0,7.93-.3,9.8-.89a12.66,12.66,0,0,0,.57-1.71l1-4.1h1.66c-.36,2.46-.72,5.34-1.06,8.65a15.68,15.68,0,0,1-1.62.25c-.86.05-2.18.07-4,.07l-14.68-.19C368.3,355.56,366.69,355.62,365.05,355.75Z"/><path class="cls-3" d="M404.88,322.21v-1.58l2.95.07,4.76.13c.94,0,2.4,0,4.39-.1,2.58-.1,4.07-.15,4.49-.15a20.62,20.62,0,0,1,6.9.84,6.69,6.69,0,0,1,3.36,2.73,7.52,7.52,0,0,1,1.19,4.12,8.56,8.56,0,0,1-1.11,4.12,9.45,9.45,0,0,1-3.24,3.42,17.12,17.12,0,0,1-5.52,2.1c.42.57,1.39,1.86,2.93,3.85l6.25,8.21c1.78,2.29,2.83,3.57,3.12,3.83a1.45,1.45,0,0,0,.45.25,6.79,6.79,0,0,0,1.64.12v1.58q-1.89-.15-3.3-.15t-3.6.15q-1.6-1.85-5.4-7.24c-1.41-2-2.65-3.66-3.72-5q-2.61-3.31-5-6l.25-.74c.85.05,1.51.07,2,.07q4.51,0,6.85-2.12a7.25,7.25,0,0,0,2.33-5.61,6.17,6.17,0,0,0-2-4.84q-2-1.78-6.07-1.79a16.69,16.69,0,0,0-5,.77c-.07.89-.12,1.72-.15,2.5,0,.23-.08,2.62-.18,7.19v11c0,2.24,0,4.43.1,6.55a7.89,7.89,0,0,0,.34,2.8,1.69,1.69,0,0,0,.93.65,17.52,17.52,0,0,0,3.57.26v1.58q-3.53-.19-6.47-.19-2.38,0-8,.19v-1.58a17.52,17.52,0,0,0,3.57-.26,1.63,1.63,0,0,0,.89-.58,6.28,6.28,0,0,0,.37-2.4q0-.51.1-7V332.47q0-3.36-.07-6.58a7.79,7.79,0,0,0-.36-2.78,1.69,1.69,0,0,0-.92-.64A17.48,17.48,0,0,0,404.88,322.21Z"/><path class="cls-3" d="M439.45,355.75V354.2a10.22,10.22,0,0,0,3.42-.4.94.94,0,0,0,.49-.47,8.6,8.6,0,0,0,.35-2.59q.15-3.27.15-5.64V332.47c0-2.24,0-4.43-.07-6.58a7.79,7.79,0,0,0-.36-2.78,1.69,1.69,0,0,0-.92-.64,17.53,17.53,0,0,0-3.59-.26v-1.58l7.07.15,7.49-.13q5.38-.07,7.81-.07a37.88,37.88,0,0,1,4.64.27,20.61,20.61,0,0,0-.55,2.45c0,.15-.18,1.86-.44,5.14h-1.56a27.25,27.25,0,0,0-.33-4.6,11.19,11.19,0,0,0-3-.76,43.08,43.08,0,0,0-5.55-.35c-.4,0-1.28,0-2.66.1s-2.35.12-2.95.17c-.06,1.83-.11,3.54-.15,5.14l-.09,8.36c1.93.1,3.71.15,5.33.15a38,38,0,0,0,5-.28,1.48,1.48,0,0,0,1-.39,5.77,5.77,0,0,0,.39-2l.15-1.73h1.49v.47l-.12,5.14.12,5.76h-1.73l-.08-1.68a5.55,5.55,0,0,0-.33-2.27,1.59,1.59,0,0,0-1.08-.62,32,32,0,0,0-5.48-.3c-1.11,0-2.68,0-4.71.13q-.13,2.46-.13,7.34,0,4.57.13,6.94,3.57.27,8,.27a35.64,35.64,0,0,0,4.48-.19,10.49,10.49,0,0,0,2.48-.67,15,15,0,0,0,.6-2.08c.36-1.46.6-2.57.72-3.31h1.63a66.76,66.76,0,0,0-.64,8.28,34.7,34.7,0,0,1-5.18.32l-14.81-.19Z"/><path class="cls-3" d="M470.32,354.54a57.89,57.89,0,0,0,.47-7.69h1.69a18.27,18.27,0,0,0,.41,4.27,3.68,3.68,0,0,0,1.37,1.39,11.2,11.2,0,0,0,2.93,1.33,11.9,11.9,0,0,0,3.54.58,9.48,9.48,0,0,0,4.62-1.15,7.22,7.22,0,0,0,3.07-3,8.46,8.46,0,0,0,1-4,7.5,7.5,0,0,0-.48-2.82,4.4,4.4,0,0,0-1.48-1.91,6.12,6.12,0,0,0-2.46-1c-.61-.1-1.83-.26-3.67-.49s-3.39-.49-4.68-.77a10.55,10.55,0,0,1-3.8-1.85,7.83,7.83,0,0,1-2-2.8,9.24,9.24,0,0,1-.75-3.73,10.61,10.61,0,0,1,1.52-5.5,10.25,10.25,0,0,1,4.51-4,14.92,14.92,0,0,1,6.49-1.43,22,22,0,0,1,9.25,2.2,27.81,27.81,0,0,0-.5,2.91c-.1.89-.17,2.22-.22,4h-1.69a27.83,27.83,0,0,0-.22-4.15,6.38,6.38,0,0,0-1.69-1.61,10.79,10.79,0,0,0-5.33-1.43,7.44,7.44,0,0,0-7.88,7.85,5.83,5.83,0,0,0,.76,3.25,5.3,5.3,0,0,0,2.76,1.84,24.36,24.36,0,0,0,4.46.88q3.1.4,5.58.88a9.72,9.72,0,0,1,3.45,1.64,7.3,7.3,0,0,1,1.83,2.49,8.5,8.5,0,0,1,.72,3.62,11.14,11.14,0,0,1-4.09,8.57,15.29,15.29,0,0,1-10.59,3.66A20.14,20.14,0,0,1,470.32,354.54Z"/><path class="cls-3" d="M497.13,355.75V354.2a10.22,10.22,0,0,0,3.42-.4.94.94,0,0,0,.49-.47,8.27,8.27,0,0,0,.35-2.59q.15-3.27.15-5.64V332.47q0-3.36-.07-6.58a7.79,7.79,0,0,0-.36-2.78,1.69,1.69,0,0,0-.92-.64,17.48,17.48,0,0,0-3.58-.26v-1.58l7.06.15,7.49-.13q5.38-.07,7.81-.07a37.76,37.76,0,0,1,4.64.27,20.61,20.61,0,0,0-.55,2.45c0,.15-.18,1.86-.44,5.14h-1.56a27.25,27.25,0,0,0-.33-4.6,11.19,11.19,0,0,0-3-.76,43.08,43.08,0,0,0-5.55-.35c-.4,0-1.28,0-2.65.1s-2.36.12-3,.17c-.06,1.83-.11,3.54-.15,5.14l-.09,8.36c1.93.1,3.71.15,5.33.15a37.89,37.89,0,0,0,5-.28,1.48,1.48,0,0,0,1-.39,5.92,5.92,0,0,0,.4-2l.14-1.73h1.49v.47l-.12,5.14.12,5.76H518l-.08-1.68a5.55,5.55,0,0,0-.33-2.27,1.59,1.59,0,0,0-1.08-.62,32,32,0,0,0-5.48-.3c-1.11,0-2.68,0-4.71.13q-.13,2.46-.13,7.34,0,4.57.13,6.94,3.57.27,8,.27a35.53,35.53,0,0,0,4.48-.19,10.49,10.49,0,0,0,2.48-.67,15,15,0,0,0,.6-2.08c.36-1.46.6-2.57.72-3.31h1.63a68.76,68.76,0,0,0-.64,8.28,34.7,34.7,0,0,1-5.18.32l-14.81-.19Z"/><path class="cls-3" d="M527.26,355.75v-1.68a12.65,12.65,0,0,0,2.44-.16,2.09,2.09,0,0,0,.89-.52,7.86,7.86,0,0,0,1.18-2q.45-.91,3.22-6.94l6.2-13.94q1-2.31,4.34-10.24h1.61l10.59,24.79q2.58,6,3.42,7.57a2.65,2.65,0,0,0,1,1.14,7.3,7.3,0,0,0,2.52.29v1.68c-2.58-.16-4.38-.24-5.41-.24l-8,.24v-1.68a27.54,27.54,0,0,0,3.37-.17,1.46,1.46,0,0,0,.81-.36.84.84,0,0,0,.21-.58,4.09,4.09,0,0,0-.35-1.41L552.3,344H537.94l-2.7,6.35a7.44,7.44,0,0,0-.72,2.5.8.8,0,0,0,.2.56,1.42,1.42,0,0,0,.84.45,18.27,18.27,0,0,0,3.23.22v1.68q-4.2-.22-6.28-.22C530.91,355.53,529.16,355.6,527.26,355.75Zm11.53-13.86h12.52L545.11,327Z"/><path class="cls-3" d="M567,322.21v-1.58l3,.07,4.76.13c.94,0,2.4,0,4.39-.1,2.58-.1,4.07-.15,4.49-.15a20.62,20.62,0,0,1,6.9.84,6.69,6.69,0,0,1,3.36,2.73,7.52,7.52,0,0,1,1.19,4.12,8.56,8.56,0,0,1-1.11,4.12,9.45,9.45,0,0,1-3.24,3.42,17.12,17.12,0,0,1-5.52,2.1c.42.57,1.39,1.86,2.93,3.85l6.25,8.21c1.78,2.29,2.83,3.57,3.12,3.83a1.45,1.45,0,0,0,.45.25,6.79,6.79,0,0,0,1.64.12v1.58q-1.89-.15-3.3-.15t-3.6.15q-1.6-1.85-5.4-7.24c-1.41-2-2.65-3.66-3.72-5q-2.61-3.31-5-6l.24-.74c.86.05,1.52.07,2,.07q4.51,0,6.85-2.12a7.25,7.25,0,0,0,2.33-5.61,6.17,6.17,0,0,0-2-4.84q-2-1.78-6.07-1.79a16.69,16.69,0,0,0-5,.77c-.07.89-.12,1.72-.15,2.5,0,.23-.08,2.62-.18,7.19v11c0,2.24,0,4.43.1,6.55a7.89,7.89,0,0,0,.34,2.8,1.69,1.69,0,0,0,.93.65,17.52,17.52,0,0,0,3.57.26v1.58q-3.53-.19-6.47-.19-2.38,0-8,.19v-1.58a17.52,17.52,0,0,0,3.57-.26,1.63,1.63,0,0,0,.89-.58,6.28,6.28,0,0,0,.37-2.4q0-.51.1-7V332.47q0-3.36-.07-6.58a7.79,7.79,0,0,0-.36-2.78,1.69,1.69,0,0,0-.92-.64A17.48,17.48,0,0,0,567,322.21Z"/><path class="cls-3" d="M634.41,351.38l-1,2.3a24.65,24.65,0,0,1-11.73,2.77,25.46,25.46,0,0,1-7.14-1,18.49,18.49,0,0,1-5.77-2.76,17.43,17.43,0,0,1-4-4,17.67,17.67,0,0,1-2.38-4.83,19.26,19.26,0,0,1-.81-5.73,17.14,17.14,0,0,1,5.51-13.06q5.52-5.18,15.07-5.18a32,32,0,0,1,4.18.26,38.36,38.36,0,0,1,4.68,1c1.85.49,3,.77,3.39.85a15.33,15.33,0,0,0-.82,2.67,38.31,38.31,0,0,0-.55,4.87h-1.56l0-2.92a4.38,4.38,0,0,0-2.69-3.6,17,17,0,0,0-7.16-1.19,19,19,0,0,0-6,.9,11.47,11.47,0,0,0-4.33,2.7,13.94,13.94,0,0,0-3.06,4.67,18.62,18.62,0,0,0-1.22,7.1q0,7.5,4.59,12.05t12.12,4.57a20.49,20.49,0,0,0,6.3-.94,14.84,14.84,0,0,0,4-2Z"/><path class="cls-3" d="M637,322.21v-1.58l7.59.15,7-.15v1.58a17.61,17.61,0,0,0-3.59.26,1.64,1.64,0,0,0-.88.58,6.49,6.49,0,0,0-.37,2.4c0,.33,0,2.67-.1,7v3.43q4.89.18,11.91.18,5.37,0,8.6-.18v-3.43q0-3.36-.1-6.58a7.79,7.79,0,0,0-.36-2.78,1.65,1.65,0,0,0-.92-.64,17.4,17.4,0,0,0-3.58-.26v-1.58c3.56.1,6,.15,7.32.15.49,0,2.91,0,7.24-.15v1.58a17.52,17.52,0,0,0-3.57.26,1.5,1.5,0,0,0-.87.58,5.72,5.72,0,0,0-.4,2.4c0,.33-.05,2.66-.1,7V343.9c0,2.24,0,4.42.1,6.54a7.77,7.77,0,0,0,.34,2.79,1.65,1.65,0,0,0,.93.66,18.34,18.34,0,0,0,3.57.26v1.6q-4.78-.19-7.84-.19-3.24,0-6.72.19v-1.6a18.21,18.21,0,0,0,3.58-.26,1.69,1.69,0,0,0,.89-.58,5.89,5.89,0,0,0,.37-2.4c0-.34.06-2.68.12-7v-5.62q-6.95-.15-10.54-.15-3.92,0-10,.15v5.62q0,3.36.08,6.54a7.82,7.82,0,0,0,.36,2.79,1.64,1.64,0,0,0,.91.66,18.44,18.44,0,0,0,3.59.26v1.6q-3.35-.22-6.9-.22-3.87,0-7.68.22v-1.6a18.34,18.34,0,0,0,3.57-.26,1.69,1.69,0,0,0,.89-.58,6.28,6.28,0,0,0,.37-2.4q0-.51.1-7V332.46q0-3.36-.07-6.57a7.79,7.79,0,0,0-.36-2.78,1.69,1.69,0,0,0-.92-.64A17.48,17.48,0,0,0,637,322.21Z"/></g><path class="cls-1" d="M61.89,351.13S-23.9,287.76,46.8,207.58c0,0,84.5-101.31,286.25-77.17,0,0,156.5,9.49,208.66,111.66,0,0-12.94-94.42-207.36-125.46,0,0-155.59-31-277.63,52.6C-62.27,250.69,39.37,342.4,61.89,351.13Z"/></g></g></svg>